<?xml version="1.0" encoding="UTF-8" standalone="no"?>
<!DOCTYPE svg PUBLIC "-//W3C//DTD SVG 1.1//EN" "http://www.w3.org/Graphics/SVG/1.1/DTD/svg11.dtd">
<svg width="100%" height="100%" viewBox="0 0 505 505" version="1.1" xmlns="http://www.w3.org/2000/svg" xmlns:xlink="http://www.w3.org/1999/xlink" xml:space="preserve" xmlns:serif="http://www.serif.com/" style="fill-rule:evenodd;clip-rule:evenodd;stroke-linejoin:round;stroke-miterlimit:2;">
    <g transform="matrix(1,0,0,1,-45.5112,-168.626)">
        <g id="Livello-1" serif:id="Livello 1">
            <g transform="matrix(1,0,0,1,385.352,413.966)">
                <path d="M0,12.435L4.869,12.452L4.76,46.376L-0.092,46.289L0,12.435ZM-82.341,-61.271L-78.569,-61.192L-78.664,45.665L-82.375,45.583L-82.341,-61.271ZM79.133,18.344C79.133,10.492 87.142,10.987 89.565,13.253C92.741,16.222 91.479,24.331 91.479,29.387C91.479,34.362 92.555,42.748 89.585,45.544C85.949,48.967 79.135,46.733 79.132,40.764L79.133,18.344ZM-53.626,46.334C-53.942,44.035 -50.3,15.381 -49.495,12.442L-43.451,12.443C-42.774,14.304 -38.925,44.213 -39.131,46.371L-43.834,46.255C-44.938,41.053 -42.738,38.779 -48.184,39.589L-49.103,46.375L-53.626,46.334ZM8.057,12.432L12.665,12.523C13.576,15.458 15.026,26.038 15.989,27.122L16.091,12.44L20.541,12.472L20.449,46.366L15.651,46.327L13.865,37.138C13.479,35.077 13.47,35.242 12.729,34.496L12.681,46.356L7.982,46.264L8.057,12.432ZM-37.08,12.452L-32.373,12.474L-29.058,27.946L-29.033,12.475L-24.554,12.531L-24.557,46.316L-29.479,46.311C-29.554,45.371 -31.441,35.289 -32.069,33.801L-32.46,46.371L-37.124,46.233L-37.08,12.452ZM51.478,12.459C57.396,12.109 56.019,11.847 57.661,20.112C57.906,21.346 58.119,22.445 58.387,23.752L58.998,26.44C59.203,26.944 59.196,26.869 59.426,27.144L59.534,12.422L63.921,12.516L63.864,46.364L58.948,46.225C58.604,43.076 56.979,34.761 56.113,32.465L56.116,46.323L51.339,46.241L51.478,12.459ZM37.748,12.416L48.96,12.468L48.976,17.809L42.367,17.867L42.432,26.655L48.02,26.73L47.983,32.088L42.355,32.187L42.413,41.084L48.983,41.185L48.893,46.373L37.617,46.325L37.748,12.416ZM22.919,18.344C22.918,14.109 25.064,11.876 29.267,11.908C36.274,11.961 35.325,18.635 35.196,24.038L30.5,23.831C30.353,18.695 31.362,16.954 28.258,17.427C27.082,19.116 27.674,33.288 27.641,37.421C27.622,39.701 27.111,42.286 30.064,41.242C30.876,39.346 30.417,36.999 30.504,34.888L35.177,34.841C35.692,39.721 35.678,45.211 31.705,46.564C26.787,48.24 22.92,45.448 22.918,40.764L22.919,18.344ZM-67.872,18.678C-67.868,13.679 -64.506,10.502 -59.296,12.168C-55.099,13.51 -55.299,19.241 -55.727,24.042L-60.312,23.959C-60.414,22.36 -60.219,20.459 -60.356,18.984C-60.553,16.877 -62.381,16.662 -63.023,18.069C-64.021,20.249 -63.365,23.598 -61.219,25.846C-55.692,31.633 -55.659,29.557 -55.646,40.094C-55.647,44.629 -57.613,47.111 -62.1,46.976C-68.802,46.775 -67.983,40.244 -67.904,34.867L-63.271,34.897C-63.082,37.809 -64.393,42.58 -60.6,41.207C-59.105,27.571 -67.882,32.301 -67.874,23.029L-67.872,18.678ZM66.222,12.418L76.638,12.464C77.431,17.717 71.425,35.561 71.392,41.089L77.007,41.227L76.937,46.367L65.9,46.281C65.39,40.724 70.271,25.28 71.156,17.914L66.129,17.843L66.222,12.418ZM-12.662,46.228C-13.061,38.402 -17.104,17.6 -16.695,12.446L-11.965,12.475L-9.509,33.719C-8.18,31.42 -8.033,16.495 -6.728,12.424L-2.043,12.507C-1.854,14.629 -5.617,43.77 -6.371,46.367L-12.662,46.228ZM-41.095,4.045C-41.226,1.334 -40.544,-1.747 -40.316,-4.411C-39.742,-11.168 -34.285,-53.863 -33.256,-58.657C-19.544,-58.679 -21.968,-59.821 -21.259,-55.078L-13.885,4.069L-22.771,4.086L-24.431,-8.974L-30.823,-8.924L-32.456,3.621C-33.322,4.202 -33.252,4.091 -34.638,4.115L-41.095,4.045ZM-66.414,-58.586C-63.498,-58.848 -54.851,-58.942 -52.085,-58.558C-42.634,-57.246 -43.52,-45.888 -43.513,-38.53C-43.505,-30.128 -44.688,-30.782 -46.784,-27.5C-46.444,-26.833 -46.752,-27.379 -46.353,-26.86C-45.322,-25.522 -44.644,-25.208 -44.079,-22.797C-43.685,-21.114 -43.507,-18.043 -43.513,-16.13C-43.535,-9.375 -42.688,2.739 -52.13,3.828C-55.447,4.21 -63.143,4.364 -66.455,3.971L-66.414,-58.586ZM-242.342,9.859C-241.932,16.348 -243.645,21.619 -238.015,23.947C-235.923,24.812 -231.589,24.414 -229.068,24.417C-223.129,24.427 -219.316,23.809 -219.35,15.668C-219.359,13.552 -219.079,8.624 -219.667,6.881C-221.098,2.648 -227.004,1.862 -231.185,0.337C-238.683,-2.4 -252.257,-5.843 -257.279,-9.995C-267.182,-18.182 -265.53,-27.46 -265.541,-38.208C-265.554,-49.617 -260.005,-57.232 -251.696,-60.837C-244.924,-63.776 -225.86,-62.629 -217.022,-62.628C-210.887,-62.628 -204.752,-62.631 -198.618,-62.608C-187.867,-62.568 -188.252,-63.626 -187.216,-60.31L-176.665,-31.047C-176.421,-30.617 -176.399,-30.629 -176.198,-30.393C-175.931,-30.733 -176.144,-30.358 -175.764,-31.063L-170.138,-46.553C-168.506,-51.524 -166.508,-57.923 -164.453,-62.587C-158.597,-63.013 -136.628,-62.644 -129.016,-62.645C-116.758,-62.646 -107.303,-64.253 -98.632,-57.883C-96.032,-55.974 -92.486,-51.528 -91.123,-47.673C-89.401,-42.8 -89.743,-37.022 -89.775,-31.515C-89.81,-25.398 -90.569,-21.772 -93.578,-17.489C-94.873,-15.647 -96.075,-14.249 -97.65,-12.864C-99.471,-11.265 -100.032,-11.156 -101.574,-10.141L-102.76,-8.916C-98.563,-6.828 -95.259,-3.714 -92.953,0.018C-89.673,5.328 -89.781,8.67 -89.781,15.667C-89.781,26.668 -89.276,35.579 -100.059,42.944C-104.516,45.989 -108.406,46.7 -114.959,46.79L-171.098,46.721L-141.397,-37.296L-119.485,-37.311C-119.727,-35.184 -121.358,-31.417 -122.096,-29.329L-135.48,8.537C-136.421,11.164 -140.526,21.661 -140.648,23.604C-135.036,23.773 -129.297,23.552 -123.662,23.632C-121.19,23.667 -117.734,23.952 -115.473,23.222C-112.829,22.368 -112.38,21.086 -112.383,18.022C-112.407,-2.492 -110.806,2.585 -129.994,1.56C-129.922,0.478 -122.982,-18.973 -122.323,-19.98C-111.85,-20.779 -112.409,-18.215 -112.392,-34.192C-112.389,-36.83 -112.026,-39.162 -113.99,-40.521C-116.711,-42.403 -125.109,-41.545 -129.016,-41.542C-134.097,-41.537 -139.654,-41.729 -144.68,-41.451L-152.702,-19.436C-155.969,-10.377 -175.736,45.547 -176.532,46.34L-184.39,24.145C-189.352,11.42 -195.292,-6.5 -199.995,-19.796C-201.214,-23.243 -206.843,-39.518 -207.987,-41.498C-213.625,-41.747 -219.703,-41.544 -225.387,-41.543C-235.768,-41.542 -242.389,-43.28 -242.362,-32.521C-242.339,-23.108 -240.82,-23.547 -229.353,-19.847C-224.883,-18.405 -220.854,-16.844 -216.352,-15.453C-197.607,-9.662 -195.944,-4.898 -195.937,15.667C-195.933,28.537 -196.344,35.531 -204.189,41.885C-212.168,48.347 -221.969,46.801 -233.753,46.801C-246.557,46.803 -253.301,47.192 -260.274,38.852C-262.602,36.069 -265.288,31.663 -265.525,26.721C-265.712,22.823 -265.921,13.329 -265.445,9.7L-242.342,9.859ZM68.31,-58.674L91.237,-58.65L91.218,-48.782L84.287,-48.742C83.533,-45.749 84.324,-3.632 84.073,4.067L75.099,3.993L74.923,-48.754L68.25,-48.781L68.31,-58.674ZM45.259,-58.673L66.1,-58.628L66.085,-48.778L54.012,-48.751L54.049,-32.449L64.404,-32.421L64.358,-22.468L54.003,-22.422L54.076,-6.088L66.093,-6.035L66.057,4.074L45.206,4.05L45.259,-58.673ZM-2.546,-17.463C-2.348,-14.815 -3.115,-7.377 -1.772,-5.84C-0.646,-4.551 1.256,-4.835 2.142,-6.111C3.013,-7.368 2.749,-9.637 2.746,-11.438C2.739,-16.632 3.02,-17.731 0.243,-21.244C-5.223,-28.162 -11.842,-27.569 -11.481,-45.914C-11.338,-53.226 -8.828,-59.611 -0.854,-59.683C13.371,-59.751 11.55,-48.752 11.516,-37.49L2.79,-37.483C2.65,-41.522 4.306,-51.325 -0.996,-49.439C-3.168,-48.449 -2.48,-44.176 -2.48,-40.55C-2.481,-33.195 11.558,-29.739 11.545,-17.461C11.535,-8.008 13.488,4.998 0.149,5.04C-11.987,4.949 -12.076,-6.03 -11.437,-17.472L-2.546,-17.463ZM16.814,-58.709L25.345,-58.705C26.12,-55.81 25.437,-41.124 25.578,-36.794C25.817,-37.047 25.784,-36.97 26.027,-37.405L26.705,-39.417C27.018,-40.523 27.252,-41.15 27.545,-42.218C28.077,-44.153 28.593,-45.882 29.13,-47.662C29.977,-50.47 31.368,-56.482 32.427,-58.476C34.625,-59.114 39.036,-58.734 41.665,-58.654C41.384,-56.624 39.925,-52.936 39.214,-50.675C38.39,-48.051 37.598,-45.386 36.741,-42.805C36.083,-40.82 31.715,-28.294 31.794,-27.244C31.882,-26.076 41.424,1.777 41.672,4.076L32.458,4.066L27.411,-12.972C27.145,-13.956 26.908,-14.708 26.602,-15.791C26.295,-16.873 26.12,-17.458 25.548,-18.176L25.397,4.145L16.699,4.07L16.814,-58.709ZM-183.443,-156.482C-183.11,-160.767 -167.677,-163.741 -162.157,-164.069C-153.241,-164.6 -144.402,-162.813 -136.901,-160.494C-118.158,-154.699 -104.251,-146.002 -88.484,-136.972C-86.867,-136.045 -85.488,-134.727 -83.283,-135.672C-81.854,-136.285 -80.333,-137.261 -78.745,-138.168C-68.661,-143.926 -49.862,-152.633 -48.949,-166.022C-48.672,-170.08 -49.343,-175.451 -50.799,-178.663C-52.704,-182.869 -56.535,-184.453 -57.195,-186.956C-52.275,-186.644 -44.893,-184.543 -40.204,-183.561C-39.533,-181.412 -41.117,-183.389 -39.783,-181.335C-38.259,-178.986 -37.414,-178.533 -36.032,-175.365C-30.712,-163.161 -34.42,-156.12 -42.333,-147.616C-48.718,-140.753 -63.499,-131.108 -72.585,-126.358C-72.179,-125.218 -72.383,-125.623 -71.516,-124.799L-68.395,-121.919C-66.896,-120.562 -66.075,-119.76 -64.264,-118.016L-47.54,-102.282C-46.25,-101.083 -40.59,-95.33 -39.002,-94.599C-35.255,-96.409 -32.497,-98.867 -29.079,-100.92C-25.596,-103.014 -22.454,-104.986 -19.058,-106.932C1.871,-118.925 0.672,-119.168 24.163,-127.994C32.275,-131.042 41.15,-133.279 50.855,-133.342L38.791,-144.44C27.17,-154.844 10.563,-164.873 -4.139,-171.788C-25.752,-181.953 -51.88,-189.031 -79.488,-190.107C-142.195,-192.552 -190.126,-166.948 -223.87,-135.403C-225.977,-133.433 -227.76,-131.641 -229.731,-129.554C-233.372,-125.699 -237.157,-121.466 -240.681,-117.077C-247.688,-108.351 -253.403,-99.929 -259.63,-89.181C-291.727,-33.793 -293.023,41.547 -262.625,98.081C-257.818,107.019 -252.802,115.209 -247.014,123.291C-246.289,124.304 -245.384,125.697 -244.354,126.456C-244.64,118.667 -239.356,105.548 -236.624,99.789C-233.42,93.041 -228.221,84.446 -224.099,78.18C-219.911,71.815 -214.563,64.345 -209.749,58.077C-204.05,50.657 -205.255,51.12 -199.622,51.127C-194.28,51.135 -187.727,50.786 -182.536,51.214C-183.714,52.916 -185.805,55.138 -187.219,56.853C-203.515,76.609 -223.204,101.927 -231.147,126.418C-231.936,128.85 -232.632,132.224 -232.907,134.867C-233.406,139.664 -233.345,140.331 -230.741,142.824C-227.056,146.352 -224.197,149.652 -220.409,152.906C-204.613,166.476 -190.833,176.962 -171.039,185.85C-161.288,190.229 -152.114,193.859 -141.01,197.009C-134.346,198.9 -113.017,203.879 -106.261,203.278C-104.235,201.04 -103.076,198.177 -101.707,195.595C-91.863,177.019 -84.906,152.771 -79.071,132.578C-76.008,121.974 -64.396,62.998 -62.816,51.189C-60.37,51.04 -47.928,50.871 -46.235,51.35C-49.19,62.571 -51.802,80.118 -54.163,92.193C-56.888,106.126 -58.95,119.247 -62.402,133.246C-67.149,152.494 -73.319,170.14 -81.007,188.178L-89.148,204.268C-78.462,204.987 -62.815,203.099 -52.553,201.26C-22.353,195.848 7.881,182.396 30.784,165.093C35.286,161.693 54.719,145.726 56.933,141.423C58.545,138.289 57.414,116.453 56.954,113.068C55.456,102.048 52.836,90.537 49.835,80.424C48.291,75.22 46.762,70.23 45.079,65.43C43.365,60.539 41.203,56.047 39.58,51.13L54.023,51.255C55.986,54.733 58.586,64.155 59.765,68.529C65.03,88.081 66.51,96.984 68.098,117.061C68.357,120.348 68.157,124.966 68.521,127.92C72.739,122.926 76.801,116.72 80.514,110.754C92.346,91.743 100.709,71.472 105.521,48.422C115.963,-1.59 106.93,-51.961 81.729,-94.354C76.508,-103.138 70.166,-112.425 63.433,-119.895C61.708,-121.808 61.072,-121.479 57.705,-121.466C55.426,-121.458 53.097,-121.596 50.836,-121.328C37.53,-119.746 19.318,-110.661 8.403,-105.23C2.065,-102.075 -24.578,-87.7 -28.078,-83.382C-27.182,-80.279 -16.888,-70.912 -15.372,-67.189L-33.313,-67.302C-35.261,-69.217 -37.677,-72.698 -39.407,-74.916C-45.02,-74.671 -49.854,-67.237 -55.048,-67.172C-62.822,-67.077 -70.911,-67.074 -78.683,-67.211C-77.251,-69.568 -56.219,-83.083 -51.499,-86.394C-51.814,-87.955 -54.352,-89.608 -55.509,-90.634C-64.282,-98.416 -72.498,-106.567 -81.188,-114.479C-82.27,-115.464 -84.299,-117.522 -85.515,-118.275C-87.457,-117.558 -91.641,-114.5 -93.991,-112.932C-96.708,-111.121 -99.541,-109.458 -102.212,-107.783C-120.211,-96.488 -137.765,-89.263 -158.674,-83.994C-165.986,-82.152 -173.8,-81.168 -181.246,-79.656C-193.426,-77.183 -211.392,-72.19 -223.104,-68.048C-226.777,-66.749 -244.665,-66.875 -249.188,-67.292C-246.427,-70.204 -237.135,-74.709 -232.309,-76.926C-219.732,-82.704 -206.083,-86.625 -192.542,-90.021C-178.201,-93.617 -163.377,-95.211 -149.151,-99.115C-143.369,-100.702 -135.186,-104.272 -130.203,-106.669C-123.77,-109.765 -119.024,-112.659 -113.553,-116.435C-111.74,-117.687 -98.278,-126.213 -97.831,-126.883C-100.619,-131.59 -127.755,-145.736 -134.905,-148.779C-142.381,-151.961 -148.293,-154.19 -157.187,-156.014C-162.678,-157.142 -171.698,-158.272 -177.409,-157.444C-179.474,-157.144 -181.197,-156.234 -183.443,-156.482" style="fill:rgb(6,6,6);"/>
            </g>
            <g transform="matrix(1,0,0,1,201.908,584.613)">
                <path d="M0,-327.129C2.246,-326.881 3.97,-327.791 6.035,-328.091C11.745,-328.919 20.766,-327.789 26.257,-326.661C35.15,-324.837 41.062,-322.608 48.538,-319.426C55.688,-316.383 82.824,-302.237 85.613,-297.53C85.166,-296.86 71.704,-288.334 69.891,-287.082C64.419,-283.306 59.674,-280.412 53.241,-277.316C48.257,-274.919 40.074,-271.349 34.292,-269.762C20.066,-265.858 5.243,-264.264 -9.099,-260.668C-22.64,-257.272 -36.289,-253.351 -48.865,-247.573C-53.691,-245.356 -62.983,-240.851 -65.745,-237.939C-61.222,-237.522 -43.333,-237.396 -39.66,-238.695C-27.949,-242.837 -9.982,-247.83 2.197,-250.303C9.643,-251.815 17.457,-252.799 24.77,-254.641C45.679,-259.91 63.232,-267.135 81.231,-278.43C83.902,-280.105 86.735,-281.768 89.452,-283.579C91.803,-285.147 95.986,-288.205 97.929,-288.922C99.145,-288.169 101.174,-286.111 102.256,-285.126C110.945,-277.214 119.161,-269.063 127.935,-261.281C129.092,-260.255 131.629,-258.602 131.944,-257.041C127.225,-253.73 106.192,-240.215 104.761,-237.858C112.532,-237.721 120.621,-237.724 128.396,-237.819C133.59,-237.884 138.424,-245.318 144.036,-245.563C145.767,-243.345 148.183,-239.864 150.131,-237.949L168.071,-237.836C166.556,-241.559 156.262,-250.926 155.365,-254.029C158.865,-258.347 185.509,-272.722 191.847,-275.877C202.762,-281.308 220.974,-290.393 234.279,-291.975C236.54,-292.243 238.869,-292.105 241.148,-292.113C244.516,-292.126 245.151,-292.455 246.876,-290.542C253.609,-283.072 259.951,-273.785 265.173,-265.001C290.373,-222.608 299.406,-172.237 288.965,-122.225C284.152,-99.175 275.789,-78.904 263.957,-59.893C260.244,-53.927 256.183,-47.721 251.965,-42.727C251.601,-45.681 251.801,-50.299 251.541,-53.586C249.953,-73.663 248.474,-82.566 243.208,-102.118C242.029,-106.492 239.43,-115.914 237.467,-119.392L223.023,-119.517C224.646,-114.6 226.809,-110.108 228.522,-105.217C230.205,-100.417 231.734,-95.427 233.278,-90.223C236.279,-80.11 238.899,-68.599 240.397,-57.579C240.857,-54.194 241.988,-32.358 240.376,-29.224C238.162,-24.921 218.729,-8.954 214.228,-5.554C191.324,11.749 161.091,25.201 130.891,30.613C120.628,32.452 104.981,34.34 94.295,33.621L102.437,17.531C110.124,-0.507 116.294,-18.153 121.041,-37.401C124.493,-51.4 126.556,-64.521 129.28,-78.454C131.642,-90.529 134.253,-108.076 137.208,-119.297C135.516,-119.776 123.073,-119.607 120.627,-119.458C119.048,-107.65 107.436,-48.673 104.372,-38.069C98.537,-17.876 91.58,6.372 81.736,24.948C80.368,27.53 79.208,30.393 77.182,32.631C70.426,33.232 49.097,28.253 42.434,26.362C31.329,23.212 22.155,19.582 12.405,15.203C-7.389,6.315 -21.17,-4.171 -36.966,-17.741C-40.754,-20.995 -43.613,-24.295 -47.298,-27.823C-49.901,-30.317 -49.963,-30.983 -49.463,-35.78C-49.188,-38.423 -48.492,-41.797 -47.704,-44.229C-39.761,-68.72 -20.072,-94.038 -3.776,-113.794C-2.361,-115.509 -0.271,-117.731 0.908,-119.433C-4.283,-119.861 -10.836,-119.512 -16.178,-119.52C-21.812,-119.527 -20.607,-119.99 -26.306,-112.57C-31.12,-106.302 -36.468,-98.832 -40.656,-92.467C-44.778,-86.201 -49.977,-77.606 -53.18,-70.858C-55.913,-65.099 -61.197,-51.98 -60.911,-44.191C-61.94,-44.95 -62.846,-46.343 -63.571,-47.356C-69.358,-55.438 -74.375,-63.628 -79.182,-72.567C-109.58,-129.1 -108.284,-204.44 -76.187,-259.828C-69.959,-270.576 -64.245,-278.998 -57.237,-287.724C-53.713,-292.113 -49.929,-296.346 -46.288,-300.201C-44.317,-302.288 -42.534,-304.08 -40.427,-306.05C-6.683,-337.595 41.248,-363.199 103.955,-360.754C131.563,-359.678 157.691,-352.6 179.305,-342.435C194.007,-335.52 210.613,-325.491 222.234,-315.087L234.299,-303.989C224.594,-303.926 215.719,-301.689 207.606,-298.641C184.115,-289.815 185.314,-289.572 164.386,-277.579C160.989,-275.633 157.848,-273.661 154.364,-271.567C150.946,-269.514 148.188,-267.056 144.441,-265.246C142.854,-265.977 137.193,-271.73 135.903,-272.929L119.18,-288.663C117.368,-290.407 116.548,-291.209 115.049,-292.566L111.928,-295.446C111.061,-296.27 111.265,-295.865 110.858,-297.005C119.944,-301.755 134.726,-311.4 141.11,-318.263C149.023,-326.767 152.731,-333.808 147.411,-346.012C146.029,-349.18 145.185,-349.633 143.66,-351.982C142.326,-354.036 143.91,-352.059 143.239,-354.208C138.551,-355.19 131.168,-357.291 126.248,-357.603C126.908,-355.1 130.739,-353.516 132.645,-349.31C134.101,-346.098 134.771,-340.727 134.494,-336.669C133.581,-323.28 114.782,-314.573 104.698,-308.815C103.11,-307.908 101.59,-306.932 100.16,-306.319C97.955,-305.374 96.576,-306.692 94.959,-307.619C79.192,-316.649 65.286,-325.346 46.542,-331.141C39.041,-333.46 30.203,-335.247 21.287,-334.716C15.766,-334.388 0.333,-331.414 0,-327.129M84.003,-395.669C-39.939,-389.313 -142.877,-283.532 -136.061,-151.302C-129.688,-27.695 -23.669,75.306 108.151,68.441C142.448,66.655 173.527,57.434 199.977,44.101C215.521,36.267 236.794,22.478 249.687,10.495C250.472,9.767 250.805,9.378 251.597,8.73C256.345,4.85 262.549,-2.301 266.253,-5.73L273.016,-13.358C289.328,-33.519 301.394,-51.211 311.436,-76.654C323.379,-106.918 329.903,-139.131 328.051,-175.625C321.773,-299.302 215.954,-402.435 84.003,-395.669" style="fill:white;"/>
            </g>
            <g transform="matrix(1,0,0,1,285.911,660.641)">
                <path d="M0,-471.697C131.951,-478.464 237.771,-375.331 244.048,-251.653C245.9,-215.159 239.376,-182.947 227.433,-152.683C217.391,-127.239 205.325,-109.547 189.013,-89.386L182.25,-81.758C178.546,-78.329 172.342,-71.178 167.594,-67.298C166.802,-66.651 166.469,-66.262 165.685,-65.533C152.791,-53.55 131.519,-39.762 115.974,-31.927C89.524,-18.594 58.445,-9.373 24.148,-7.587C-107.672,-0.723 -213.691,-103.724 -220.064,-227.33C-226.88,-359.561 -123.942,-465.341 0,-471.697M-232.114,-228.666C-231.317,-219.046 -230.64,-210.337 -229.241,-200.926C-222.171,-153.349 -198.614,-107.861 -166.301,-73.203C-164.972,-71.779 -163.965,-70.585 -162.587,-69.219C-155.998,-62.683 -153.04,-60.192 -146.87,-54.492C-144.473,-52.279 -141.175,-49.721 -138.395,-47.572C-119.825,-33.215 -103.292,-23.448 -80.731,-13.886C-10.817,15.748 75.038,8.928 139.718,-31.943C151.575,-39.435 164.322,-48.544 174.536,-58.013C185.539,-68.213 194.979,-77.775 204.176,-89.624C239.514,-135.157 258.29,-190.268 255.78,-251.084C254.027,-293.571 240.086,-335.156 219.619,-367.776C209.091,-384.555 204.903,-389.025 193.527,-402.581C190.2,-406.546 181.943,-414.771 178.42,-417.924L170.361,-425.253C126.276,-463.984 61.068,-487.445 0.643,-483.723C-36.837,-481.414 -67.161,-473.025 -96.233,-458.62C-122.758,-445.478 -150.419,-424.862 -169.933,-402.489C-178.674,-392.468 -185.598,-383.699 -193.122,-372.138C-201.28,-359.602 -208.059,-346.813 -214.106,-332.204C-226.292,-302.771 -234.812,-261.254 -232.114,-228.666" style="fill:rgb(3,3,3);"/>
            </g>
            <g transform="matrix(1,0,0,1,143.01,388.201)">
                <path d="M0,35.623L-23.104,35.464C-23.58,39.093 -23.371,48.587 -23.183,52.485C-22.946,57.427 -20.26,61.833 -17.933,64.616C-10.959,72.956 -4.215,72.567 8.589,72.565C20.373,72.565 30.174,74.111 38.152,67.649C45.998,61.295 46.409,54.301 46.405,41.432C46.398,20.867 44.734,16.102 25.99,10.311C21.488,8.92 17.458,7.359 12.989,5.917C1.522,2.217 0.003,2.656 -0.021,-6.756C-0.047,-17.516 6.574,-15.778 16.955,-15.779C22.639,-15.78 28.717,-15.983 34.354,-15.733C35.499,-13.753 41.127,2.521 42.347,5.968C47.05,19.264 52.99,37.185 57.952,49.909L65.81,72.104C66.606,71.311 86.373,15.387 89.64,6.328L97.662,-15.687C102.688,-15.965 108.245,-15.773 113.326,-15.777C117.232,-15.781 125.631,-16.639 128.352,-14.756C130.316,-13.398 129.953,-11.066 129.95,-8.428C129.933,7.549 130.492,4.985 120.019,5.784C119.36,6.791 112.42,26.243 112.348,27.325C131.536,28.35 129.935,23.272 129.958,43.786C129.962,46.851 129.513,48.132 126.869,48.986C124.607,49.716 121.152,49.432 118.68,49.396C113.045,49.316 107.306,49.537 101.693,49.368C101.816,47.425 105.92,36.929 106.862,34.301L120.246,-3.565C120.984,-5.653 122.615,-9.42 122.857,-11.547L100.945,-11.532L71.244,72.485L127.382,72.555C133.936,72.464 137.826,71.753 142.283,68.708C153.065,61.343 152.561,52.433 152.561,41.432C152.561,34.434 152.669,31.092 149.389,25.783C147.083,22.05 143.779,18.936 139.582,16.849L140.768,15.623C142.31,14.608 142.871,14.499 144.692,12.9C146.267,11.516 147.469,10.118 148.764,8.275C151.773,3.993 152.532,0.366 152.567,-5.751C152.599,-11.258 152.941,-17.036 151.219,-21.909C149.856,-25.764 146.31,-30.21 143.71,-32.119C135.039,-38.488 125.584,-36.881 113.326,-36.88C105.713,-36.879 83.745,-37.249 77.889,-36.823C75.833,-32.159 73.835,-25.76 72.204,-20.789L66.578,-5.298C66.198,-4.594 66.411,-4.969 66.144,-4.629C65.943,-4.865 65.92,-4.853 65.677,-5.283L55.126,-34.546C54.089,-37.862 54.475,-36.804 43.724,-36.844C37.59,-36.867 31.455,-36.863 25.32,-36.864C16.481,-36.865 -2.583,-38.012 -9.354,-35.073C-17.663,-31.467 -23.212,-23.853 -23.199,-12.443C-23.188,-1.696 -24.84,7.582 -14.938,15.769C-9.916,19.921 3.659,23.364 11.157,26.101C15.337,27.626 21.244,28.412 22.674,32.645C23.263,34.388 22.983,39.316 22.992,41.433C23.026,49.573 19.212,50.191 13.273,50.182C10.752,50.178 6.418,50.576 4.327,49.711C-1.303,47.383 0.41,42.112 0,35.623" style="fill:rgb(254,254,254);"/>
            </g>
            <g transform="matrix(1,0,0,1,53.7974,413.04)">
                <path d="M0,18.935C-2.699,-13.653 5.822,-55.169 18.007,-84.603C24.055,-99.212 30.833,-112.001 38.992,-124.537C46.516,-136.098 53.44,-144.867 62.181,-154.888C81.695,-177.26 109.356,-197.877 135.881,-211.019C164.953,-225.423 195.276,-233.813 232.757,-236.122C293.182,-239.844 358.39,-216.382 402.475,-177.651L410.534,-170.323C414.057,-167.169 422.314,-158.945 425.641,-154.98C437.017,-141.423 441.205,-136.954 451.733,-120.174C472.2,-87.555 486.141,-45.97 487.894,-3.482C490.404,57.333 471.627,112.444 436.29,157.977C427.093,169.827 417.653,179.388 406.65,189.588C396.436,199.057 383.689,208.166 371.832,215.659C307.152,256.53 221.297,263.349 151.383,233.715C128.822,224.153 112.289,214.386 93.719,200.03C90.938,197.88 87.641,195.323 85.244,193.109C79.074,187.41 76.116,184.918 69.526,178.382C68.149,177.016 67.142,175.823 65.813,174.398C33.5,139.741 9.942,94.252 2.873,46.675C1.474,37.264 0.797,28.555 0,18.935M-8.275,6.554L-8.286,12.923C-8.284,14.762 -8.019,15.078 -7.939,16.591L-7.604,23.952C-7.705,33.376 -4.805,48.769 -3.01,58.51L3.345,83.275L9.584,100.794C10.942,104.635 12.709,108.039 14.286,111.82L30.732,142.221C31.346,143.224 31.682,143.634 32.197,144.437C32.76,145.316 33.127,145.96 33.753,146.896C39.477,155.444 45.547,163.761 52.349,171.467L61.751,181.808C62.227,182.304 62.3,182.443 62.674,182.893C62.955,183.232 62.685,182.942 63.138,183.433L65.64,185.95C66.412,186.794 66.567,186.97 67.504,187.766L93.302,209.82C98.888,214.351 105.042,218.286 111.117,222.122C117.176,225.947 123.563,229.566 129.994,232.691C130.66,233.015 130.725,233.023 131.325,233.368L164.391,247.149C175.694,250.854 187.264,254.241 199.143,255.898C200.364,256.069 200.634,256.332 202.177,256.545C207.796,257.32 213.942,258.358 219.614,258.852L230.658,259.519C232.342,259.569 232.51,259.856 234.314,259.878C235.652,259.894 237.02,259.834 238.357,259.851C240.161,259.873 240.328,260.16 242.013,260.21C246.16,260.334 255.353,259.605 260.442,259.543C262.246,259.522 262.413,259.236 264.106,259.192C266.881,259.122 268.872,258.741 271.461,258.517C277.218,258.02 283.065,257.122 288.349,255.997C289.601,255.729 290.672,255.748 291.863,255.495L316.741,249.252C322.066,247.848 327.107,245.875 332.276,244.04C333.114,243.743 332.27,244.031 332.993,243.753C336.714,242.326 340.654,241.018 344.155,239.188C344.81,238.845 344.736,238.89 345.542,238.569C351.699,236.115 360.583,231.636 366.311,228.216C367.228,227.669 367.787,227.476 368.707,226.931C372.873,224.467 377.019,222.214 380.94,219.422L383.383,217.849C384.257,217.229 384.868,216.748 385.726,216.177L404.652,201.975C404.813,201.836 404.859,201.787 405.193,201.511C405.38,201.356 405.581,201.195 405.75,201.065C406.776,200.277 407,200.079 407.921,199.221L438.876,167.602L449.208,154.175C450.347,152.632 451.147,151.177 452.309,149.58L458.526,140.069C459.583,138.47 460.546,136.748 461.557,135.069C471.272,118.935 478.585,101.545 484.453,83.678L491.696,55.451C491.914,54.419 491.903,53.434 492.126,52.201C492.351,50.961 492.589,50.298 492.811,48.87L493.855,41.883C496.87,20.192 496.431,-3.401 493.968,-25.208L491.845,-38.477C490.406,-47.285 488.17,-55.199 485.824,-63.576C483.573,-71.609 480.935,-79.032 477.741,-86.613C473.655,-96.311 469.232,-106.623 463.82,-115.523C463.283,-116.406 462.815,-117.103 462.318,-118.037C461.305,-119.943 460.532,-121.116 459.467,-122.882L453.508,-132.316C452.443,-133.924 451.269,-135.441 450.162,-137.001C448.071,-139.946 446.056,-143.177 443.701,-145.932L433.095,-158.751C431.065,-161.388 428.399,-163.954 426.033,-166.412C425.985,-166.461 425.916,-166.532 425.867,-166.581L417.998,-174.438C417.947,-174.485 417.873,-174.552 417.822,-174.598L408.878,-182.72C408.826,-182.765 408.75,-182.829 408.698,-182.874C408.645,-182.919 408.569,-182.982 408.516,-183.027L406.172,-185.034C406.12,-185.079 406.043,-185.141 405.99,-185.186L405.626,-185.492C404.252,-186.667 402.9,-187.858 401.401,-188.962L378.793,-205.171C378.056,-205.708 377.235,-206.161 376.524,-206.583L364.019,-213.821C363.438,-214.152 363.548,-214.117 362.969,-214.444C350.052,-221.737 334.615,-227.972 320.405,-232.446L299.062,-238.208C291.309,-239.976 283.726,-241.496 275.794,-242.38C271.044,-242.91 266.717,-243.78 261.771,-243.749C255.676,-243.711 248.583,-244.414 241.355,-244.414C234.471,-244.414 219.417,-243.4 212.261,-242.388L188.987,-238.223C187.637,-237.883 186.991,-238.019 185.631,-237.563L179.52,-235.979C171.636,-233.972 163.454,-231.35 155.896,-228.482L139.131,-221.489C134.729,-219.548 130.684,-217.215 126.389,-215.157C120.289,-212.235 114.486,-208.589 108.827,-204.945L90.544,-192.108C87.69,-189.764 84.53,-187.629 81.823,-185.102C77.782,-181.327 73.602,-178.135 68.997,-173.501C68.791,-173.293 68.736,-173.23 68.498,-172.996L67.983,-172.506C67.885,-172.415 67.621,-172.189 67.451,-172.035L63.309,-167.811C63.261,-167.761 63.191,-167.691 63.143,-167.642C62.914,-167.409 62.841,-167.345 62.638,-167.144L56.23,-160.166C53.601,-157.509 51.451,-154.463 48.915,-151.754C48.322,-151.12 48.56,-151.405 48.003,-150.659C47.905,-150.529 47.646,-150.168 47.577,-150.08C42.8,-143.988 37.936,-137.954 33.822,-131.377C32.755,-129.67 31.917,-128.345 30.809,-126.694C23.755,-116.186 13.917,-97.206 9.67,-85.258L5.402,-73.798C2.77,-65.824 0.225,-57.676 -1.656,-49.402C-1.857,-48.514 -2.012,-47.35 -2.287,-46.352L-4.23,-36.584C-5.635,-29.542 -7.666,-15.695 -7.6,-8.499C-7.584,-6.831 -7.76,-6.279 -7.892,-5.109L-8.286,2.527C-8.288,3.868 -8.275,5.212 -8.275,6.554" style="fill:rgb(254,2,5);"/>
            </g>
            <g transform="matrix(1,0,0,1,327.678,365.533)">
                <path d="M0,42.287L-0.085,26.032C6.177,25.617 5.168,28.74 5.167,33.983C5.166,35.497 5.342,39.247 5.029,40.487C4.458,42.754 2.605,42.494 0,42.287M-0.047,15.909L-0.091,-0.202C6.384,-0.908 5.166,2.351 5.166,7.883C5.166,13.256 6.367,16.56 -0.047,15.909M-8.781,52.404C-5.469,52.796 2.227,52.643 5.544,52.261C14.985,51.172 14.139,39.058 14.161,32.303C14.167,30.39 13.989,27.319 13.595,25.636C13.03,23.225 12.352,22.911 11.321,21.573C10.922,21.054 11.229,21.6 10.89,20.933C12.986,17.651 14.169,18.304 14.161,9.902C14.154,2.545 15.04,-8.814 5.589,-10.126C2.823,-10.509 -5.824,-10.415 -8.74,-10.153L-8.781,52.404Z" style="fill:rgb(254,254,254);"/>
            </g>
            <g transform="matrix(1,0,0,1,402.051,354.926)">
                <path d="M0,63.109L8.698,63.184L8.849,40.863C9.421,41.581 9.596,42.166 9.902,43.249C10.209,44.331 10.445,45.083 10.712,46.067L15.759,63.105L24.973,63.115C24.725,60.816 15.183,32.963 15.095,31.796C15.016,30.745 19.384,18.219 20.042,16.234C20.898,13.653 21.69,10.988 22.515,8.364C23.226,6.104 24.685,2.416 24.966,0.385C22.337,0.305 17.926,-0.075 15.728,0.563C14.669,2.558 13.277,8.569 12.431,11.377C11.894,13.157 11.378,14.886 10.846,16.821C10.553,17.889 10.318,18.516 10.006,19.622L9.328,21.634C9.085,22.069 9.118,21.992 8.879,22.246C8.738,17.915 9.421,3.23 8.646,0.335L0.115,0.33L0,63.109Z" style="fill:rgb(253,253,253);"/>
            </g>
            <g transform="matrix(1,0,0,1,357.601,395.369)">
                <path d="M0,-18.425L2.275,-0.732L-1.895,-0.538L0,-18.425ZM-13.344,22.642L-6.887,22.712C-5.501,22.688 -5.571,22.799 -4.705,22.218L-3.072,9.673L3.32,9.623L4.979,22.683L13.866,22.666L6.492,-36.481C5.783,-41.224 8.207,-40.082 -5.505,-40.06C-6.534,-35.266 -11.991,7.429 -12.565,14.186C-12.793,16.85 -13.475,19.931 -13.344,22.642" style="fill:rgb(253,253,253);"/>
            </g>
            <g transform="matrix(1,0,0,1,382.806,376.718)">
                <path d="M0,19.784L-8.891,19.775C-9.53,31.218 -9.441,42.197 2.695,42.287C16.034,42.245 14.081,29.24 14.091,19.786C14.104,7.508 0.064,4.052 0.065,-3.302C0.065,-6.929 -0.622,-11.202 1.55,-12.192C6.852,-14.077 5.196,-4.275 5.336,-0.236L14.062,-0.242C14.096,-11.505 15.917,-22.503 1.691,-22.435C-6.282,-22.363 -8.792,-15.978 -8.936,-8.667C-9.296,9.678 -2.677,9.086 2.789,16.003C5.565,19.516 5.285,20.616 5.292,25.81C5.295,27.61 5.559,29.879 4.687,31.136C3.802,32.412 1.899,32.696 0.773,31.408C-0.569,29.871 0.198,22.432 0,19.784" style="fill:rgb(253,253,253);"/>
            </g>
            <g transform="matrix(1,0,0,1,430.558,355.315)">
                <path d="M0,62.701L20.851,62.724L20.887,52.616L8.87,52.562L8.797,36.228L19.152,36.183L19.198,26.23L8.843,26.202L8.806,9.9L20.879,9.873L20.894,0.023L0.053,-0.023L0,62.701Z" style="fill:rgb(254,254,254);"/>
            </g>
            <g transform="matrix(1,0,0,1,453.602,408.14)">
                <path d="M0,-42.956L6.673,-42.929L6.849,9.818L15.823,9.893C16.074,2.193 15.283,-39.924 16.037,-42.917L22.968,-42.956L22.987,-52.825L0.06,-52.849L0,-42.956Z" style="fill:rgb(254,254,254);"/>
            </g>
            <g transform="matrix(0.999756,0.0220911,0.0220911,-0.999756,301.798,459.494)">
                <path d="M1.18,-0.029L4.892,-0.029L2.626,106.804L-1.147,106.8L1.18,-0.029Z" style="fill:rgb(251,251,251);"/>
            </g>
            <g transform="matrix(1,0,0,1,348.227,426.555)">
                <path d="M0,33.643L4.664,33.781L5.055,21.211C5.683,22.7 7.57,32.781 7.645,33.721L12.567,33.726L12.57,-0.059L8.091,-0.115L8.066,15.356L4.751,-0.116L0.044,-0.138L0,33.643Z" style="fill:rgb(253,253,253);"/>
            </g>
            <g transform="matrix(1,0,0,1,393.334,426.5)">
                <path d="M0,33.73L4.698,33.822L4.747,21.961C5.487,22.708 5.497,22.542 5.883,24.604L7.669,33.792L12.467,33.832L12.559,-0.062L8.108,-0.094L8.007,14.587C7.044,13.503 5.594,2.924 4.683,-0.011L0.074,-0.102L0,33.73Z" style="fill:rgb(252,252,252);"/>
            </g>
            <g transform="matrix(1,0,0,1,436.69,425.935)">
                <path d="M0,34.271L4.777,34.353L4.774,20.496C5.641,22.792 7.266,31.106 7.609,34.255L12.525,34.394L12.582,0.546L8.195,0.453L8.087,15.174C7.857,14.899 7.864,14.974 7.659,14.47L7.048,11.783C6.78,10.475 6.567,9.376 6.322,8.142C4.68,-0.123 6.058,0.139 0.139,0.49L0,34.271Z" style="fill:rgb(253,253,253);"/>
            </g>
            <g transform="matrix(1,0,0,1,469.788,456.039)">
                <path d="M0,-24.688C3.076,-24.998 2.301,-22.917 2.292,-20.049C2.281,-16.678 2.852,-1.38 1.534,-0.727C-1.121,0.588 -0.576,-3.619 -0.571,-5.325C-0.558,-9.536 -1.104,-22.759 0,-24.688M-5.304,-23.729L-5.305,-1.309C-5.302,4.66 1.513,6.894 5.148,3.471C8.118,0.675 7.042,-7.711 7.042,-12.686C7.042,-17.742 8.305,-25.851 5.129,-28.82C2.705,-31.086 -5.304,-31.582 -5.304,-23.729" style="fill:rgb(253,253,253);"/>
            </g>
            <g transform="matrix(1,0,0,1,338.631,446.893)">
                <path d="M0,-7.037C0.213,-6.777 0.575,-6.729 0.805,-5.084C0.9,-4.394 0.979,-3.526 1.045,-3.05C1.227,-1.731 1.276,-0.152 1.499,1.055L-0.88,0.995L0,-7.037ZM-6.905,13.407L-2.382,13.448L-1.463,6.662C3.982,5.852 1.783,8.126 2.887,13.328L7.59,13.443C7.796,11.286 3.946,-18.623 3.27,-20.484L-2.774,-20.485C-3.579,-17.546 -7.222,11.108 -6.905,13.407" style="fill:rgb(252,252,252);"/>
            </g>
            <g transform="matrix(1,0,0,1,372.69,426.529)">
                <path d="M0,33.665L6.291,33.804C7.045,31.207 10.808,2.066 10.619,-0.056L5.935,-0.139C4.629,3.932 4.482,18.857 3.153,21.156L0.697,-0.088L-4.033,-0.117C-4.441,5.037 -0.398,25.839 0,33.665" style="fill:rgb(252,252,252);"/>
            </g>
            <g transform="matrix(1,0,0,1,317.479,452.901)">
                <path d="M0,-20.257L-0.002,-15.906C-0.01,-6.634 8.767,-11.364 7.272,2.272C3.479,3.644 4.79,-1.126 4.601,-4.038L-0.032,-4.069C-0.111,1.308 -0.93,7.84 5.772,8.041C10.259,8.176 12.225,5.694 12.226,1.159C12.213,-9.378 12.18,-7.302 6.653,-13.089C4.507,-15.337 3.852,-18.686 4.849,-20.866C5.491,-22.274 7.319,-22.058 7.516,-19.951C7.653,-18.476 7.458,-16.575 7.561,-14.976L12.146,-14.893C12.573,-19.695 12.773,-25.425 8.576,-26.767C3.366,-28.433 0.004,-25.256 0,-20.257" style="fill:rgb(252,252,252);"/>
            </g>
            <g transform="matrix(1,0,0,1,408.27,455.738)">
                <path d="M0,-23.428L-0.001,-1.008C0.001,3.676 3.868,6.468 8.786,4.792C12.759,3.439 12.773,-2.051 12.258,-6.931L7.585,-6.884C7.498,-4.773 7.957,-2.426 7.146,-0.531C4.192,0.513 4.703,-2.072 4.722,-4.351C4.755,-8.485 4.163,-22.657 5.339,-24.345C8.443,-24.819 7.434,-23.077 7.581,-17.941L12.277,-17.735C12.406,-23.137 13.355,-29.811 6.348,-29.865C2.146,-29.896 -0.001,-27.663 0,-23.428" style="fill:rgb(253,253,253);"/>
            </g>
            <g transform="matrix(1,0,0,1,422.969,426.43)">
                <path d="M0,33.86L11.275,33.908L11.366,28.72L4.796,28.62L4.738,19.722L10.366,19.624L10.402,14.265L4.814,14.19L4.75,5.402L11.358,5.344L11.343,0.004L0.131,-0.048L0,33.86Z" style="fill:rgb(253,253,253);"/>
            </g>
            <g transform="matrix(1,0,0,1,451.48,454.907)">
                <path d="M0,-23.098L5.027,-23.028C4.142,-15.661 -0.739,-0.217 -0.229,5.339L10.808,5.425L10.878,0.286L5.263,0.148C5.296,-5.38 11.302,-23.224 10.509,-28.477L0.093,-28.523L0,-23.098Z" style="fill:rgb(252,252,252);"/>
            </g>
            <g transform="matrix(0.999839,0.0179279,0.0179279,-0.999839,384.958,460.208)">
                <path d="M0.303,-0.042L5.156,-0.042L4.657,33.88L-0.212,33.808L0.303,-0.042Z" style="fill:rgb(253,253,253);"/>
            </g>
            <g transform="matrix(1,0,0,1,327.631,365.276)">
                <path d="M0,16.166C6.414,16.817 5.213,13.514 5.213,8.14C5.213,2.609 6.431,-0.651 -0.044,0.055L0,16.166Z" style="fill:rgb(6,6,6);"/>
            </g>
            <g transform="matrix(0.849054,0.528307,0.528307,-0.849054,323.857,404.988)">
                <path d="M4.74,-0.386C7.061,0.814 8.772,1.572 8.059,3.799C7.669,5.017 5.539,8.108 4.74,9.394C1.971,13.846 1.178,17.031 -3.92,13.37L4.74,-0.386Z" style="fill:rgb(6,6,6);"/>
            </g>
            <g transform="matrix(-0.997957,0.0638899,0.0638899,0.997957,472.539,456.229)">
                <path d="M1.155,-25.003C2.38,-23.148 2.68,-9.918 2.962,-5.716C3.076,-4.014 3.889,0.15 1.155,-0.993C-0.202,-1.56 -0.609,-16.864 -0.835,-20.227C-1.028,-23.089 -1.934,-25.116 1.155,-25.003" style="fill:rgb(6,6,6);"/>
            </g>
            <g transform="matrix(1,0,0,1,355.706,376.944)">
                <path d="M0,17.887L4.17,17.693L1.895,0L0,17.887Z" style="fill:rgb(8,8,8);"/>
            </g>
            <g transform="matrix(1,0,0,1,337.751,439.916)">
                <path d="M0,7.972L2.379,8.032C2.156,6.825 2.106,5.245 1.925,3.927C1.859,3.451 1.78,2.582 1.685,1.893C1.455,0.247 1.093,0.2 0.88,-0.06L0,7.972Z" style="fill:rgb(13,13,13);"/>
            </g>
        </g>
    </g>
</svg>
