<?xml version="1.0" encoding="UTF-8" standalone="no"?>
<!DOCTYPE svg PUBLIC "-//W3C//DTD SVG 1.1//EN" "http://www.w3.org/Graphics/SVG/1.1/DTD/svg11.dtd">
<svg width="100%" height="100%" viewBox="0 0 686 653" version="1.1" xmlns="http://www.w3.org/2000/svg" xmlns:xlink="http://www.w3.org/1999/xlink" xml:space="preserve" xmlns:serif="http://www.serif.com/" style="fill-rule:evenodd;clip-rule:evenodd;stroke-linejoin:round;stroke-miterlimit:2;">
    <g transform="matrix(1,0,0,1,-690.519,-879.487)">
        <g transform="matrix(4.16667,0,0,4.16667,-319.363,-917.313)">
            <g transform="matrix(1,0,0,1,28.1989,111.343)">
                <path d="M256.175,319.889C273.333,319.889 288.042,326.808 294.713,331.93C295.89,332.834 296.573,332.721 297.475,332.119C301.926,329.151 315.314,319.996 333.766,319.996C356.038,319.996 378.583,331.264 378.583,355.801C378.583,370.814 368.345,386.477 350.789,397.181C346.352,399.887 341.156,402.215 335.58,404.217C332.4,405.359 330.992,404.048 334.334,401.565C342.562,395.447 363.644,379.358 363.644,359.211C363.644,345.526 350.96,331.85 329.084,331.85C312.396,331.85 300.056,341.206 297.745,342.784C296.554,343.596 295.78,343.467 294.769,342.567C288.729,337.199 276.437,331.416 262.183,331.416C244.791,331.416 229.111,340.979 229.111,357.993C229.111,389.002 282.95,401.754 296.012,401.754C299.261,401.754 328.082,391.705 328.082,367.492C328.082,358.922 322.76,353.287 315.741,353.287C306.568,353.287 301.29,360.998 297.719,365.3C296.902,366.281 295.646,366.715 294.867,365.295C291.702,359.53 285.482,353.121 277.013,353.121C269.5,353.121 264.997,358.578 264.997,364.57C264.997,378.693 284.646,387.465 293.82,390.632C295.601,391.245 295.58,393.143 293.089,392.904C280.045,391.659 247.624,381.807 247.624,360.752C247.624,352.067 255.101,342.404 270.032,342.404C280.078,342.404 289.6,347.925 295.2,354.664C295.754,355.328 296.662,355.233 297.15,354.745C297.637,354.257 309.327,342.811 323.293,342.811C333.278,342.811 344.077,349.63 344.077,364.002C344.077,378.846 331.091,393.721 320.127,400.537C308.896,407.519 298.177,410.658 295.524,410.443C252.338,406.916 214.173,381.924 214.173,352.472C214.173,337.966 225.223,319.889 256.175,319.889" style="fill:rgb(225,57,62);"/>
            </g>
            <g transform="matrix(1,0,0,1,28.1129,0)">
                <g transform="matrix(1,0,0,1,0,240.577)">
                    <path d="M246.645,303.709L252.226,303.709L249.373,298.055L246.645,303.709ZM239.205,309.462L249.328,290.064L249.384,290.064L259.789,309.463L255.821,311.249L253.961,307.462L244.816,307.462L243.074,311.249L239.205,309.462Z" style="fill:rgb(225,57,62);fill-rule:nonzero;"/>
                </g>
                <g transform="matrix(1,0,0,1,0,240.577)">
                    <path d="M340.579,303.709L346.16,303.709L343.307,298.055L340.579,303.709ZM333.139,309.462L343.262,290.064L343.318,290.064L353.723,309.463L349.755,311.249L347.896,307.462L338.75,307.462L337.008,311.249L333.139,309.462Z" style="fill:rgb(225,57,62);fill-rule:nonzero;"/>
                </g>
                <g transform="matrix(1,0,0,1,0,240.496)">
                    <path d="M264.053,310.599L264.053,290.795L268.311,290.795L268.311,306.631L275.166,306.631L275.166,310.599L264.053,310.599Z" style="fill:rgb(225,57,62);fill-rule:nonzero;"/>
                </g>
                <g transform="matrix(1,0,0,1,0,240.428)">
                    <path d="M296.726,308.039C295.472,309.492 291.245,310.951 288.31,310.951C282.638,310.951 278.4,306.5 278.4,300.714C278.4,294.815 282.803,290.511 288.161,290.511C291.553,290.511 294.46,292.152 295.601,293.839L292.675,296.716C291.881,295.872 290.442,294.781 288.111,294.781C285.185,294.781 282.903,297.237 282.903,300.999C282.903,304.933 285.714,306.934 288.707,306.934C290.132,306.934 291.485,306.534 292.625,305.793L292.625,302.652L289.5,302.652L289.451,299.032L296.726,299.032L296.726,308.039Z" style="fill:rgb(225,57,62);fill-rule:nonzero;"/>
                </g>
                <g transform="matrix(1,0,0,1,0,240.492)">
                    <path d="M320.512,306.572C324.371,306.572 326.383,303.701 326.383,300.555C326.383,297.178 323.828,294.767 320.319,294.767L318.276,294.767L318.276,306.572L320.512,306.572ZM314.065,290.799L320.701,290.799C326.094,290.799 330.786,295.129 330.786,300.555C330.786,307.193 325.042,310.599 319.873,310.599L314.065,310.599L314.065,290.799Z" style="fill:rgb(225,57,62);fill-rule:nonzero;"/>
                </g>
                <g transform="matrix(-1,0,0,1,610.597,240.484)">
                    <rect x="303.141" y="290.758" width="4.315" height="19.89" style="fill:rgb(225,57,62);"/>
                </g>
            </g>
            <g transform="matrix(0.680979,0,-0.06083,0.72933,-95.7217,-537.644)">
                <g transform="matrix(50,0,0,50,840.708,1542.6)">
                </g>
                <text x="664.908px" y="1542.6px" style="font-family:'ZonaBlackSlab-BlackItalic', 'Zona Black Slab ', serif;font-weight:900;font-style:italic;font-size:50px;fill:rgb(225,57,62);">Be<tspan x="731.308px 766.058px 784.508px 819.258px " y="1542.6px 1542.6px 1542.6px 1542.6px ">nini</tspan></text>
            </g>
        </g>
    </g>
</svg>
