<?xml version="1.0" encoding="UTF-8" standalone="no"?>
<!DOCTYPE svg PUBLIC "-//W3C//DTD SVG 1.1//EN" "http://www.w3.org/Graphics/SVG/1.1/DTD/svg11.dtd">
<svg width="100%" height="100%" viewBox="0 0 344 108" version="1.1" xmlns="http://www.w3.org/2000/svg" xmlns:xlink="http://www.w3.org/1999/xlink" xml:space="preserve" xmlns:serif="http://www.serif.com/" style="fill-rule:evenodd;clip-rule:evenodd;">
    <g transform="matrix(1,0,0,1,-96.3857,-192.376)">
        <g transform="matrix(1,0,0,1,0,-256.672)">
            <path d="M354.472,542.406L358.959,551.79L363.125,542.406L365.258,542.406L359.149,556.186L357.597,556.186L351.027,542.406L354.472,542.406Z" style="fill:rgb(0,84,155);fill-rule:nonzero;"/>
        </g>
        <g transform="matrix(1,0,0,1,0,-257.153)">
            <path d="M373.697,542.606L380.066,556.467L376.661,556.467L374.959,552.762L369.681,552.762L367.898,556.467L365.635,556.467L372.255,542.606L373.697,542.606ZM370.312,551.5L374.398,551.5L372.385,547.113L370.312,551.5Z" style="fill:rgb(0,84,155);fill-rule:nonzero;"/>
        </g>
        <g transform="matrix(1,0,0,1,0,-256.872)">
            <path d="M383.913,542.606L387.248,542.606L387.248,554.794L394.179,554.794L394.179,556.186L383.913,556.186L383.913,542.606Z" style="fill:rgb(0,84,155);fill-rule:nonzero;"/>
        </g>
        <g transform="matrix(1,0,0,1,0,-256.672)">
            <path d="M398.279,542.406L402.765,551.79L406.932,542.406L409.065,542.406L402.956,556.186L401.403,556.186L394.834,542.406L398.279,542.406Z" style="fill:rgb(0,84,155);fill-rule:nonzero;"/>
        </g>
        <g transform="matrix(1,0,0,1,0,-256.872)">
            <path d="M423.032,542.606L423.032,543.768L416.221,543.768L416.221,548.244L421.88,548.244L421.88,549.406L416.221,549.406L416.221,554.794L423.032,554.794L423.032,556.186L412.887,556.186L412.887,542.606L423.032,542.606Z" style="fill:rgb(0,84,155);fill-rule:nonzero;"/>
        </g>
        <g transform="matrix(1,0,0,1,0,-256.953)">
            <path d="M432.81,556.467C431.995,556.467 431.282,556.372 430.671,556.182C430.06,555.992 429.541,555.73 429.114,555.396C428.687,555.062 428.346,554.663 428.092,554.199C427.839,553.735 427.665,553.226 427.572,552.672L429.885,552.672C429.965,553.012 430.082,553.329 430.236,553.623C430.389,553.917 430.585,554.172 430.822,554.389C431.059,554.606 431.339,554.776 431.663,554.9C431.987,555.024 432.362,555.085 432.789,555.085C433.07,555.085 433.349,555.055 433.626,554.995C433.903,554.935 434.152,554.837 434.372,554.7C434.592,554.563 434.769,554.386 434.903,554.169C435.036,553.952 435.103,553.683 435.103,553.363C435.103,552.962 434.999,552.605 434.792,552.291C434.586,551.977 434.312,551.692 433.971,551.435C433.631,551.178 433.244,550.939 432.81,550.719C432.376,550.498 431.932,550.276 431.478,550.053C431.024,549.829 430.58,549.594 430.146,549.347C429.712,549.1 429.324,548.824 428.984,548.52C428.643,548.217 428.37,547.873 428.163,547.489C427.956,547.105 427.852,546.666 427.852,546.172C427.852,545.631 427.971,545.132 428.208,544.675C428.445,544.217 428.787,543.82 429.234,543.483C429.682,543.146 430.229,542.882 430.877,542.692C431.524,542.501 432.262,542.406 433.09,542.406C433.771,542.406 434.389,542.5 434.943,542.687C435.497,542.874 435.986,543.132 436.41,543.463C436.834,543.793 437.189,544.181 437.476,544.625C437.764,545.069 437.984,545.544 438.137,546.052L436.044,546.052C435.924,545.731 435.784,545.424 435.624,545.13C435.463,544.837 435.267,544.58 435.033,544.359C434.799,544.139 434.515,543.964 434.182,543.833C433.848,543.703 433.45,543.638 432.99,543.638C432.556,543.638 432.19,543.695 431.893,543.808C431.596,543.922 431.357,544.067 431.177,544.244C430.997,544.421 430.867,544.618 430.787,544.835C430.706,545.052 430.666,545.264 430.666,545.471C430.666,545.831 430.773,546.159 430.987,546.452C431.2,546.746 431.483,547.02 431.833,547.274C432.184,547.527 432.583,547.769 433.03,548C433.477,548.23 433.933,548.462 434.397,548.696C434.861,548.929 435.317,549.175 435.764,549.432C436.211,549.689 436.61,549.971 436.961,550.278C437.311,550.585 437.593,550.926 437.807,551.3C438.021,551.674 438.127,552.094 438.127,552.562C438.127,553.116 438.014,553.63 437.787,554.104C437.56,554.578 437.223,554.99 436.775,555.341C436.328,555.691 435.772,555.967 435.108,556.167C434.444,556.367 433.677,556.467 432.81,556.467Z" style="fill:rgb(0,84,155);fill-rule:nonzero;"/>
        </g>
        <g transform="matrix(1,0,0,1,0,-407.216)">
            <path d="M143.217,622.8L159.294,622.478C159.857,622.958 159.678,622.985 159.757,623.632L159.643,623.921L159.182,624.381C159.068,624.484 158.663,624.755 158.652,624.73C152.219,625.853 144.344,623.601 138.715,626.658L122.64,626.658L122.64,622.8L143.217,622.8Z" style="fill:none;fill-rule:nonzero;stroke:rgb(0,84,155);stroke-width:0.4px;"/>
        </g>
        <g transform="matrix(0.279983,-0.960005,-0.960005,-0.279983,687.427,521.878)">
            <path d="M130.356,610.26C130.463,615.062 128.707,621.084 126.036,625.075L130.356,626.335L134.677,611.52L130.356,610.26Z" style="fill:none;fill-rule:nonzero;stroke:rgb(0,84,155);stroke-width:0.45px;"/>
        </g>
        <g transform="matrix(1,0,0,1,0,-331.773)">
            <path d="M167.197,607.843L183.517,607.843L183.517,592.508C183.517,583.485 186.88,579.956 196.725,579.956L198.53,579.956L198.53,565.85L196.561,565.85C189.341,565.85 186.471,566.506 182.944,571.671L182.78,571.671L182.78,566.835L167.197,566.835L167.197,607.843Z" style="fill:rgb(0,84,155);fill-rule:nonzero;"/>
        </g>
        <g transform="matrix(1,0,0,1,0,-330.788)">
            <path d="M243.839,606.858L243.839,590.949C243.839,572.413 232.44,564.865 220.217,564.865C208.573,564.865 198.894,573.97 198.894,587.585C198.894,598.577 208.081,607.843 219.399,607.843C221.041,607.843 222.844,607.682 225.056,607.433L225.056,591.357C223.253,592.016 221.939,592.26 220.793,592.26C218.085,592.26 215.46,589.966 215.46,586.354C215.46,582.663 218.085,580.448 221.202,580.448C224.319,580.448 227.271,582.663 227.271,586.354L227.271,606.858L243.839,606.858Z" style="fill:rgb(0,84,155);fill-rule:nonzero;"/>
        </g>
        <g transform="matrix(1,0,0,1,0,-331.773)">
            <path d="M262.644,607.843L262.644,585.781C262.644,582.171 263.545,580.943 265.596,580.943C267.647,580.943 268.548,582.171 268.548,585.781L268.548,607.843L284.95,607.843L284.95,583.237C284.95,573.722 278.389,565.85 265.596,565.85C252.802,565.85 246.237,573.722 246.237,583.237L246.237,607.843L262.644,607.843Z" style="fill:rgb(0,84,155);fill-rule:nonzero;"/>
        </g>
        <g transform="matrix(1,0,0,1,0,-346.208)">
            <path d="M315.415,564.865L315.415,600.46C315.415,605.386 312.79,607.68 309.347,607.68C306.227,607.68 303.603,605.386 303.603,601.774C303.603,598.083 306.724,595.869 309.591,595.869C310.986,595.869 312.297,596.278 313.611,596.772L313.611,580.611C311.89,580.367 310.166,580.285 308.031,580.285C295.895,580.285 288.02,589.47 288.02,601.283C288.02,614.409 297.618,623.263 309.263,623.263C321.481,623.263 331.821,615.639 331.821,597.178L331.821,564.865L315.415,564.865Z" style="fill:rgb(0,84,155);fill-rule:nonzero;"/>
        </g>
        <g transform="matrix(1,0,0,1,0,-330.788)">
            <path d="M356.363,564.865C344.473,564.865 334.794,574.462 334.794,586.354C334.794,598.162 344.473,607.843 356.363,607.843C368.176,607.843 377.934,598.162 377.934,586.354C377.934,574.462 368.176,564.865 356.363,564.865M356.363,581.104C359.232,581.104 361.693,583.564 361.693,586.354C361.693,589.142 359.232,591.604 356.363,591.604C353.491,591.604 351.034,589.142 351.034,586.354C351.034,583.564 353.491,581.104 356.363,581.104" style="fill:rgb(0,84,155);"/>
        </g>
        <g transform="matrix(1,0,0,1,0,-331.773)">
            <path d="M396.902,607.843L396.902,585.781C396.902,582.171 397.808,580.943 399.857,580.943C401.907,580.943 402.808,582.171 402.808,585.781L402.808,607.843L419.211,607.843L419.211,583.237C419.211,573.722 412.651,565.85 399.857,565.85C387.06,565.85 380.5,573.722 380.5,583.237L380.5,607.843L396.902,607.843Z" style="fill:rgb(0,84,155);fill-rule:nonzero;"/>
        </g>
        <g transform="matrix(1,0,0,1,0,-353.428)">
            <path d="M430.484,565.85C425.152,565.85 420.807,570.28 420.807,575.53C420.807,580.776 425.152,585.209 430.484,585.209C435.814,585.209 440.16,580.776 440.16,575.53C440.16,570.28 435.814,565.85 430.484,565.85M422.28,629.498L438.682,629.498L438.682,588.49L422.28,588.49L422.28,629.498Z" style="fill:rgb(0,84,155);"/>
        </g>
        <g transform="matrix(0,1,1,0,-449.516,131.553)">
            <path d="M130.426,546.102C111.735,546.102 96.585,561.251 96.585,579.942C96.585,598.63 111.735,613.781 130.426,613.781C149.115,613.781 164.266,598.63 164.266,579.942C164.266,561.251 149.115,546.102 130.426,546.102" style="fill:white;fill-rule:nonzero;"/>
        </g>
        <g transform="matrix(0,1,1,0,-449.516,131.553)">
            <ellipse cx="130.425" cy="579.942" rx="33.841" ry="33.84" style="fill:none;stroke:white;stroke-width:0.1px;stroke-miterlimit:3.864;"/>
        </g>
        <g transform="matrix(1,0,0,1,0,-355.514)">
            <path d="M97.488,547.89L97.563,609.031C95.828,641.252 117.863,649.096 131.371,649.308C146.3,649.544 164.204,634.131 164.075,615.895C163.944,597.733 149.304,583.117 131.134,582.961C127.884,582.934 126.007,583.138 122.842,583.907L122.842,609.973C124.953,607.166 127.375,606.157 130.9,605.946C136.379,605.618 140.615,612.099 140.615,615.895C140.615,622.532 136.493,625.695 131.134,625.849C125.52,626.018 120.743,621.277 120.946,615.658L120.946,573.372C121.366,565.22 118.977,559.494 112.891,554.052C108.066,549.738 97.488,547.89 97.488,547.89" style="fill:rgb(0,84,155);fill-rule:nonzero;"/>
        </g>
    </g>
</svg>
