<?xml version="1.0" encoding="UTF-8" standalone="no"?>
<!DOCTYPE svg PUBLIC "-//W3C//DTD SVG 1.1//EN" "http://www.w3.org/Graphics/SVG/1.1/DTD/svg11.dtd">
<svg width="100%" height="100%" viewBox="0 0 1908 598" version="1.1" xmlns="http://www.w3.org/2000/svg" xmlns:xlink="http://www.w3.org/1999/xlink" xml:space="preserve" xmlns:serif="http://www.serif.com/" style="fill-rule:evenodd;clip-rule:evenodd;stroke-linejoin:round;stroke-miterlimit:2;">
    <g transform="matrix(1.33333,0,0,1.33333,-538.795,-2163.11)">
        <g transform="matrix(2.19173,0,0,2.19173,-3704.18,-1815.99)">
            <g transform="matrix(0.875568,0,0,0.875568,1831.36,1423.31)">
                <g transform="matrix(44.5812,0,0,44.5812,600.295,398.835)">
                    <path d="M0.175,-0.662L0.394,-0.205L0.597,-0.662L0.701,-0.662L0.403,0.01L0.327,0.01L0.007,-0.662L0.175,-0.662Z" style="fill:white;fill-rule:nonzero;stroke:white;stroke-width:0.01px;"/>
                </g>
                <g transform="matrix(44.5812,0,0,44.5812,632.046,398.835)">
                    <path d="M0.4,-0.676L0.71,-0L0.544,-0L0.461,-0.181L0.204,-0.181L0.117,-0L0.007,-0L0.33,-0.676L0.4,-0.676ZM0.235,-0.242L0.434,-0.242L0.336,-0.456L0.235,-0.242Z" style="fill:white;fill-rule:nonzero;stroke:white;stroke-width:0.01px;"/>
                </g>
                <g transform="matrix(44.5812,0,0,44.5812,668.38,398.835)">
                    <path d="M0.083,-0.662L0.246,-0.662L0.246,-0.068L0.583,-0.068L0.583,-0L0.083,-0L0.083,-0.662Z" style="fill:white;fill-rule:nonzero;stroke:white;stroke-width:0.01px;"/>
                </g>
                <g transform="matrix(44.5812,0,0,44.5812,695.512,398.835)">
                    <path d="M0.175,-0.662L0.394,-0.205L0.597,-0.662L0.701,-0.662L0.403,0.01L0.327,0.01L0.007,-0.662L0.175,-0.662Z" style="fill:white;fill-rule:nonzero;stroke:white;stroke-width:0.01px;"/>
                </g>
                <g transform="matrix(44.5812,0,0,44.5812,731.355,398.835)">
                    <path d="M0.578,-0.662L0.578,-0.605L0.246,-0.605L0.246,-0.387L0.521,-0.387L0.521,-0.331L0.246,-0.331L0.246,-0.068L0.578,-0.068L0.578,-0L0.083,-0L0.083,-0.662L0.578,-0.662Z" style="fill:white;fill-rule:nonzero;stroke:white;stroke-width:0.01px;"/>
                </g>
                <g transform="matrix(44.5812,0,0,44.5812,764.167,398.835)">
                    <path d="M0.318,0.01C0.279,0.01 0.244,0.005 0.214,-0.004C0.184,-0.013 0.159,-0.026 0.138,-0.042C0.117,-0.059 0.101,-0.078 0.088,-0.101C0.076,-0.123 0.068,-0.148 0.063,-0.175L0.176,-0.175C0.18,-0.159 0.185,-0.143 0.193,-0.129C0.2,-0.115 0.21,-0.102 0.221,-0.092C0.233,-0.081 0.247,-0.073 0.262,-0.067C0.278,-0.061 0.297,-0.058 0.317,-0.058C0.331,-0.058 0.345,-0.059 0.358,-0.062C0.372,-0.065 0.384,-0.07 0.395,-0.076C0.405,-0.083 0.414,-0.092 0.42,-0.102C0.427,-0.113 0.43,-0.126 0.43,-0.142C0.43,-0.161 0.425,-0.179 0.415,-0.194C0.405,-0.209 0.392,-0.223 0.375,-0.236C0.358,-0.248 0.34,-0.26 0.318,-0.271C0.297,-0.281 0.276,-0.292 0.253,-0.303C0.231,-0.314 0.21,-0.325 0.188,-0.337C0.167,-0.349 0.148,-0.363 0.132,-0.378C0.115,-0.392 0.102,-0.409 0.092,-0.428C0.082,-0.447 0.077,-0.468 0.077,-0.492C0.077,-0.519 0.082,-0.543 0.094,-0.565C0.106,-0.587 0.122,-0.607 0.144,-0.623C0.166,-0.64 0.193,-0.653 0.224,-0.662C0.256,-0.671 0.292,-0.676 0.332,-0.676C0.365,-0.676 0.395,-0.671 0.422,-0.662C0.449,-0.653 0.473,-0.64 0.494,-0.624C0.515,-0.608 0.532,-0.589 0.546,-0.568C0.56,-0.546 0.571,-0.523 0.578,-0.498L0.476,-0.498C0.47,-0.514 0.463,-0.529 0.456,-0.543C0.448,-0.557 0.438,-0.57 0.427,-0.581C0.415,-0.591 0.402,-0.6 0.385,-0.606C0.369,-0.613 0.35,-0.616 0.327,-0.616C0.306,-0.616 0.288,-0.613 0.274,-0.607C0.259,-0.602 0.248,-0.595 0.239,-0.586C0.23,-0.578 0.224,-0.568 0.22,-0.557C0.216,-0.547 0.214,-0.536 0.214,-0.526C0.214,-0.509 0.219,-0.493 0.229,-0.479C0.24,-0.464 0.254,-0.451 0.271,-0.438C0.288,-0.426 0.307,-0.414 0.329,-0.403C0.351,-0.392 0.373,-0.381 0.396,-0.369C0.418,-0.358 0.441,-0.346 0.462,-0.333C0.484,-0.321 0.504,-0.307 0.521,-0.292C0.538,-0.277 0.552,-0.26 0.562,-0.242C0.572,-0.224 0.578,-0.203 0.578,-0.181C0.578,-0.154 0.572,-0.129 0.561,-0.105C0.55,-0.082 0.534,-0.062 0.512,-0.045C0.49,-0.028 0.463,-0.015 0.43,-0.005C0.398,0.005 0.361,0.01 0.318,0.01Z" style="fill:white;fill-rule:nonzero;stroke:white;stroke-width:0.01px;"/>
                </g>
            </g>
            <g transform="matrix(0.875568,0,0,0.875568,1961.75,1619.9)">
                <path d="M0,-7.687L34.944,-8.386C36.167,-7.343 35.778,-7.284 35.951,-5.877L35.703,-5.25L34.701,-4.249C34.452,-4.026 33.573,-3.437 33.548,-3.491C19.566,-1.049 2.449,-5.944 -9.787,0.699L-44.727,0.699L-44.727,-7.687L0,-7.687Z" style="fill:white;fill-rule:nonzero;stroke:white;stroke-width:0.87px;stroke-linejoin:miter;stroke-miterlimit:4;"/>
            </g>
            <g transform="matrix(0.245167,-0.840543,-0.840543,-0.245167,1945.49,1615.57)">
                <path d="M-16.772,-12.579C-16.539,-2.139 -20.356,10.947 -26.165,19.623L-16.772,22.363L-7.379,-9.839L-16.772,-12.579Z" style="fill:white;fill-rule:nonzero;stroke:white;stroke-width:0.98px;stroke-linejoin:miter;stroke-miterlimit:4;"/>
            </g>
            <g transform="matrix(0.875568,0,0,0.875568,2007.38,1648.36)">
                <path d="M0,91.275L35.473,91.275L35.473,57.942C35.473,38.33 42.783,30.66 64.18,30.66L68.104,30.66L68.104,0L63.824,0C48.131,0 41.894,1.425 34.228,12.651L33.871,12.651L33.871,2.141L0,2.141L0,91.275Z" style="fill:white;fill-rule:nonzero;stroke:white;stroke-width:0.52px;"/>
            </g>
            <g transform="matrix(0.875568,0,0,0.875568,2153.24,1650.24)">
                <path d="M0,89.134L0,54.555C0,14.264 -24.778,-2.141 -51.345,-2.141C-76.655,-2.141 -97.691,17.648 -97.691,47.242C-97.691,71.133 -77.723,91.275 -53.124,91.275C-49.555,91.275 -45.635,90.925 -40.826,90.382L-40.826,55.44C-44.746,56.873 -47.603,57.404 -50.094,57.404C-55.98,57.404 -61.685,52.417 -61.685,44.567C-61.685,36.544 -55.98,31.73 -49.204,31.73C-42.428,31.73 -36.012,36.544 -36.012,44.567L-36.012,89.134L0,89.134Z" style="fill:white;fill-rule:nonzero;stroke:white;stroke-width:0.52px;"/>
            </g>
            <g transform="matrix(0.875568,0,0,0.875568,2189.03,1648.36)">
                <path d="M0,91.275L0,43.322C0,35.474 1.958,32.806 6.416,32.806C10.874,32.806 12.832,35.474 12.832,43.322L12.832,91.275L48.483,91.275L48.483,37.792C48.483,17.11 34.223,0 6.416,0C-21.392,0 -35.661,17.11 -35.661,37.792L-35.661,91.275L0,91.275Z" style="fill:white;fill-rule:nonzero;stroke:white;stroke-width:0.52px;"/>
            </g>
            <g transform="matrix(0.875568,0,0,0.875568,2289.46,1730.15)">
                <path d="M0,-126.932L0,-49.564C0,-38.857 -5.707,-33.871 -13.189,-33.871C-19.97,-33.871 -25.674,-38.857 -25.674,-46.708C-25.674,-54.73 -18.891,-59.544 -12.659,-59.544C-9.626,-59.544 -6.777,-58.654 -3.921,-57.581L-3.921,-92.708C-7.662,-93.238 -11.409,-93.416 -16.051,-93.416C-42.429,-93.416 -59.546,-73.452 -59.546,-47.775C-59.546,-19.246 -38.683,0 -13.372,0C13.184,0 35.66,-16.572 35.66,-56.697L35.66,-126.932L0,-126.932Z" style="fill:white;fill-rule:nonzero;stroke:white;stroke-width:0.52px;"/>
            </g>
            <g transform="matrix(0.875568,0,0,0.875568,2367.38,1730.15)">
                <path d="M0,-93.416C-25.844,-93.416 -46.881,-72.557 -46.881,-46.708C-46.881,-21.042 -25.844,0 0,0C25.676,0 46.885,-21.042 46.885,-46.708C46.885,-72.557 25.676,-93.416 0,-93.416M0,-58.12C6.236,-58.12 11.586,-52.773 11.586,-46.708C11.586,-40.648 6.236,-35.297 0,-35.297C-6.243,-35.297 -11.584,-40.648 -11.584,-46.708C-11.584,-52.773 -6.243,-58.12 0,-58.12" style="fill:white;stroke:white;stroke-width:0.52px;"/>
            </g>
            <g transform="matrix(0.875568,0,0,0.875568,2444.53,1648.36)">
                <path d="M0,91.275L0,43.322C0,35.474 1.969,32.806 6.423,32.806C10.879,32.806 12.837,35.474 12.837,43.322L12.837,91.275L48.491,91.275L48.491,37.792C48.491,17.11 34.231,0 6.423,0C-21.392,0 -35.651,17.11 -35.651,37.792L-35.651,91.275L0,91.275Z" style="fill:white;fill-rule:nonzero;stroke:white;stroke-width:0.52px;"/>
            </g>
            <g transform="matrix(0.875568,0,0,0.875568,2508.44,1728.28)">
                <path d="M0,-138.343C-11.589,-138.343 -21.034,-128.715 -21.034,-117.303C-21.034,-105.9 -11.589,-96.266 0,-96.266C11.586,-96.266 21.032,-105.9 21.032,-117.303C21.032,-128.715 11.586,-138.343 0,-138.343M17.82,-89.134L-17.831,-89.134L-17.831,0L17.82,0L17.82,-89.134Z" style="fill:white;stroke:white;stroke-width:0.52px;"/>
            </g>
            <g transform="matrix(0.875568,0,0,0.875568,1874.72,1762.46)">
                <path d="M0,-220.953L0.164,-88.059C-3.607,-18.025 44.286,-0.974 73.648,-0.514C106.097,0 145.013,-33.502 144.732,-73.14C144.446,-112.616 112.625,-144.384 73.133,-144.723C66.067,-144.782 61.988,-144.338 55.108,-142.668L55.108,-86.012C59.698,-92.112 64.961,-94.306 72.624,-94.764C84.533,-95.476 93.739,-81.391 93.739,-73.14C93.739,-58.713 84.78,-51.839 73.133,-51.503C60.93,-51.137 50.547,-61.441 50.988,-73.654L50.988,-165.566C51.901,-183.285 46.708,-195.731 33.479,-207.559C22.993,-216.935 0,-220.953 0,-220.953" style="fill:white;fill-rule:nonzero;stroke:white;stroke-width:0.52px;"/>
            </g>
        </g>
    </g>
</svg>
