<?xml version="1.0" encoding="UTF-8" standalone="no"?>
<!DOCTYPE svg PUBLIC "-//W3C//DTD SVG 1.1//EN" "http://www.w3.org/Graphics/SVG/1.1/DTD/svg11.dtd">
<svg width="100%" height="100%" viewBox="0 0 2124 512" version="1.1" xmlns="http://www.w3.org/2000/svg" xmlns:xlink="http://www.w3.org/1999/xlink" xml:space="preserve" xmlns:serif="http://www.serif.com/" style="fill-rule:evenodd;clip-rule:evenodd;stroke-linejoin:round;stroke-miterlimit:2;">
    <g transform="matrix(5.55556,0,0,5.55556,-591.728,-502.667)">
        <g transform="matrix(1,0,0,1,0,-598.059)">
            <path d="M488.765,692.434L488.765,689.766C485.985,689.878 482.891,689.935 479.482,689.935C475.863,689.935 472.29,689.878 468.763,689.766L468.763,692.434C471.872,692.464 473.923,692.673 474.909,693.07C475.326,693.24 475.64,693.508 475.849,693.874C476.119,694.44 476.312,695.895 476.432,698.239C476.643,701.965 476.744,705.213 476.744,707.98L476.744,738.944C475.61,737.872 474.205,736.403 472.532,734.538C469.899,731.715 466.415,727.847 462.083,722.934L448.538,707.515L439.255,696.712C438.058,695.216 436.191,692.898 433.65,689.766C431.499,689.878 429.329,689.935 427.147,689.935C425.859,689.935 422.721,689.878 417.729,689.766L417.729,692.434C420.152,692.464 421.713,692.54 422.416,692.667C423.118,692.795 423.739,693.084 424.277,693.535C425.115,694.241 425.652,694.848 425.89,695.358C426.009,695.639 426.071,696.247 426.071,697.178L426.071,731.702C426.071,734.412 425.981,737.631 425.804,741.359C425.68,743.76 425.472,745.242 425.174,745.808C424.995,746.173 424.696,746.442 424.277,746.611C423.291,747.035 421.226,747.261 418.088,747.29L418.088,749.958C422.153,749.76 425.921,749.661 429.39,749.661C432.558,749.661 435.457,749.76 438.089,749.958L438.089,747.29C434.98,747.261 432.931,747.051 431.945,746.654C431.527,746.485 431.214,746.203 431.004,745.808C430.733,745.271 430.54,743.829 430.421,741.485C430.211,737.729 430.106,734.47 430.106,731.702L430.106,699.211L461.902,735.09L467.687,741.993C468.853,743.349 470.676,745.354 473.159,748.009C474.086,748.998 474.654,749.564 474.864,749.704C475.013,749.817 475.177,749.902 475.357,749.958L476.432,750.169L481.05,751.44C480.902,740.173 480.826,732.478 480.826,728.355L480.826,707.98C480.826,705.298 480.918,702.092 481.096,698.365C481.216,695.935 481.425,694.453 481.725,693.916C481.903,693.521 482.2,693.24 482.621,693.07C483.608,692.673 485.655,692.464 488.765,692.434M381.088,745.467C380.938,742.755 380.863,738.79 380.863,733.565C380.863,728.002 380.938,723.809 381.088,720.985C384.767,720.843 387.605,720.772 389.61,720.772C394.513,720.772 397.816,720.942 399.519,721.28C400.475,721.479 401.126,721.831 401.47,722.34C401.814,722.847 402.015,724.147 402.076,726.236L402.211,729.117L405.348,729.117L405.126,719.248L405.348,710.436L405.348,709.633L402.659,709.633L402.389,712.597C402.183,714.573 401.942,715.733 401.673,716.072C401.403,716.41 400.79,716.635 399.834,716.748C397.324,717.059 394.289,717.215 390.73,717.215C387.799,717.215 384.587,717.129 381.088,716.959L381.267,702.645C381.327,699.903 381.416,696.966 381.537,693.833C382.613,693.747 384.392,693.647 386.874,693.535C389.353,693.422 390.953,693.366 391.671,693.366C395.019,693.366 398.367,693.565 401.716,693.959C403.69,694.185 405.499,694.623 407.144,695.272C407.562,697.645 407.756,700.272 407.727,703.152L410.553,703.152C411.031,697.532 411.298,694.593 411.36,694.341C411.54,693.154 411.866,691.755 412.347,690.147C409.713,689.836 406.92,689.682 403.959,689.682C401.031,689.682 396.321,689.723 389.834,689.809L376.29,690.02L363.507,689.766L363.507,692.477C367.066,692.533 369.226,692.682 369.99,692.921C370.751,693.161 371.303,693.529 371.649,694.023C371.991,694.517 372.208,696.107 372.299,698.789C372.388,702.459 372.434,706.216 372.434,710.055L372.434,731.702C372.434,734.412 372.344,737.631 372.163,741.359C372.043,743.76 371.832,745.242 371.534,745.808C371.355,746.173 371.057,746.442 370.64,746.611C369.654,747.035 367.589,747.261 364.448,747.29L364.448,749.958C371.893,749.731 375.812,749.618 376.2,749.618L402.971,749.958C406.652,749.958 409.775,749.774 412.347,749.406C412.347,745.652 412.734,740.921 413.512,735.217L410.553,735.217C410.342,736.486 409.907,738.379 409.251,740.892C408.893,742.391 408.535,743.577 408.176,744.45C406.798,744.989 405.306,745.368 403.69,745.593C402.076,745.822 399.37,745.934 395.574,745.934C390.221,745.934 385.391,745.779 381.088,745.467M367.606,716.41C367.606,710.423 366.051,705.354 362.942,701.203C359.832,697.052 356.048,694.094 351.597,692.328C347.14,690.563 341.251,689.68 333.926,689.68C331.476,689.68 328.029,689.739 323.589,689.849C319.15,689.964 315.642,690.018 313.075,690.018C309.723,690.018 305.867,689.935 301.502,689.766L301.502,692.434C304.612,692.461 306.659,692.673 307.646,693.068C308.065,693.24 308.378,693.508 308.587,693.874C308.887,694.44 309.098,695.893 309.217,698.236C309.396,701.965 309.487,705.211 309.487,707.98L309.487,725.262C309.487,727.521 309.38,731.56 309.171,737.378C309.053,740.793 308.901,743.462 308.722,745.382C307.556,746.144 306.106,746.992 304.372,747.924L304.372,749.957C308.947,749.731 312.146,749.618 313.969,749.618C315.226,749.618 317.887,749.677 321.954,749.787C325.06,749.902 327.527,749.957 329.352,749.957C334.852,749.957 339.181,749.542 342.335,748.706C345.489,747.874 348.502,746.64 351.371,745C354.242,743.365 356.932,741.141 359.444,738.33C361.954,735.521 363.943,732.237 365.408,728.481C366.872,724.725 367.606,720.703 367.606,716.41M357.965,718.485C357.965,722.155 357.449,725.708 356.416,729.136C355.386,732.571 353.913,735.386 351.998,737.588C350.084,739.792 348.105,741.459 346.058,742.587C344.009,743.717 341.542,744.592 338.661,745.213C335.772,745.835 332.448,746.144 328.677,746.144C325.032,746.144 321.563,745.878 318.276,745.342C318.126,742.205 318.035,739.635 318.005,737.631L317.873,724.5L317.873,707.598L318.05,701.455C318.111,697.928 318.186,695.471 318.276,694.085C322.069,693.551 325.807,693.28 329.486,693.28C336.482,693.28 341.984,694.284 345.989,696.289C349.997,698.295 352.992,701.18 354.982,704.95C356.972,708.722 357.965,713.233 357.965,718.485M301.726,747.245C300.201,747.245 299.216,747.175 298.766,747.035C298.497,746.949 298.227,746.809 297.96,746.611C297.421,746.16 295.537,743.971 292.307,740.047L281.006,725.984C278.225,722.566 276.461,720.364 275.715,719.374C279.812,718.525 283.138,717.328 285.694,715.773C288.249,714.221 290.201,712.272 291.546,709.929C292.89,707.584 293.564,705.225 293.564,702.854C293.564,700.311 292.845,697.961 291.412,695.803C289.976,693.641 287.948,692.083 285.334,691.121C282.719,690.16 278.556,689.68 272.845,689.68C272.097,689.68 269.391,689.766 264.728,689.935C261.14,690.047 258.494,690.104 256.789,690.104L248.18,689.892C245.788,689.836 244.008,689.792 242.843,689.766L242.843,692.475C246.399,692.533 248.561,692.68 249.323,692.921C250.083,693.161 250.638,693.529 250.983,694.023C251.326,694.517 251.544,696.104 251.633,698.787C251.723,702.459 251.768,706.216 251.768,710.055L251.768,729.668C251.679,737.095 251.617,741.105 251.586,741.698C251.498,743.872 251.274,745.242 250.915,745.806C250.614,746.229 250.077,746.561 249.3,746.8C248.523,747.042 246.37,747.191 242.843,747.245L242.843,749.957C249.629,749.731 254.458,749.618 257.327,749.618C260.886,749.618 264.787,749.731 269.033,749.957L269.033,747.245C265.507,747.191 263.351,747.042 262.575,746.8C261.796,746.561 261.237,746.188 260.894,745.68C260.55,745.172 260.347,743.575 260.287,740.892C260.167,737.249 260.107,733.509 260.107,729.668L260.107,710.86C260.287,703.039 260.392,698.928 260.425,698.534C260.482,697.207 260.571,695.779 260.692,694.255C263.652,693.379 266.671,692.942 269.75,692.942C274.653,692.942 278.315,693.966 280.738,696.014C283.16,698.06 284.369,700.821 284.369,704.294C284.369,708.277 282.965,711.48 280.156,713.911C277.345,716.338 273.218,717.553 267.778,717.553C266.97,717.553 265.788,717.51 264.236,717.425L263.786,718.697C266.626,721.776 269.616,725.206 272.755,728.991C274.698,731.278 276.941,734.129 279.481,737.545C284.056,743.703 287.316,747.838 289.261,749.957C291.83,749.787 293.997,749.704 295.76,749.704C297.463,749.704 299.453,749.787 301.726,749.957L301.726,747.245ZM231.41,749.535C233.263,749.535 236.521,749.677 241.185,749.958L241.185,747.078C238.823,747.051 237.307,746.879 236.633,746.568C235.962,746.258 235.341,745.609 234.773,744.621C233.756,742.871 231.696,738.55 228.585,731.659L209.436,689.172L206.52,689.172C202.513,698.239 199.896,704.083 198.671,706.709L187.46,730.601C184.112,737.49 182.168,741.459 181.631,742.503C180.704,744.339 179.995,745.474 179.501,745.912C179.006,746.352 178.468,746.647 177.886,746.802C177.304,746.959 175.829,747.051 173.467,747.078L173.467,749.958C176.907,749.704 180.075,749.578 182.975,749.578C185.487,749.578 189.268,749.704 194.323,749.958L194.323,747.078C191.541,747.051 189.598,746.922 188.492,746.697C187.804,746.557 187.296,746.302 186.967,745.934C186.727,745.68 186.608,745.354 186.608,744.96C186.608,744.055 187.041,742.629 187.909,740.68L192.799,729.796L218.764,729.796L224.278,742.758C224.697,743.747 224.906,744.551 224.906,745.172C224.906,745.567 224.78,745.898 224.526,746.166C224.272,746.435 223.786,746.64 223.068,746.78C222.351,746.922 220.317,747.022 216.971,747.078L216.971,749.958L231.41,749.535ZM216.971,726.195L194.323,726.195L205.757,700.652L216.971,726.195ZM167.504,730.048L170.866,728.185L170.597,726.152C167.755,726.351 164.976,726.448 162.256,726.448L148.263,726.152L148.263,728.735C152.511,728.848 155.22,729.01 156.403,729.223C157.583,729.435 158.308,729.753 158.579,730.176C158.845,730.601 158.983,732.054 158.983,734.54L158.983,739.241C158.983,741.727 158.845,743.534 158.579,744.664C156.872,745.51 154.783,746.173 152.314,746.654C149.845,747.135 147.294,747.374 144.662,747.374C139.063,747.374 134.162,746.195 129.958,743.836C125.754,741.479 122.4,738.077 119.902,733.629C117.404,729.18 116.153,724.176 116.153,718.613C116.153,713.559 117.224,708.897 119.361,704.634C121.497,700.37 124.643,697.095 128.801,694.807C132.957,692.521 137.875,691.375 143.553,691.375C146.304,691.375 148.674,691.559 150.664,691.926C152.65,692.295 155.171,693.027 158.218,694.128C159.983,694.95 161.268,695.866 162.075,696.883C162.435,697.589 162.629,698.166 162.66,698.62C162.689,699.071 162.717,699.664 162.749,700.398L162.973,705.227L165.707,705.227C166.097,700.935 166.41,698.097 166.651,696.714C166.89,695.328 167.234,693.919 167.682,692.477C163.078,691.263 158.944,690.312 155.282,689.617C151.619,688.926 148.13,688.565 144.81,688.539C137.726,688.539 131.776,689.443 126.963,691.248C123.822,692.434 120.678,694.271 117.528,696.756C114.38,699.24 111.755,702.409 109.659,706.265C107.562,710.121 106.511,714.801 106.511,720.308C106.511,726.576 107.978,732.014 110.91,736.615C113.836,741.217 117.992,744.797 123.376,747.353C128.755,749.909 134.899,751.186 141.805,751.186C146.379,751.186 151.224,750.721 156.337,749.787C159.235,749.252 162.957,748.208 167.504,746.654C167.144,743.69 166.964,740.936 166.964,738.395C166.964,735.853 167.144,733.071 167.504,730.048" style="fill:rgb(31,108,123);fill-rule:nonzero;"/>
        </g>
        <g transform="matrix(1,0,0,1,0,-491.385)">
            <path d="M415.295,659.651C414.725,659.678 413.822,659.703 412.583,659.73C410.875,659.769 409.782,659.789 409.312,659.789C408.875,659.789 408,659.776 406.694,659.751C405.079,659.71 403.894,659.678 403.142,659.651C403.203,660.254 403.239,661.336 403.246,662.899L403.888,662.899L404.002,661.907C404.066,661.307 404.134,660.951 404.21,660.838C404.258,660.773 404.366,660.729 404.532,660.712C405.058,660.646 405.77,660.612 406.663,660.612L408.211,660.612L408.273,662.271C408.287,662.6 408.291,662.899 408.291,663.173L408.291,668.893C408.266,670.615 408.251,671.544 408.251,671.682C408.232,672.185 408.175,672.501 408.086,672.634C408.023,672.732 407.903,672.808 407.723,672.865C407.542,672.92 407.041,672.954 406.214,672.966L406.214,673.594C408.106,673.544 409.187,673.516 409.457,673.516C410.08,673.516 411.013,673.544 412.253,673.594L412.253,672.966C411.427,672.954 410.927,672.92 410.75,672.865C410.572,672.808 410.443,672.722 410.366,672.603C410.287,672.485 410.235,672.117 410.215,671.494C410.194,670.651 410.184,669.785 410.184,668.893L410.184,663.155C410.184,662.088 410.219,661.242 410.288,660.612L411.554,660.612C411.901,660.612 412.374,660.628 412.969,660.662C413.562,660.694 413.908,660.721 414.007,660.741C414.081,660.76 414.142,660.786 414.18,660.818C414.215,660.851 414.246,660.907 414.265,660.985C414.286,661.064 414.324,661.388 414.382,661.957L414.464,662.899L415.126,662.899C415.155,661.468 415.213,660.385 415.295,659.651M398.159,673.536C398.553,673.536 399.014,673.555 399.54,673.594L399.54,672.966C399.187,672.966 398.959,672.949 398.857,672.918C398.791,672.898 398.729,672.865 398.668,672.819C398.543,672.715 398.107,672.207 397.359,671.298L394.742,668.04C394.096,667.248 393.687,666.74 393.516,666.51C394.465,666.313 395.235,666.035 395.825,665.677C396.418,665.316 396.871,664.865 397.182,664.321C397.494,663.78 397.65,663.231 397.65,662.684C397.65,662.095 397.483,661.55 397.151,661.05C396.819,660.549 396.348,660.188 395.745,659.965C395.137,659.744 394.174,659.632 392.852,659.632C392.677,659.632 392.052,659.651 390.969,659.689C390.139,659.717 389.527,659.73 389.131,659.73L387.137,659.681C386.583,659.667 386.172,659.658 385.902,659.651L385.902,660.279C386.723,660.292 387.225,660.326 387.401,660.382C387.578,660.439 387.708,660.522 387.786,660.637C387.864,660.752 387.914,661.12 387.937,661.74C387.958,662.59 387.968,663.462 387.968,664.352L387.968,668.893C387.945,670.615 387.931,671.542 387.927,671.679C387.906,672.185 387.852,672.502 387.769,672.631C387.701,672.732 387.575,672.808 387.397,672.865C387.215,672.918 386.719,672.954 385.902,672.966L385.902,673.594C387.473,673.541 388.591,673.516 389.255,673.516C390.081,673.516 390.984,673.541 391.969,673.594L391.969,672.966C391.152,672.954 390.651,672.918 390.471,672.865C390.291,672.808 390.16,672.719 390.081,672.603C390.001,672.485 389.955,672.115 389.942,671.494C389.914,670.651 389.9,669.783 389.9,668.893L389.9,664.538C389.942,662.726 389.966,661.774 389.975,661.682C389.986,661.375 390.007,661.045 390.036,660.691C390.723,660.488 391.42,660.387 392.133,660.387C393.269,660.387 394.119,660.624 394.679,661.099C395.24,661.573 395.521,662.212 395.521,663.017C395.521,663.939 395.195,664.682 394.545,665.244C393.892,665.807 392.938,666.087 391.676,666.087C391.491,666.087 391.216,666.078 390.855,666.058L390.752,666.354C391.409,667.066 392.101,667.86 392.831,668.738C393.279,669.265 393.798,669.929 394.389,670.718C395.448,672.147 396.203,673.104 396.652,673.594C397.249,673.555 397.75,673.536 398.159,673.536M378.751,671.682C380.32,670.215 381.104,668.381 381.104,666.178C381.104,665.49 381.028,664.845 380.872,664.245C380.717,663.643 380.506,663.119 380.243,662.674C379.897,662.078 379.425,661.531 378.824,661.03C378.225,660.529 377.46,660.128 376.522,659.823C375.588,659.518 374.55,659.367 373.406,659.367C372.167,659.367 371.067,659.545 370.102,659.902C369.14,660.257 368.278,660.786 367.516,661.485C366.754,662.186 366.211,662.974 365.881,663.851C365.553,664.727 365.388,665.683 365.388,666.717C365.388,667.632 365.556,668.56 365.898,669.498C366.236,670.437 366.73,671.235 367.383,671.892C368.032,672.551 368.83,673.045 369.772,673.379C370.715,673.712 371.728,673.879 372.814,673.879C375.206,673.879 377.186,673.146 378.751,671.682M378.903,666.825C378.903,668.04 378.7,669.114 378.295,670.046C377.889,670.98 377.274,671.703 376.452,672.217C375.628,672.729 374.657,672.985 373.542,672.985C372.738,672.985 372.005,672.859 371.345,672.606C370.685,672.356 370.084,671.964 369.55,671.431C369.011,670.897 368.576,670.239 368.245,669.453C368.044,668.988 367.879,668.436 367.745,667.795C367.615,667.155 367.547,666.523 367.547,665.903C367.547,664.79 367.758,663.793 368.177,662.914C368.596,662.034 369.222,661.361 370.05,660.896C370.88,660.434 371.848,660.199 372.95,660.199C373.712,660.199 374.421,660.313 375.081,660.535C375.737,660.757 376.272,661.03 376.684,661.352C377.096,661.677 377.453,662.056 377.75,662.491C378.046,662.927 378.287,663.412 378.467,663.948C378.759,664.826 378.903,665.785 378.903,666.825M358.723,672.428C359.863,671.461 360.434,670.327 360.434,669.026C360.434,668.477 360.334,667.998 360.135,667.587C359.933,667.182 359.678,666.85 359.364,666.597C359.053,666.346 358.572,666.131 357.924,665.944C357.231,665.821 356.449,665.706 355.585,665.599C354.72,665.492 354.096,665.375 353.715,665.251C353.159,665.067 352.775,664.824 352.56,664.519C352.345,664.215 352.241,663.786 352.241,663.229C352.241,662.309 352.539,661.558 353.138,660.98C353.736,660.402 354.538,660.112 355.544,660.112C356.319,660.112 357.063,660.301 357.776,660.683C358.073,660.871 358.309,661.084 358.485,661.318C358.524,661.41 358.555,661.961 358.576,662.967L359.284,662.967C359.302,662.274 359.334,661.749 359.377,661.393C359.417,661.036 359.488,660.651 359.585,660.241C358.981,659.956 358.333,659.74 357.636,659.59C356.941,659.442 356.298,659.367 355.709,659.367C354.732,659.367 353.826,659.557 352.993,659.936C352.157,660.315 351.531,660.847 351.103,661.531C350.677,662.214 350.464,662.94 350.464,663.714C350.464,664.245 350.569,664.738 350.783,665.194C350.991,665.652 351.267,666.022 351.605,666.304C351.944,666.586 352.475,666.829 353.195,667.04C353.736,667.152 354.39,667.254 355.159,667.344C355.926,667.436 356.439,667.502 356.698,667.54C357.103,667.619 357.447,667.755 357.724,667.946C358.001,668.14 358.207,668.395 358.343,668.709C358.477,669.023 358.545,669.394 358.545,669.825C358.545,670.39 358.409,670.917 358.14,671.412C357.87,671.906 357.44,672.304 356.854,672.606C356.263,672.912 355.619,673.065 354.921,673.065C354.443,673.065 353.945,672.988 353.435,672.835C352.923,672.679 352.512,672.505 352.207,672.31C351.905,672.113 351.711,671.928 351.631,671.753C351.551,671.581 351.496,671.017 351.459,670.062L350.753,670.062C350.734,671.467 350.667,672.485 350.558,673.114C351.673,673.624 352.915,673.879 354.287,673.879C356.1,673.879 357.578,673.394 358.723,672.428M337.648,672.555C337.613,671.926 337.595,671.007 337.595,669.797C337.595,668.508 337.613,667.538 337.648,666.881C338.499,666.85 339.154,666.834 339.62,666.834C340.757,666.834 341.521,666.872 341.918,666.952C342.138,666.996 342.289,667.08 342.369,667.197C342.449,667.314 342.494,667.615 342.508,668.099L342.541,668.768L343.268,668.768L343.214,666.48L343.268,664.439L343.268,664.253L342.645,664.253L342.581,664.941C342.532,665.397 342.477,665.665 342.415,665.744C342.355,665.824 342.21,665.875 341.989,665.903C341.407,665.975 340.704,666.008 339.881,666.008C339.203,666.008 338.457,665.99 337.648,665.95L337.687,662.633C337.703,662 337.725,661.321 337.751,660.592C337.998,660.574 338.412,660.551 338.988,660.524C339.563,660.499 339.93,660.486 340.099,660.486C340.874,660.486 341.652,660.532 342.425,660.624C342.884,660.676 343.301,660.777 343.682,660.928C343.778,661.476 343.824,662.085 343.817,662.754L344.471,662.754C344.582,661.449 344.646,660.77 344.658,660.712C344.701,660.436 344.778,660.112 344.888,659.74C344.279,659.667 343.632,659.632 342.946,659.632C342.268,659.632 341.175,659.643 339.674,659.66L336.536,659.71L333.575,659.651L333.575,660.279C334.401,660.292 334.899,660.326 335.076,660.382C335.253,660.439 335.381,660.522 335.46,660.637C335.539,660.752 335.589,661.12 335.612,661.74C335.633,662.59 335.643,663.462 335.643,664.351L335.643,669.365C335.643,669.992 335.62,670.739 335.579,671.603C335.551,672.158 335.503,672.501 335.435,672.631C335.394,672.717 335.323,672.781 335.226,672.819C334.999,672.918 334.519,672.97 333.795,672.976L333.795,673.594C335.518,673.544 336.425,673.516 336.516,673.516L342.716,673.594C343.569,673.594 344.293,673.552 344.888,673.467C344.888,672.598 344.979,671.501 345.158,670.18L344.471,670.18C344.424,670.475 344.324,670.913 344.17,671.494C344.086,671.842 344.006,672.117 343.923,672.318C343.602,672.444 343.256,672.53 342.884,672.584C342.508,672.636 341.882,672.663 341.002,672.663C339.765,672.663 338.644,672.628 337.648,672.555M327.742,673.536C328.136,673.536 328.597,673.555 329.122,673.594L329.122,672.966C328.77,672.966 328.541,672.949 328.437,672.918C328.375,672.898 328.312,672.865 328.251,672.819C328.126,672.715 327.689,672.207 326.942,671.298L324.325,668.04C323.679,667.248 323.27,666.74 323.099,666.51C324.046,666.313 324.816,666.035 325.408,665.677C326,665.316 326.454,664.865 326.765,664.321C327.077,663.78 327.232,663.231 327.232,662.684C327.232,662.095 327.066,661.55 326.734,661.05C326.401,660.549 325.931,660.188 325.325,659.965C324.72,659.744 323.755,659.632 322.435,659.632C322.26,659.632 321.632,659.651 320.553,659.689C319.722,659.717 319.11,659.73 318.712,659.73L316.72,659.681C316.166,659.667 315.752,659.658 315.482,659.651L315.482,660.279C316.306,660.292 316.808,660.326 316.984,660.382C317.161,660.439 317.288,660.522 317.369,660.637C317.45,660.752 317.499,661.12 317.52,661.74C317.541,662.59 317.551,663.462 317.551,664.352L317.551,668.893C317.53,670.615 317.514,671.542 317.51,671.679C317.489,672.185 317.435,672.502 317.353,672.631C317.284,672.732 317.158,672.808 316.98,672.865C316.798,672.918 316.301,672.954 315.482,672.966L315.482,673.594C317.056,673.541 318.175,673.516 318.838,673.516C319.662,673.516 320.566,673.541 321.55,673.594L321.55,672.966C320.733,672.954 320.234,672.918 320.053,672.865C319.874,672.808 319.743,672.719 319.664,672.603C319.586,672.485 319.538,672.115 319.525,671.494C319.497,670.651 319.483,669.783 319.483,668.893L319.483,664.538C319.525,662.726 319.549,661.774 319.558,661.682C319.569,661.375 319.591,661.045 319.618,660.691C320.304,660.488 321.005,660.387 321.716,660.387C322.854,660.387 323.7,660.624 324.26,661.099C324.823,661.573 325.101,662.212 325.101,663.017C325.101,663.939 324.778,664.682 324.127,665.244C323.475,665.807 322.518,666.087 321.261,666.087C321.071,666.087 320.798,666.078 320.438,666.058L320.335,666.354C320.992,667.066 321.684,667.86 322.411,668.738C322.862,669.265 323.381,669.929 323.971,670.718C325.031,672.147 325.786,673.104 326.235,673.594C326.832,673.555 327.333,673.536 327.742,673.536M300.438,673.495C300.867,673.495 301.62,673.53 302.702,673.594L302.702,672.927C302.156,672.92 301.805,672.882 301.649,672.81C301.491,672.737 301.348,672.587 301.217,672.359C300.981,671.953 300.505,670.951 299.784,669.356L295.347,659.514L294.675,659.514C293.744,661.613 293.136,662.967 292.856,663.577L290.256,669.111C289.48,670.707 289.031,671.626 288.908,671.867C288.692,672.293 288.529,672.555 288.413,672.656C288.299,672.758 288.175,672.828 288.038,672.865C287.905,672.898 287.565,672.92 287.015,672.927L287.015,673.594C287.812,673.536 288.546,673.507 289.218,673.507C289.801,673.507 290.677,673.536 291.848,673.594L291.848,672.927C291.203,672.92 290.751,672.891 290.495,672.84C290.336,672.806 290.217,672.746 290.142,672.663C290.087,672.603 290.059,672.528 290.059,672.436C290.059,672.227 290.162,671.896 290.362,671.445L291.495,668.923L297.508,668.923L298.787,671.926C298.884,672.156 298.932,672.342 298.932,672.485C298.932,672.578 298.903,672.654 298.843,672.715C298.783,672.778 298.671,672.826 298.505,672.857C298.34,672.891 297.868,672.913 297.094,672.927L297.094,673.594L300.438,673.495ZM297.094,668.091L291.848,668.091L294.498,662.173L297.094,668.091ZM280.682,660.417C280.911,660.326 281.387,660.276 282.105,660.269L282.105,659.651C281.464,659.678 280.747,659.689 279.955,659.689C279.117,659.689 278.292,659.678 277.473,659.651L277.473,660.269C278.193,660.276 278.668,660.326 278.896,660.417C278.993,660.455 279.065,660.518 279.116,660.603C279.177,660.735 279.224,661.07 279.249,661.613C279.3,662.476 279.324,663.229 279.324,663.87L279.324,671.043C279.058,670.793 278.733,670.455 278.345,670.022C277.735,669.37 276.929,668.472 275.926,667.335L272.789,663.762L270.637,661.259C270.36,660.915 269.928,660.378 269.341,659.651C268.843,659.678 268.339,659.689 267.833,659.689C267.533,659.689 266.809,659.678 265.65,659.651L265.65,660.269C266.213,660.276 266.574,660.294 266.737,660.323C266.899,660.353 267.043,660.421 267.169,660.524C267.363,660.689 267.487,660.829 267.542,660.946C267.57,661.011 267.585,661.152 267.585,661.368L267.585,669.365C267.585,669.992 267.563,670.739 267.522,671.603C267.494,672.158 267.446,672.501 267.376,672.631C267.334,672.717 267.265,672.781 267.169,672.819C266.94,672.918 266.463,672.97 265.733,672.976L265.733,673.594C266.677,673.549 267.549,673.524 268.353,673.524C269.087,673.524 269.757,673.549 270.369,673.594L270.369,672.976C269.648,672.97 269.173,672.92 268.944,672.828C268.847,672.789 268.774,672.724 268.726,672.631C268.664,672.509 268.619,672.173 268.592,671.632C268.542,670.762 268.519,670.005 268.519,669.365L268.519,661.84L275.884,670.15L277.224,671.75C277.493,672.063 277.916,672.528 278.491,673.144C278.708,673.372 278.839,673.502 278.886,673.536C278.92,673.561 278.958,673.581 279.002,673.594L279.249,673.642L280.321,673.938C280.286,671.327 280.266,669.546 280.266,668.589L280.266,663.87C280.266,663.25 280.288,662.507 280.331,661.643C280.357,661.081 280.405,660.736 280.478,660.612C280.518,660.522 280.588,660.455 280.682,660.417M258.55,673.495C258.979,673.495 259.734,673.53 260.814,673.594L260.814,672.927C260.267,672.92 259.916,672.882 259.761,672.81C259.605,672.737 259.459,672.587 259.328,672.359C259.094,671.953 258.616,670.951 257.895,669.356L253.461,659.514L252.784,659.514C251.856,661.613 251.25,662.967 250.966,663.577L248.369,669.111C247.594,670.707 247.144,671.626 247.019,671.867C246.804,672.293 246.64,672.555 246.525,672.656C246.412,672.758 246.285,672.828 246.151,672.865C246.015,672.898 245.676,672.92 245.128,672.927L245.128,673.594C245.925,673.536 246.658,673.507 247.329,673.507C247.912,673.507 248.788,673.536 249.959,673.594L249.959,672.927C249.314,672.92 248.865,672.891 248.608,672.84C248.45,672.806 248.329,672.746 248.253,672.663C248.198,672.603 248.173,672.528 248.173,672.436C248.173,672.227 248.273,671.896 248.474,671.445L249.606,668.923L255.622,668.923L256.898,671.926C256.995,672.156 257.044,672.342 257.044,672.485C257.044,672.578 257.014,672.654 256.954,672.715C256.898,672.778 256.785,672.826 256.618,672.857C256.45,672.891 255.979,672.913 255.206,672.927L255.206,673.594L258.55,673.495ZM255.206,668.091L249.959,668.091L252.607,662.173L255.206,668.091ZM230.795,671.019C229.516,669.811 228.875,668.217 228.875,666.236C228.882,665.104 229.052,664.163 229.384,663.414C229.716,662.666 230.143,662.047 230.668,661.56C231.189,661.072 231.793,660.716 232.479,660.491C233.164,660.265 233.998,660.145 234.982,660.132C236.298,660.132 237.298,660.29 237.979,660.603C238.663,660.917 239.038,661.395 239.106,662.036L239.116,663.193L239.772,663.193C239.814,662.462 239.889,661.817 240,661.259C240.077,660.915 240.192,660.56 240.344,660.199C240.169,660.168 239.697,660.055 238.925,659.861C238.154,659.67 237.499,659.539 236.961,659.471C236.423,659.401 235.842,659.367 235.212,659.367C232.546,659.367 230.441,660.052 228.902,661.422C227.358,662.793 226.589,664.521 226.589,666.608C226.589,667.432 226.704,668.19 226.934,668.88C227.161,669.57 227.492,670.208 227.929,670.798C228.368,671.387 228.929,671.919 229.618,672.393C230.306,672.867 231.112,673.232 232.034,673.487C232.955,673.741 233.95,673.868 235.025,673.868C235.939,673.868 236.783,673.782 237.559,673.608C238.335,673.435 239.128,673.157 239.938,672.769L240.344,671.857L240.167,671.651C239.619,672.019 239.069,672.287 238.514,672.456C237.704,672.704 236.823,672.828 235.875,672.828C233.772,672.828 232.078,672.225 230.795,671.019M219.694,672.428C220.838,671.461 221.41,670.327 221.41,669.026C221.41,668.477 221.308,667.998 221.108,667.587C220.907,667.182 220.652,666.85 220.34,666.597C220.026,666.346 219.545,666.131 218.894,665.944C218.203,665.821 217.423,665.706 216.559,665.599C215.691,665.492 215.069,665.375 214.688,665.251C214.135,665.067 213.75,664.824 213.536,664.519C213.32,664.215 213.212,663.786 213.212,663.229C213.212,662.309 213.511,661.558 214.111,660.98C214.71,660.402 215.513,660.112 216.516,660.112C217.293,660.112 218.037,660.301 218.749,660.683C219.047,660.871 219.283,661.084 219.455,661.318C219.498,661.41 219.53,661.961 219.548,662.967L220.257,662.967C220.277,662.274 220.308,661.749 220.349,661.393C220.391,661.036 220.46,660.651 220.557,660.241C219.955,659.956 219.305,659.74 218.609,659.59C217.916,659.442 217.269,659.367 216.682,659.367C215.705,659.367 214.8,659.557 213.965,659.936C213.131,660.315 212.501,660.847 212.076,661.531C211.648,662.214 211.437,662.94 211.437,663.714C211.437,664.245 211.541,664.738 211.754,665.194C211.963,665.652 212.24,666.022 212.58,666.304C212.918,666.586 213.449,666.829 214.168,667.04C214.707,667.152 215.364,667.254 216.13,667.344C216.9,667.436 217.414,667.502 217.669,667.54C218.077,667.619 218.42,667.755 218.698,667.946C218.977,668.14 219.181,668.395 219.317,668.709C219.45,669.023 219.517,669.394 219.517,669.825C219.517,670.39 219.383,670.917 219.113,671.412C218.845,671.906 218.415,672.304 217.827,672.606C217.237,672.912 216.592,673.065 215.892,673.065C215.418,673.065 214.92,672.988 214.406,672.835C213.896,672.679 213.487,672.505 213.181,672.31C212.877,672.113 212.685,671.928 212.606,671.753C212.524,671.581 212.467,671.017 212.434,670.062L211.728,670.062C211.708,671.467 211.642,672.485 211.531,673.114C212.644,673.624 213.888,673.879 215.26,673.879C217.075,673.879 218.552,673.394 219.694,672.428M204.172,671.682C205.742,670.215 206.528,668.381 206.528,666.178C206.528,665.49 206.449,664.845 206.294,664.245C206.138,663.643 205.928,663.119 205.664,662.674C205.318,662.078 204.846,661.531 204.247,661.03C203.648,660.529 202.881,660.128 201.944,659.823C201.01,659.518 199.971,659.367 198.83,659.367C197.587,659.367 196.489,659.545 195.524,659.902C194.562,660.257 193.699,660.786 192.937,661.485C192.176,662.186 191.632,662.974 191.302,663.851C190.975,664.727 190.809,665.683 190.809,666.717C190.809,667.632 190.979,668.56 191.319,669.498C191.659,670.437 192.151,671.235 192.804,671.892C193.455,672.551 194.251,673.045 195.193,673.379C196.134,673.712 197.149,673.879 198.237,673.879C200.627,673.879 202.606,673.146 204.172,671.682M204.325,666.825C204.325,668.04 204.123,669.114 203.716,670.046C203.311,670.98 202.696,671.703 201.873,672.217C201.049,672.729 200.079,672.985 198.964,672.985C198.162,672.985 197.428,672.859 196.766,672.606C196.106,672.356 195.505,671.964 194.97,671.431C194.432,670.897 193.999,670.239 193.666,669.453C193.463,668.988 193.299,668.436 193.167,667.795C193.036,667.155 192.969,666.523 192.969,665.903C192.969,664.79 193.179,663.793 193.597,662.914C194.018,662.034 194.643,661.361 195.475,660.896C196.302,660.434 197.27,660.199 198.372,660.199C199.133,660.199 199.843,660.313 200.502,660.535C201.16,660.757 201.694,661.03 202.106,661.352C202.518,661.677 202.874,662.056 203.172,662.491C203.468,662.927 203.71,663.412 203.888,663.948C204.18,664.826 204.325,665.785 204.325,666.825M186.243,662.899C186.27,661.468 186.325,660.385 186.407,659.651C185.841,659.678 184.937,659.703 183.697,659.73C181.985,659.769 180.897,659.789 180.427,659.789C179.988,659.789 179.118,659.776 177.807,659.751C176.194,659.71 175.01,659.678 174.254,659.651C174.316,660.254 174.351,661.336 174.36,662.899L175.001,662.899L175.116,661.907C175.178,661.307 175.248,660.951 175.324,660.838C175.373,660.773 175.481,660.729 175.646,660.712C176.173,660.646 176.881,660.612 177.774,660.612L179.322,660.612L179.384,662.271C179.398,662.6 179.407,662.899 179.407,663.173L179.407,668.893C179.38,670.615 179.365,671.544 179.365,671.682C179.344,672.185 179.289,672.501 179.199,672.634C179.136,672.732 179.014,672.808 178.835,672.865C178.656,672.92 178.153,672.954 177.327,672.966L177.327,673.594C179.22,673.544 180.298,673.516 180.572,673.516C181.193,673.516 182.123,673.544 183.363,673.594L183.363,672.966C182.539,672.954 182.039,672.92 181.863,672.865C181.687,672.808 181.56,672.722 181.478,672.603C181.4,672.485 181.35,672.117 181.329,671.494C181.308,670.651 181.297,669.785 181.297,668.893L181.297,663.155C181.297,662.088 181.331,661.242 181.403,660.612L182.668,660.612C183.014,660.612 183.485,660.628 184.081,660.662C184.677,660.694 185.024,660.721 185.119,660.741C185.197,660.76 185.251,660.786 185.29,660.818C185.328,660.851 185.36,660.907 185.378,660.985C185.401,661.064 185.438,661.388 185.494,661.957L185.576,662.899L186.243,662.899Z" style="fill:rgb(31,108,123);fill-rule:nonzero;"/>
        </g>
    </g>
</svg>
