<?xml version="1.0" encoding="UTF-8" standalone="no"?>
<!DOCTYPE svg PUBLIC "-//W3C//DTD SVG 1.1//EN" "http://www.w3.org/Graphics/SVG/1.1/DTD/svg11.dtd">
<svg width="100%" height="100%" viewBox="0 0 1734 329" version="1.1" xmlns="http://www.w3.org/2000/svg" xmlns:xlink="http://www.w3.org/1999/xlink" xml:space="preserve" xmlns:serif="http://www.serif.com/" style="fill-rule:evenodd;clip-rule:evenodd;stroke-linejoin:round;stroke-miterlimit:2;">
    <g transform="matrix(1,0,0,1,-212.868,-620.843)">
        <g>
            <g id="Intersport_logo.svg" transform="matrix(1.69245,0,0,1.69245,1079.4,715.62)">
                <g transform="matrix(1,0,0,1,-512,-56)">
                    <path id="path3875" d="M157.935,3.936C151.615,3.936 146.489,9.062 146.489,15.382L146.489,96.618C146.489,102.938 151.615,108.064 157.935,108.064C164.255,108.064 169.381,102.938 169.381,96.618L169.381,15.382C169.381,9.062 164.255,3.936 157.935,3.936ZM202.988,3.936C193.238,3.936 188.625,7.843 188.625,17.337L188.625,97.079C188.276,100.099 189.322,103.118 191.472,105.268C193.621,107.417 196.631,108.463 199.65,108.114C202.67,108.463 205.69,107.417 207.839,105.268C209.989,103.118 211.035,100.099 210.686,97.079L210.686,39.297L210.996,39.297L250.567,101.96C252.969,106.533 258.05,109.02 263.135,108.114C272.783,108.114 276.686,102.935 276.686,93.852L276.686,14.971C276.686,8.878 271.745,3.936 265.651,3.936C259.558,3.936 254.616,8.878 254.616,14.971L254.616,74.608L214.434,9.94C212.011,5.989 207.615,3.685 202.988,3.936L202.988,3.936ZM296.953,5.74C290.23,5.74 285.096,9.07 285.096,15.382C285.096,21.694 290.384,25.034 296.953,25.034L313.322,25.034L313.322,96.879C313.322,103.199 318.448,108.315 324.768,108.315C331.088,108.315 336.214,103.199 336.214,96.879L336.214,25.034L352.481,25.034C359.204,25.034 364.338,21.694 364.338,15.382C364.338,9.07 359.05,5.74 352.481,5.74L296.953,5.74ZM386.037,5.74C377.775,5.74 372.646,8.867 372.646,19.131L372.646,92.869C372.646,103.082 377.775,106.27 386.037,106.27L437.354,106.27C443.82,106.27 448.951,104.316 448.951,97.029C448.951,89.742 444.077,87.788 437.354,87.788L395.539,87.788L395.539,63.522L430.789,63.522C436.793,63.522 441.564,61.824 441.564,54.742C441.564,47.66 436.793,45.972 430.789,45.972L395.539,45.972L395.539,24.212L436.232,24.212C442.698,24.212 447.828,22.258 447.828,14.971C447.828,7.684 442.954,5.74 436.232,5.74L386.037,5.74ZM472.404,5.74C464.142,5.74 459.014,8.867 459.014,19.131L459.014,96.568C459.014,102.888 464.14,108.014 470.46,108.014C476.78,108.014 481.896,102.888 481.896,96.568L481.896,67.11L500.99,67.11C513.563,67.11 516.796,74.245 516.796,91.847C516.796,95.901 517.774,108.064 530.347,108.064C535.707,108.35 540.381,104.457 541.072,99.134C541.072,94.515 537.995,90.204 537.995,78.607C537.995,68.343 535.883,59.773 524.183,58.08L524.183,57.819C534.839,54.725 541.994,44.738 541.483,33.654C541.483,20.67 534.243,5.74 506.994,5.74L472.404,5.74ZM481.896,23.34L501.912,23.34C511.97,23.34 518.54,25.591 518.54,36.881C518.54,48.171 509.923,50.432 501.25,50.432L481.896,50.432L481.896,23.34Z" style="fill:rgb(227,15,27);fill-rule:nonzero;"/>
                    <path id="path3877" d="M592.85,3.324C573.298,3.324 552.768,11.792 552.768,34.115C552.768,44.892 556.571,56.486 577.355,61.618L603.013,68.193C610.814,69.938 612.756,74.402 612.756,78.456C612.756,85.128 606.188,91.697 594.334,91.697C571.189,91.697 574.378,73.525 561.959,73.525C559.39,73.394 556.878,74.346 555.044,76.151C553.21,77.956 552.218,80.445 552.307,83.017C552.307,94.153 565.288,108.676 594.334,108.676C621.942,108.676 635.648,95.129 635.648,76.963C635.648,65.263 630.315,52.849 609.378,48.077L590.435,43.657C583.404,42.015 575.039,39.504 575.039,32.782C575.039,26.059 580.894,20.925 591.517,20.925C612.865,20.925 610.913,35.859 621.536,35.859C624.114,36.071 626.665,35.218 628.602,33.504C630.539,31.789 631.696,29.363 631.799,26.778C631.799,13.59 610.709,3.324 592.85,3.324ZM775.638,3.376C742.693,3.376 731.918,25.237 731.918,54.693C731.918,85.124 739.716,108.576 775.638,108.576C809.97,108.576 819.368,83.02 819.368,54.693C819.368,25.288 808.584,3.376 775.638,3.376ZM659.052,5.741C650.789,5.741 645.651,8.868 645.651,19.132L645.711,19.132L645.711,96.619C645.711,100.708 647.883,104.488 651.424,106.532C654.965,108.576 659.33,108.576 662.87,106.532C666.411,104.488 668.593,100.708 668.593,96.619L668.593,69.367L690.453,69.367C712.622,69.367 725.353,55.823 725.353,37.554C725.353,15.231 709.798,5.741 690.554,5.741L659.052,5.741ZM928.468,5.741C921.746,5.741 916.611,9.123 916.611,15.383C916.611,21.644 921.747,25.035 928.418,25.035L944.787,25.035L944.787,96.88C944.787,103.2 949.913,108.316 956.233,108.316C962.553,108.316 967.669,103.2 967.669,96.88L967.669,25.035L983.996,25.035C990.719,25.035 995.843,21.695 995.843,15.383C995.843,9.071 990.565,5.741 983.996,5.741L928.468,5.741ZM845.178,5.792C836.915,5.792 831.787,8.92 831.787,19.183L831.787,96.62C831.787,102.941 836.903,108.067 843.223,108.067C849.543,108.067 854.669,102.941 854.669,96.62L854.669,67.163L873.763,67.163C886.336,67.163 889.569,74.298 889.569,91.9C889.569,95.954 890.537,108.117 903.11,108.117C908.47,108.402 913.154,104.509 913.845,99.186C913.845,94.568 910.758,90.257 910.758,78.659C910.758,68.396 908.656,59.826 896.956,58.132L896.956,57.872C907.612,54.777 914.757,44.791 914.246,33.706C914.246,20.723 907.016,5.792 879.767,5.792L845.178,5.792ZM1011.91,6.404C1006.98,6.404 1002.98,10.403 1002.98,15.334C1002.98,20.266 1006.98,24.265 1011.91,24.265C1016.84,24.265 1020.84,20.266 1020.84,15.334C1020.84,10.403 1016.84,6.404 1011.91,6.404ZM1011.86,7.947L1011.91,7.999C1015.95,8.024 1019.22,11.294 1019.25,15.336C1019.22,19.375 1015.93,22.632 1011.89,22.622C1007.85,22.612 1004.58,19.345 1004.57,15.305C1004.56,11.266 1007.82,7.977 1011.86,7.949L1011.86,7.947ZM1007.96,9.992L1007.96,20.256L1009.44,20.256L1009.44,15.745L1012.42,15.745L1014.62,20.155L1016.63,20.155L1014.11,15.435C1015.2,15.255 1016.05,14.427 1016.26,13.35C1016.47,12.273 1015.98,11.179 1015.04,10.613C1014.23,10.152 1013.3,9.932 1012.37,9.992L1007.96,9.992ZM1009.59,11.075L1012.52,11.075C1013.09,11.016 1013.66,11.126 1014.16,11.385C1014.68,11.655 1015,12.189 1014.99,12.768C1014.99,13.282 1014.77,13.769 1014.38,14.101C1013.79,14.555 1013.05,14.755 1012.32,14.663L1009.59,14.663L1009.59,11.075ZM775.638,21.799C794.369,21.799 796.476,35.5 796.476,54.744C796.476,73.989 796.422,90.206 775.638,90.206C754.136,90.206 754.811,73.989 754.811,54.744C754.811,35.5 756.908,21.799 775.638,21.799ZM668.593,23.293L683.989,23.293C695.278,23.293 702.411,27.292 702.411,37.555C702.36,41.644 700.587,45.524 697.53,48.24C694.472,50.955 690.42,52.252 686.354,51.818L668.543,51.818L668.595,51.766L668.593,23.293ZM854.619,23.344L874.685,23.344C884.743,23.344 891.313,25.595 891.313,36.885C891.313,48.175 882.686,50.436 874.013,50.436L854.618,50.436L854.619,23.344Z" style="fill:rgb(17,68,143);fill-rule:nonzero;"/>
                    <path id="path3881" d="M3.161,27.135C3.12,18.013 8.582,9.767 16.997,6.248C25.411,2.729 35.118,4.631 41.582,11.066C48.047,17.501 49.993,27.198 46.512,35.629C43.031,44.06 34.81,49.56 25.689,49.56C13.287,49.56 3.217,39.536 3.161,27.135" style="fill:rgb(227,15,27);fill-rule:nonzero;"/>
                    <path id="path3883" d="M25.689,107.087C24.118,107.021 22.64,106.326 21.588,105.158C20.535,103.989 19.998,102.447 20.096,100.878L20.096,64.134C20.026,62.588 20.578,61.077 21.629,59.94C22.68,58.802 24.142,58.132 25.689,58.079C61.098,58.079 63.921,10.148 114.776,10.148C117.988,10.288 120.486,12.991 120.37,16.204L120.37,52.691C120.486,55.903 117.988,58.607 114.776,58.746C80.086,58.746 77.93,107.036 25.689,107.036" style="fill:rgb(17,68,143);fill-rule:nonzero;"/>
                </g>
            </g>
            <g transform="matrix(3.34672,0,0,3.2323,-1043.1,-2172.92)">
                <path d="M562.57,965.351L542.062,965.351L542.062,932.026L548.386,932.026L548.386,959.907L562.57,959.907L562.57,965.351Z" style="fill:rgb(99,99,99);"/>
                <path d="M589.304,932.026L589.304,953.437C589.304,956.334 588.978,958.564 588.327,960.127C587.676,961.689 586.419,963.036 584.555,964.167C582.691,965.298 580.417,965.864 577.731,965.864C575.013,965.864 572.779,965.376 571.03,964.399C569.28,963.423 568.023,962.084 567.258,960.383C566.493,958.682 566.11,956.513 566.11,953.877L566.11,932.026L572.238,932.026L572.238,953.437C572.238,956.367 572.853,958.292 574.081,959.211C575.31,960.131 576.738,960.591 578.366,960.591C580.238,960.591 581.735,960.098 582.858,959.114C583.981,958.129 584.543,956.237 584.543,953.437L584.543,932.026L589.304,932.026Z" style="fill:rgb(99,99,99);"/>
                <path d="M614.792,953.779L620.358,954.389C620,957.726 618.71,960.473 616.489,962.629C614.267,964.786 611.349,965.864 607.736,965.864C604.693,965.864 602.223,965.099 600.326,963.569C598.43,962.039 596.97,959.964 595.944,957.344C594.919,954.723 594.406,951.834 594.406,948.677C594.406,943.598 595.61,939.468 598.019,936.286C600.428,933.104 603.74,931.513 607.956,931.513C611.26,931.513 614.011,932.531 616.208,934.565C618.405,936.6 619.789,939.513 620.358,943.305L614.792,943.891C613.766,938.862 611.504,936.347 608.005,936.347C605.759,936.347 604.013,937.393 602.768,939.485C601.523,941.576 600.9,944.608 600.9,948.579C600.9,952.615 601.568,955.663 602.902,957.722C604.237,959.781 606.003,960.81 608.2,960.81C609.958,960.81 611.455,960.119 612.692,958.735C613.929,957.352 614.629,955.7 614.792,953.779Z" style="fill:rgb(99,99,99);"/>
                <path d="M651.022,965.351L644.601,965.351L641.94,957.417L629.123,957.417L626.511,965.351L621.384,965.351L632.443,932.026L639.841,932.026L651.022,965.351ZM640.329,952.607L635.471,937.739L630.612,952.607L640.329,952.607Z" style="fill:rgb(99,99,99);"/>
                <path d="M681.003,965.351L674.655,965.351L669.479,951.655L661.032,951.655L661.032,965.351L655.026,965.351L655.026,932.026L669.479,932.026C673.499,932.026 676.454,932.934 678.342,934.748C680.23,936.563 681.174,938.911 681.174,941.792C681.174,946.072 679.172,949.018 675.168,950.63L681.003,965.351ZM661.032,946.845L668.503,946.845C670.667,946.845 672.279,946.39 673.337,945.478C674.395,944.567 674.924,943.314 674.924,941.719C674.924,940.254 674.403,939.07 673.361,938.166C672.319,937.263 670.863,936.811 668.991,936.811L661.032,936.811L661.032,946.845Z" style="fill:rgb(99,99,99);"/>
                <path d="M708.81,965.351L687.155,965.351L687.155,932.026L708.591,932.026L708.591,936.982L693.161,936.982L693.161,946.015L705.563,946.015L705.563,950.849L693.161,950.849L693.161,960.176L708.81,960.176L708.81,965.351Z" style="fill:rgb(99,99,99);"/>
                <path d="M734.494,965.351L713.986,965.351L713.986,932.026L720.309,932.026L720.309,959.907L734.494,959.907L734.494,965.351Z" style="fill:rgb(99,99,99);"/>
                <path d="M759.421,965.351L738.913,965.351L738.913,932.026L745.236,932.026L745.236,959.907L759.421,959.907L759.421,965.351Z" style="fill:rgb(99,99,99);"/>
                <rect x="763.84" y="932.026" width="6.006" height="33.325" style="fill:rgb(99,99,99);"/>
            </g>
        </g>
    </g>
</svg>
