<?xml version="1.0" encoding="UTF-8" standalone="no"?>
<!DOCTYPE svg PUBLIC "-//W3C//DTD SVG 1.1//EN" "http://www.w3.org/Graphics/SVG/1.1/DTD/svg11.dtd">
<svg width="100%" height="100%" viewBox="0 0 2184 795" version="1.1" xmlns="http://www.w3.org/2000/svg" xmlns:xlink="http://www.w3.org/1999/xlink" xml:space="preserve" xmlns:serif="http://www.serif.com/" style="fill-rule:evenodd;clip-rule:evenodd;stroke-miterlimit:3.864;">
    <g transform="matrix(1,0,0,1,-113.152,-1430.65)">
        <g transform="matrix(8.49863,-8.83169,-8.83169,-8.49863,465.077,1491.24)">
            <path d="M-0.513,1.206C0.596,1.394 1.727,1.388 2.835,1.206" style="fill:rgb(112,111,111);fill-rule:nonzero;stroke:rgb(38,140,54);stroke-width:0.07px;"/>
        </g>
        <g transform="matrix(12.2566,0,0,12.2566,442.249,1485.52)">
            <path d="M0,1.084L0.637,0C0.402,0.346 0.192,0.709 0,1.084Z" style="fill:rgb(112,111,111);fill-rule:nonzero;stroke:rgb(230,0,125);stroke-width:0.07px;"/>
        </g>
        <g transform="matrix(12.2566,0,0,12.2566,659.412,1497.17)">
            <path d="M0,-0.514L0.303,0C0.209,-0.176 0.104,-0.344 0,-0.514Z" style="fill:rgb(112,111,111);fill-rule:nonzero;stroke:rgb(230,0,125);stroke-width:0.07px;"/>
        </g>
        <g transform="matrix(12.2566,0,0,12.2566,663.126,1993)">
            <path d="M0,-40.454L-0.303,-40.968C-0.979,-42.075 -1.857,-43.039 -2.89,-43.814C-4.589,-45.087 -6.692,-45.851 -8.978,-45.851C-11.263,-45.851 -13.364,-45.089 -15.062,-43.817C-15.961,-43.144 -16.75,-42.333 -17.384,-41.404L-18.021,-40.32L-44.735,5.397L-24.273,5.397L-8.964,-20.802L6.383,5.397L26.845,5.397L0,-40.454Z" style="fill:white;fill-rule:nonzero;"/>
        </g>
        <g transform="matrix(8.49863,-8.83169,-8.83169,-8.49863,1766.76,1491.24)">
            <path d="M-0.513,1.206C0.596,1.394 1.727,1.388 2.835,1.206" style="fill:rgb(112,111,111);fill-rule:nonzero;stroke:rgb(38,140,54);stroke-width:0.07px;"/>
        </g>
        <g transform="matrix(12.2566,0,0,12.2566,1743.93,1485.52)">
            <path d="M0,1.084L0.637,0C0.401,0.346 0.192,0.709 0,1.084Z" style="fill:rgb(112,111,111);fill-rule:nonzero;stroke:rgb(230,0,125);stroke-width:0.07px;"/>
        </g>
        <g transform="matrix(12.2566,0,0,12.2566,1961.09,1497.17)">
            <path d="M0,-0.514L0.303,0C0.209,-0.176 0.104,-0.344 0,-0.514Z" style="fill:rgb(112,111,111);fill-rule:nonzero;stroke:rgb(230,0,125);stroke-width:0.07px;"/>
        </g>
        <g transform="matrix(12.2566,0,0,12.2566,1964.81,1993)">
            <path d="M0,-40.454L-0.303,-40.968C-0.979,-42.075 -1.857,-43.039 -2.89,-43.814C-4.589,-45.087 -6.692,-45.851 -8.979,-45.851C-11.263,-45.851 -13.364,-45.089 -15.062,-43.817C-15.961,-43.144 -16.75,-42.333 -17.384,-41.404L-18.021,-40.32L-44.735,5.397L-24.273,5.397L-8.964,-20.802L6.383,5.397L26.845,5.397L0,-40.454Z" style="fill:white;fill-rule:nonzero;"/>
        </g>
        <g transform="matrix(12.2566,0,0,12.2566,1094.7,1869.67)">
            <path d="M0,-35.819L-18.136,-17.751L-18.958,-16.93C-20.562,-15.132 -21.545,-12.768 -21.545,-10.169C-21.545,-8.756 -21.256,-7.411 -20.735,-6.188C-19.79,-3.969 -18.074,-2.163 -15.929,-1.086C-15.657,-0.949 -15.378,-0.823 -15.093,-0.711C-13.94,-0.257 -12.689,0 -11.376,0C-11.3,0 -11.227,-0.009 -11.151,-0.011L8.738,-0.011C3.227,-0.132 -1.207,-4.629 -1.207,-10.169C-1.207,-13.135 -0.173,-15.797 1.853,-17.656L20.085,-35.819L0,-35.819Z" style="fill:rgb(0,129,201);fill-rule:nonzero;"/>
        </g>
        <g transform="matrix(12.2566,0,0,12.2566,1314.42,1620.39)">
            <path d="M0,35.819L18.136,17.751L18.958,16.93C20.562,15.132 21.545,12.768 21.545,10.169C21.545,8.756 21.256,7.411 20.735,6.188C19.79,3.969 18.074,2.163 15.929,1.086C15.657,0.949 15.378,0.823 15.093,0.711C13.94,0.257 12.689,0 11.376,0C11.3,0 11.226,0.009 11.151,0.011L-8.738,0.011C-3.227,0.132 1.206,4.629 1.206,10.169C1.206,13.135 0.173,15.797 -1.853,17.656L-20.085,35.819L0,35.819Z" style="fill:rgb(0,129,201);fill-rule:nonzero;"/>
        </g>
        <g transform="matrix(12.2566,0,0,12.2566,166.248,2136.92)">
            <path d="M0,2.496L1.32,2.496L0.936,0.9C0.872,0.66 0.8,0.272 0.72,-0.264L0.6,-0.264L0,2.496ZM-0.588,4.644L-0.852,5.772L-4.332,5.772L-1.188,-3.276L2.448,-3.276L5.676,5.772L2.196,5.772L1.896,4.644L-0.588,4.644Z" style="fill:white;fill-rule:nonzero;"/>
        </g>
        <g transform="matrix(12.2566,0,0,12.2566,241.349,2207.66)">
            <path d="M0,-6.968L6.487,-6.968L3.456,-2.154L3.484,-2.116C3.743,-2.141 3.94,-2.154 4.075,-2.154L6.182,-2.154L6.182,0L-0.601,0L1.913,-4.075C2.024,-4.26 2.23,-4.541 2.532,-4.916L2.495,-4.944C2.261,-4.889 2.061,-4.861 1.895,-4.861L0,-4.861L0,-6.968Z" style="fill:white;fill-rule:nonzero;"/>
        </g>
        <g transform="matrix(12.2566,0,0,12.2566,-2336.72,-5267.03)">
            <rect x="217.437" y="602.88" width="2.532" height="6.968" style="fill:white;"/>
        </g>
        <g transform="matrix(12.2566,0,0,12.2566,373.299,2122.26)">
            <path d="M0,6.968L0,0L4.685,0L4.685,1.904L2.55,1.904L2.55,2.569L4.5,2.569L4.5,4.381L2.55,4.381L2.55,5.064L4.759,5.064L4.759,6.968L0,6.968Z" style="fill:white;fill-rule:nonzero;"/>
        </g>
        <g transform="matrix(12.2566,0,0,12.2566,443.978,2122.26)">
            <path d="M0,6.968L0,0L2.43,0L4.704,3.863L4.777,3.863C4.636,3.05 4.565,2.458 4.565,2.089L4.565,0L6.986,0L6.986,6.968L4.565,6.968L2.338,3.308L2.264,3.308C2.369,3.912 2.421,4.378 2.421,4.704L2.421,6.968L0,6.968Z" style="fill:white;fill-rule:nonzero;"/>
        </g>
        <g transform="matrix(12.2566,0,0,12.2566,574.456,2180.93)">
            <path d="M0,-2.606L0,0.092L0.157,0.092C0.601,0.092 0.959,-0.016 1.233,-0.231C1.508,-0.447 1.645,-0.773 1.645,-1.211C1.645,-2.141 1.149,-2.606 0.157,-2.606L0,-2.606ZM-2.532,2.181L-2.532,-4.787L0.046,-4.787C0.644,-4.787 1.189,-4.719 1.682,-4.584C2.175,-4.448 2.609,-4.24 2.985,-3.96C3.36,-3.68 3.653,-3.305 3.863,-2.837C4.072,-2.369 4.177,-1.824 4.177,-1.202C4.177,-0.179 3.852,0.641 3.202,1.256C2.552,1.873 1.709,2.181 0.674,2.181L-2.532,2.181Z" style="fill:white;fill-rule:nonzero;"/>
        </g>
        <g transform="matrix(12.2566,0,0,12.2566,670.05,2153.18)">
            <path d="M0,1.922L1.016,1.922L0.721,0.693C0.671,0.508 0.616,0.21 0.554,-0.203L0.462,-0.203L0,1.922ZM-0.453,3.576L-0.656,4.445L-3.336,4.445L-0.915,-2.523L1.885,-2.523L4.371,4.445L1.691,4.445L1.46,3.576L-0.453,3.576Z" style="fill:white;fill-rule:nonzero;"/>
        </g>
        <g transform="matrix(12.2566,0,0,12.2566,757.032,2105.14)">
            <path d="M0,7.68L1.008,5.124L1.176,5.256C1.888,5.808 2.572,6.084 3.228,6.084C3.428,6.084 3.618,6.04 3.798,5.952C3.978,5.864 4.068,5.728 4.068,5.544C4.068,5.488 4.062,5.438 4.05,5.394C4.038,5.35 4.012,5.31 3.972,5.274C3.932,5.238 3.902,5.21 3.882,5.19C3.862,5.17 3.818,5.15 3.75,5.13C3.682,5.11 3.638,5.098 3.618,5.094C3.598,5.09 3.548,5.08 3.468,5.064L2.676,4.92C1.98,4.8 1.412,4.538 0.972,4.134C0.532,3.73 0.312,3.192 0.312,2.52C0.312,1.832 0.504,1.228 0.888,0.708C1.272,0.188 1.758,-0.198 2.346,-0.45C2.934,-0.702 3.564,-0.828 4.236,-0.828C5.276,-0.828 6.232,-0.564 7.104,-0.036L6.216,2.28C5.544,1.824 4.908,1.596 4.308,1.596C4.132,1.596 3.97,1.634 3.822,1.71C3.674,1.786 3.6,1.908 3.6,2.076C3.6,2.124 3.606,2.166 3.618,2.202C3.63,2.238 3.654,2.27 3.69,2.298C3.726,2.326 3.756,2.35 3.78,2.37C3.804,2.39 3.844,2.408 3.9,2.424C3.956,2.44 3.996,2.452 4.02,2.46C4.044,2.468 4.086,2.48 4.146,2.496C4.206,2.512 4.244,2.52 4.26,2.52L5.004,2.688C6.604,3.048 7.404,3.912 7.404,5.28C7.404,5.8 7.292,6.27 7.068,6.69C6.844,7.11 6.546,7.45 6.174,7.71C5.802,7.97 5.384,8.168 4.92,8.304C4.456,8.44 3.976,8.508 3.48,8.508C2.248,8.508 1.088,8.232 0,7.68" style="fill:white;fill-rule:nonzero;"/>
        </g>
        <g transform="matrix(12.2566,0,0,12.2566,854.941,2122.26)">
            <path d="M0,6.968L0,0L4.685,0L4.685,1.904L2.55,1.904L2.55,2.569L4.5,2.569L4.5,4.381L2.55,4.381L2.55,5.064L4.759,5.064L4.759,6.968L0,6.968Z" style="fill:white;fill-rule:nonzero;"/>
        </g>
        <g transform="matrix(12.2566,0,0,12.2566,954.263,2184.32)">
            <path d="M0,-3.16L0,-1.977L0.176,-1.977C0.435,-1.977 0.638,-2.015 0.786,-2.093C0.934,-2.17 1.007,-2.325 1.007,-2.559C1.007,-2.806 0.937,-2.968 0.795,-3.045C0.653,-3.121 0.453,-3.16 0.194,-3.16L0,-3.16ZM-2.477,1.904L-2.477,-5.064L0.583,-5.064C1.438,-5.064 2.136,-4.867 2.675,-4.472C3.214,-4.078 3.484,-3.468 3.484,-2.642C3.484,-2.131 3.381,-1.742 3.174,-1.473C2.968,-1.205 2.622,-0.992 2.135,-0.831L2.135,-0.776C2.338,-0.616 2.48,-0.477 2.56,-0.36L4.076,1.904L1.155,1.904L0.046,-0.332L0,-0.332L0,1.904L-2.477,1.904Z" style="fill:white;fill-rule:nonzero;"/>
        </g>
        <g transform="matrix(12.2566,0,0,12.2566,1059.38,2207.66)">
            <path d="M0,-6.968L2.643,-6.968L-0.056,0L-2.2,0L-4.898,-6.968L-2.255,-6.968L-1.331,-3.798C-1.214,-3.404 -1.155,-3.059 -1.155,-2.763L-1.1,-2.763C-1.1,-3.059 -1.042,-3.404 -0.924,-3.798L0,-6.968Z" style="fill:white;fill-rule:nonzero;"/>
        </g>
        <g transform="matrix(12.2566,0,0,12.2566,-2336.72,-5267.03)">
            <rect x="280.233" y="602.88" width="2.532" height="6.968" style="fill:white;"/>
        </g>
        <g transform="matrix(12.2566,0,0,12.2566,1143.08,2207.66)">
            <path d="M0,-6.968L6.487,-6.968L3.456,-2.154L3.484,-2.116C3.743,-2.141 3.94,-2.154 4.075,-2.154L6.182,-2.154L6.182,0L-0.601,0L1.913,-4.075C2.024,-4.26 2.23,-4.541 2.532,-4.916L2.495,-4.944C2.261,-4.889 2.061,-4.861 1.895,-4.861L0,-4.861L0,-6.968Z" style="fill:white;fill-rule:nonzero;"/>
        </g>
        <g transform="matrix(12.2566,0,0,12.2566,-2336.72,-5267.03)">
            <rect x="290.934" y="602.88" width="2.532" height="6.968" style="fill:white;"/>
        </g>
        <g transform="matrix(12.2566,0,0,12.2566,1349.45,2136.92)">
            <path d="M0,2.496L1.32,2.496L0.936,0.9C0.872,0.66 0.8,0.272 0.72,-0.264L0.6,-0.264L0,2.496ZM-0.588,4.644L-0.852,5.772L-4.332,5.772L-1.188,-3.276L2.448,-3.276L5.676,5.772L2.196,5.772L1.896,4.644L-0.588,4.644Z" style="fill:white;fill-rule:nonzero;"/>
        </g>
        <g transform="matrix(12.2566,0,0,12.2566,1421.8,2122.26)">
            <path d="M0,6.968L1.127,0L3.733,0L4.694,3.66L4.759,3.66C4.827,3.229 4.885,2.921 4.935,2.736L5.72,0L8.298,0L9.444,6.968L6.995,6.968L6.653,3.152L6.607,3.152C6.545,3.472 6.49,3.703 6.441,3.844L5.434,6.968L3.955,6.968L3.049,4.02C2.957,3.656 2.905,3.367 2.892,3.152L2.809,3.152C2.785,3.54 2.763,3.82 2.745,3.992L2.449,6.968L0,6.968Z" style="fill:white;fill-rule:nonzero;"/>
        </g>
        <g transform="matrix(12.2566,0,0,12.2566,1575.61,2156.8)">
            <path d="M0,1.331L0,2.486L0.286,2.486C0.428,2.486 0.542,2.481 0.628,2.472C0.714,2.463 0.818,2.443 0.938,2.412C1.058,2.381 1.149,2.323 1.21,2.236C1.272,2.15 1.303,2.039 1.303,1.904C1.303,1.768 1.271,1.658 1.206,1.571C1.141,1.485 1.044,1.426 0.915,1.395C0.785,1.365 0.681,1.346 0.601,1.34C0.521,1.334 0.403,1.331 0.25,1.331L0,1.331ZM0,-0.139L0.231,-0.139C0.385,-0.139 0.511,-0.146 0.61,-0.162C0.708,-0.177 0.801,-0.226 0.887,-0.31C0.973,-0.393 1.016,-0.508 1.016,-0.656C1.016,-0.749 1,-0.827 0.965,-0.892C0.932,-0.956 0.895,-1.004 0.854,-1.035C0.814,-1.065 0.751,-1.09 0.665,-1.109C0.579,-1.127 0.513,-1.136 0.466,-1.136L0,-1.136L0,-0.139ZM-2.347,4.149L-2.347,-2.818L0.601,-2.818C2.418,-2.818 3.327,-2.174 3.327,-0.887C3.327,-0.566 3.247,-0.275 3.086,-0.014C2.926,0.248 2.701,0.425 2.412,0.518L2.412,0.573C2.8,0.708 3.103,0.916 3.322,1.197C3.541,1.477 3.65,1.821 3.65,2.227C3.65,2.572 3.576,2.873 3.428,3.128C3.28,3.384 3.08,3.584 2.828,3.729C2.575,3.873 2.304,3.98 2.014,4.048C1.725,4.116 1.42,4.149 1.1,4.149L-2.347,4.149Z" style="fill:white;fill-rule:nonzero;"/>
        </g>
        <g transform="matrix(12.2566,0,0,12.2566,-2336.72,-5267.03)">
            <rect x="323.618" y="602.88" width="2.532" height="6.968" style="fill:white;"/>
        </g>
        <g transform="matrix(12.2566,0,0,12.2566,1673.81,2122.26)">
            <path d="M0,6.968L0,0L4.685,0L4.685,1.904L2.55,1.904L2.55,2.569L4.5,2.569L4.5,4.381L2.55,4.381L2.55,5.064L4.759,5.064L4.759,6.968L0,6.968Z" style="fill:white;fill-rule:nonzero;"/>
        </g>
        <g transform="matrix(12.2566,0,0,12.2566,1743.58,2122.26)">
            <path d="M0,6.968L0,0L2.43,0L4.704,3.863L4.777,3.863C4.636,3.05 4.565,2.458 4.565,2.089L4.565,0L6.986,0L6.986,6.968L4.565,6.968L2.338,3.308L2.264,3.308C2.369,3.912 2.421,4.378 2.421,4.704L2.421,6.968L0,6.968Z" style="fill:white;fill-rule:nonzero;"/>
        </g>
        <g transform="matrix(12.2566,0,0,12.2566,1836,2179.92)">
            <path d="M0,-2.44L0,-4.704L5.323,-4.704L5.323,-2.44L3.928,-2.505L3.928,2.264L1.396,2.264L1.396,-2.505L0,-2.44Z" style="fill:white;fill-rule:nonzero;"/>
        </g>
        <g transform="matrix(12.2566,0,0,12.2566,1932.62,2153.18)">
            <path d="M0,1.922L1.016,1.922L0.721,0.693C0.671,0.508 0.616,0.21 0.554,-0.203L0.462,-0.203L0,1.922ZM-0.453,3.576L-0.656,4.445L-3.336,4.445L-0.915,-2.523L1.885,-2.523L4.371,4.445L1.691,4.445L1.46,3.576L-0.453,3.576Z" style="fill:white;fill-rule:nonzero;"/>
        </g>
        <g transform="matrix(12.2566,0,0,12.2566,1991.74,2122.26)">
            <path d="M0,6.968L0,0L2.532,0L2.532,4.732L4.658,4.732L4.658,6.968L0,6.968Z" style="fill:white;fill-rule:nonzero;"/>
        </g>
        <g transform="matrix(12.2566,0,0,12.2566,-2336.72,-5267.03)">
            <rect x="358.447" y="602.88" width="2.532" height="6.968" style="fill:white;"/>
        </g>
        <g transform="matrix(12.2566,0,0,12.2566,2118.97,2150.42)">
            <path d="M0,4.288L0.562,2.861L0.656,2.934C1.054,3.243 1.436,3.397 1.802,3.397C1.914,3.397 2.02,3.372 2.12,3.323C2.221,3.274 2.271,3.198 2.271,3.095C2.271,3.064 2.268,3.036 2.261,3.012C2.254,2.987 2.24,2.965 2.217,2.945C2.195,2.925 2.178,2.909 2.167,2.898C2.156,2.887 2.131,2.875 2.094,2.864C2.056,2.853 2.031,2.847 2.02,2.844C2.009,2.842 1.98,2.836 1.936,2.828L1.862,2.814L1.494,2.747C1.105,2.68 0.788,2.534 0.542,2.308C0.297,2.082 0.174,1.782 0.174,1.407C0.174,1.023 0.281,0.685 0.496,0.395C0.71,0.105 0.981,-0.11 1.31,-0.252C1.638,-0.392 1.99,-0.462 2.365,-0.462C2.945,-0.462 3.479,-0.315 3.966,-0.02L3.47,1.273C3.095,1.018 2.74,0.891 2.405,0.891C2.307,0.891 2.216,0.913 2.134,0.955C2.051,0.997 2.01,1.065 2.01,1.159C2.01,1.186 2.013,1.209 2.02,1.229C2.026,1.249 2.04,1.267 2.06,1.283C2.08,1.299 2.097,1.312 2.11,1.323C2.124,1.334 2.146,1.345 2.177,1.353C2.208,1.362 2.231,1.369 2.244,1.373C2.258,1.378 2.281,1.385 2.314,1.393C2.348,1.403 2.369,1.407 2.378,1.407L2.794,1.501C3.687,1.702 4.134,2.184 4.134,2.948C4.134,3.238 4.071,3.501 3.946,3.735C3.821,3.97 3.655,4.16 3.447,4.305C3.239,4.45 3.006,4.56 2.747,4.636C2.488,4.712 2.22,4.75 1.943,4.75C1.255,4.75 0.607,4.596 0,4.288" style="fill:white;fill-rule:nonzero;"/>
        </g>
        <g transform="matrix(12.2566,0,0,12.2566,2200.34,2209.05)">
            <path d="M0,-2.398C-0.139,-2.398 -0.247,-2.349 -0.325,-2.251C-0.403,-2.152 -0.442,-2.034 -0.442,-1.896C-0.442,-1.752 -0.403,-1.632 -0.325,-1.534C-0.247,-1.436 -0.139,-1.386 0,-1.386C0.129,-1.386 0.237,-1.441 0.322,-1.55C0.406,-1.66 0.449,-1.779 0.449,-1.909C0.449,-2.039 0.405,-2.152 0.318,-2.251C0.231,-2.349 0.125,-2.398 0,-2.398M-0.442,-3.671L-0.496,-3.108L-0.442,-3.108C-0.349,-3.305 -0.198,-3.461 0.01,-3.577C0.218,-3.693 0.437,-3.752 0.67,-3.752C1.139,-3.752 1.503,-3.568 1.762,-3.202C2.021,-2.835 2.151,-2.409 2.151,-1.922C2.151,-1.632 2.096,-1.345 1.986,-1.062C1.877,-0.778 1.705,-0.535 1.471,-0.335C1.236,-0.133 0.965,-0.033 0.657,-0.033C0.456,-0.033 0.253,-0.085 0.05,-0.19C-0.153,-0.295 -0.302,-0.433 -0.396,-0.603L-0.442,-0.603L-0.362,-0.033L-0.362,1.354L-2.09,1.354L-2.09,-3.671L-0.442,-3.671Z" style="fill:white;fill-rule:nonzero;"/>
        </g>
        <g transform="matrix(12.2566,0,0,12.2566,2257.5,2168.16)">
            <path d="M0,1.394L0.737,1.394L0.522,0.503C0.487,0.369 0.447,0.152 0.402,-0.147L0.335,-0.147L0,1.394ZM-0.328,2.593L-0.476,3.223L-2.418,3.223L-0.663,-1.829L1.367,-1.829L3.169,3.223L1.226,3.223L1.059,2.593L-0.328,2.593Z" style="fill:white;fill-rule:nonzero;"/>
        </g>
    </g>
</svg>
