<?xml version="1.0" encoding="UTF-8" standalone="no"?>
<!DOCTYPE svg PUBLIC "-//W3C//DTD SVG 1.1//EN" "http://www.w3.org/Graphics/SVG/1.1/DTD/svg11.dtd">
<svg width="100%" height="100%" viewBox="0 0 1482 368" version="1.1" xmlns="http://www.w3.org/2000/svg" xmlns:xlink="http://www.w3.org/1999/xlink" xml:space="preserve" xmlns:serif="http://www.serif.com/" style="fill-rule:evenodd;clip-rule:evenodd;stroke-linejoin:round;stroke-miterlimit:2;">
    <g transform="matrix(1.33333,0,0,1.33333,-1274.72,-560.637)">
        <g transform="matrix(0.392771,0,0,0.392771,785.135,350.957)">
            <g transform="matrix(12.5563,0,0,12.5563,762.745,336.05)">
                <path d="M0,30.623C-8.459,29.583 -14.465,21.875 -13.424,13.424C-12.383,4.975 -4.685,-1.041 3.773,0.001C6.889,0.384 9.67,1.674 11.891,3.571L17.95,-1.068C17.245,-1.759 16.496,-2.408 15.704,-3.011L18.734,-7.02C16.803,-8.491 14.678,-9.702 12.38,-10.633L10.49,-5.964C8.674,-6.695 6.73,-7.207 4.692,-7.458L5.308,-12.453C2.82,-12.76 0.369,-12.73 -1.994,-12.405L-1.293,-7.417C-3.305,-7.131 -5.244,-6.59 -7.07,-5.817L-9.035,-10.441C-11.294,-9.489 -13.406,-8.245 -15.327,-6.74L-12.23,-2.774C-13.8,-1.541 -15.215,-0.111 -16.428,1.496L-20.453,-1.536C-21.906,0.388 -23.127,2.528 -24.05,4.812L-19.382,6.703C-20.12,8.525 -20.632,10.462 -20.883,12.506L-25.879,11.89C-26.185,14.379 -26.155,16.821 -25.823,19.201L-20.836,18.5C-20.556,20.512 -20.016,22.449 -19.234,24.268L-23.875,26.233C-22.914,28.492 -21.664,30.613 -20.166,32.525L-16.199,29.428C-14.968,31.005 -13.535,32.413 -11.931,33.634L-14.96,37.643C-13.03,39.114 -10.904,40.326 -8.607,41.257L-6.716,36.588C-4.9,37.319 -2.956,37.83 -0.919,38.081L-1.535,43.077C0.954,43.383 3.405,43.354 5.768,43.028L5.067,38.041C7.079,37.755 9.017,37.214 10.842,36.441L12.808,41.065C15.067,40.113 17.18,38.869 19.1,37.364L16.004,33.397C16.852,32.731 17.65,32.003 18.4,31.226L13.09,25.916C9.836,29.347 5.055,31.247 0,30.623" style="fill:rgb(56,60,63);fill-rule:nonzero;"/>
            </g>
            <g transform="matrix(12.5563,0,0,12.5563,690.736,501.659)">
                <path d="M0,4.245L-2.446,4.245L-3.67,2.128L-2.445,0.011L-0.001,0.008L1.226,2.128L0,4.245ZM26.752,4.231C25.634,4.232 24.728,3.289 24.728,2.123C24.728,0.96 25.634,0.019 26.749,0.016L29.917,0.016C29.14,-1.542 27.537,-2.627 25.677,-2.63C23.972,-2.63 22.497,-1.728 21.653,-0.379L1.648,-0.379C0.949,-1.187 -0.07,-1.707 -1.22,-1.707C-3.336,-1.707 -5.052,0.011 -5.05,2.125C-5.05,4.238 -3.336,5.949 -1.222,5.952C-0.073,5.952 0.946,5.43 1.648,4.627L21.653,4.627C22.497,5.973 23.972,6.873 25.68,6.875C27.537,6.875 29.137,5.789 29.919,4.231L26.752,4.231Z" style="fill:rgb(56,60,63);fill-rule:nonzero;"/>
            </g>
        </g>
        <g transform="matrix(7.4125,0,0,7.4125,947.342,-64.0088)">
            <path d="M79.602,87.976C79.733,87.956 79.844,87.943 79.934,87.938C80.025,87.932 80.118,87.929 80.213,87.929C80.314,87.929 80.419,87.932 80.53,87.938C80.641,87.943 80.766,87.956 80.907,87.976L79.61,92.151C79.534,92.163 79.437,92.175 79.319,92.186C79.201,92.198 79.071,92.204 78.931,92.204C78.79,92.204 78.653,92.197 78.519,92.183C78.386,92.17 78.297,92.159 78.252,92.151L77.535,89.73L76.773,92.151C76.728,92.159 76.643,92.17 76.52,92.183C76.397,92.197 76.265,92.204 76.124,92.204C75.983,92.204 75.857,92.198 75.747,92.186C75.636,92.175 75.543,92.163 75.468,92.151L74.193,87.981C74.333,87.962 74.469,87.948 74.6,87.94C74.731,87.933 74.846,87.929 74.947,87.929C75.043,87.929 75.142,87.932 75.245,87.938C75.348,87.943 75.465,87.956 75.596,87.976L76.222,90.648C76.348,90.219 76.474,89.772 76.599,89.306C76.725,88.84 76.848,88.397 76.969,87.976C77.06,87.964 77.16,87.953 77.271,87.943C77.381,87.934 77.495,87.929 77.61,87.929C77.711,87.929 77.814,87.934 77.92,87.943C78.025,87.953 78.116,87.964 78.191,87.976L78.976,90.677L79.602,87.976Z" style="fill:rgb(56,60,63);fill-rule:nonzero;"/>
            <path d="M84.242,89.976C84.242,90.112 84.219,90.264 84.174,90.432L82.718,90.432L82.718,91.262L84.612,91.262C84.657,91.426 84.68,91.574 84.68,91.707C84.68,91.851 84.657,92.005 84.612,92.169L81.383,92.169L81.383,87.964L84.566,87.964C84.587,88.05 84.602,88.13 84.612,88.204C84.622,88.278 84.627,88.348 84.627,88.414C84.627,88.543 84.607,88.697 84.566,88.876L82.718,88.876L82.718,89.519L84.174,89.519C84.219,89.691 84.242,89.843 84.242,89.976Z" style="fill:rgb(56,60,63);fill-rule:nonzero;"/>
            <path d="M89.176,90.941C89.176,91.198 89.116,91.41 88.995,91.578C88.874,91.746 88.708,91.878 88.497,91.976C88.286,92.073 88.034,92.141 87.743,92.18C87.451,92.219 87.134,92.239 86.792,92.239C86.52,92.239 86.277,92.231 86.06,92.215C85.844,92.2 85.61,92.18 85.359,92.157L85.359,87.976C85.55,87.952 85.758,87.933 85.985,87.917C86.211,87.901 86.475,87.894 86.777,87.894C87.064,87.894 87.332,87.912 87.581,87.949C87.829,87.986 88.047,88.049 88.233,88.136C88.419,88.224 88.566,88.341 88.674,88.487C88.783,88.633 88.837,88.818 88.837,89.04C88.837,89.223 88.784,89.39 88.678,89.54C88.573,89.69 88.439,89.806 88.278,89.888C88.394,89.923 88.506,89.969 88.614,90.025C88.722,90.082 88.818,90.152 88.901,90.236C88.984,90.32 89.05,90.42 89.101,90.537C89.151,90.654 89.176,90.789 89.176,90.941ZM86.664,90.403L86.664,91.385C86.699,91.389 86.743,91.392 86.796,91.394C86.849,91.396 86.918,91.397 87.003,91.397C87.099,91.397 87.196,91.389 87.294,91.373C87.392,91.358 87.481,91.331 87.562,91.294C87.642,91.257 87.706,91.207 87.754,91.142C87.802,91.078 87.826,90.997 87.826,90.9C87.826,90.712 87.746,90.583 87.588,90.511C87.43,90.439 87.225,90.403 86.973,90.403L86.664,90.403ZM86.664,89.572L86.875,89.572C87.091,89.572 87.26,89.538 87.381,89.47C87.501,89.402 87.562,89.284 87.562,89.116C87.562,89.034 87.54,88.966 87.498,88.911C87.455,88.857 87.401,88.814 87.335,88.783C87.27,88.751 87.197,88.73 87.117,88.718C87.036,88.707 86.958,88.701 86.883,88.701L86.773,88.701C86.73,88.701 86.694,88.703 86.664,88.707L86.664,89.572Z" style="fill:rgb(56,60,63);fill-rule:nonzero;"/>
            <path d="M91.387,90.572C91.387,90.44 91.409,90.291 91.455,90.128L93.477,90.128C93.502,90.21 93.518,90.287 93.526,90.359C93.533,90.431 93.537,90.5 93.537,90.566C93.537,90.633 93.533,90.703 93.526,90.777C93.518,90.851 93.502,90.929 93.477,91.011L91.455,91.011C91.409,90.847 91.387,90.701 91.387,90.572Z" style="fill:rgb(56,60,63);fill-rule:nonzero;"/>
            <path d="M98.788,89.894C98.924,89.878 99.045,89.866 99.15,89.859C99.256,89.851 99.354,89.847 99.444,89.847C99.53,89.847 99.633,89.851 99.754,89.859C99.875,89.866 99.993,89.878 100.108,89.894L100.108,92.022C99.812,92.108 99.519,92.165 99.229,92.192C98.94,92.219 98.693,92.233 98.486,92.233C98.044,92.233 97.656,92.179 97.324,92.072C96.992,91.965 96.715,91.816 96.491,91.625C96.267,91.434 96.1,91.206 95.989,90.941C95.878,90.675 95.823,90.387 95.823,90.075C95.823,89.763 95.881,89.474 95.997,89.207C96.112,88.94 96.279,88.709 96.498,88.514C96.717,88.319 96.987,88.167 97.309,88.057C97.631,87.948 97.996,87.894 98.403,87.894C98.645,87.894 98.875,87.907 99.094,87.935C99.312,87.962 99.553,88.018 99.814,88.104C99.804,88.264 99.766,88.42 99.701,88.572C99.636,88.724 99.568,88.853 99.497,88.958C99.397,88.931 99.305,88.907 99.222,88.888C99.139,88.868 99.06,88.853 98.984,88.841C98.909,88.829 98.833,88.821 98.758,88.815C98.682,88.809 98.602,88.806 98.516,88.806C98.109,88.806 97.795,88.912 97.573,89.125C97.352,89.337 97.241,89.654 97.241,90.075C97.241,90.492 97.35,90.803 97.566,91.008C97.782,91.213 98.104,91.315 98.532,91.315C98.627,91.315 98.713,91.309 98.788,91.297L98.788,89.894Z" style="fill:rgb(56,60,63);fill-rule:nonzero;"/>
            <path d="M100.938,87.976C101.185,87.956 101.412,87.938 101.621,87.92C101.83,87.902 102.05,87.894 102.281,87.894C102.558,87.894 102.834,87.914 103.111,87.955C103.388,87.996 103.634,88.067 103.851,88.169C104.067,88.27 104.243,88.408 104.379,88.584C104.514,88.759 104.582,88.981 104.582,89.25C104.582,89.395 104.561,89.524 104.518,89.639C104.475,89.754 104.42,89.857 104.352,89.946C104.284,90.036 104.209,90.114 104.126,90.18C104.043,90.247 103.961,90.303 103.881,90.35L105.058,92.151C104.937,92.167 104.805,92.178 104.662,92.186C104.518,92.194 104.389,92.198 104.273,92.198C104.172,92.198 104.055,92.194 103.922,92.186C103.789,92.178 103.672,92.167 103.571,92.151L102.5,90.239L102.568,90.21C102.628,90.186 102.695,90.147 102.768,90.093C102.841,90.038 102.909,89.973 102.972,89.897C103.034,89.821 103.087,89.736 103.13,89.642C103.173,89.549 103.194,89.451 103.194,89.35C103.194,89.155 103.124,89.013 102.983,88.923C102.842,88.833 102.669,88.788 102.462,88.788C102.412,88.788 102.369,88.79 102.334,88.794C102.299,88.798 102.276,88.802 102.266,88.806L102.266,92.151C102,92.186 101.781,92.204 101.61,92.204C101.424,92.204 101.2,92.186 100.938,92.151L100.938,87.976Z" style="fill:rgb(56,60,63);fill-rule:nonzero;"/>
            <path d="M106.476,92.157C106.36,92.173 106.255,92.184 106.159,92.192C106.064,92.2 105.971,92.204 105.88,92.204C105.789,92.204 105.685,92.199 105.567,92.189C105.449,92.179 105.317,92.165 105.171,92.145L106.861,87.97C106.992,87.958 107.114,87.948 107.227,87.94C107.34,87.933 107.454,87.929 107.57,87.929C107.666,87.929 107.77,87.933 107.883,87.94C107.996,87.948 108.126,87.958 108.272,87.97L109.939,92.151C109.652,92.186 109.401,92.204 109.185,92.204C109.084,92.204 108.983,92.2 108.883,92.192C108.782,92.184 108.674,92.173 108.558,92.157L108.272,91.344C108.131,91.375 107.996,91.399 107.868,91.414C107.74,91.43 107.613,91.438 107.487,91.438C107.371,91.438 107.253,91.431 107.132,91.417C107.012,91.404 106.886,91.383 106.755,91.356L106.476,92.157ZM107.532,89.069L107.027,90.572C107.112,90.592 107.193,90.607 107.268,90.619C107.344,90.631 107.422,90.636 107.502,90.636C107.588,90.636 107.672,90.632 107.755,90.622C107.838,90.612 107.925,90.597 108.015,90.578L107.532,89.069Z" style="fill:rgb(56,60,63);fill-rule:nonzero;"/>
            <path d="M111.735,89.952C111.76,89.96 111.803,89.966 111.863,89.97C111.923,89.974 111.986,89.976 112.052,89.976C112.268,89.976 112.444,89.927 112.58,89.829C112.715,89.732 112.783,89.584 112.783,89.385C112.783,89.268 112.762,89.17 112.719,89.09C112.676,89.01 112.617,88.945 112.542,88.897C112.466,88.848 112.378,88.814 112.278,88.794C112.177,88.775 112.072,88.765 111.961,88.765L111.855,88.765C111.815,88.765 111.775,88.767 111.735,88.771L111.735,89.952ZM110.429,87.976C110.545,87.964 110.722,87.947 110.961,87.926C111.2,87.904 111.501,87.894 111.863,87.894C112.129,87.894 112.399,87.913 112.67,87.952C112.942,87.991 113.187,88.064 113.406,88.171C113.625,88.279 113.802,88.43 113.938,88.625C114.073,88.82 114.141,89.073 114.141,89.385C114.141,89.662 114.087,89.892 113.979,90.075C113.871,90.258 113.728,90.404 113.549,90.514C113.371,90.623 113.167,90.701 112.938,90.748C112.709,90.794 112.474,90.818 112.233,90.818C112.137,90.818 112.04,90.815 111.942,90.809C111.844,90.803 111.775,90.796 111.735,90.789L111.735,92.151C111.604,92.171 111.486,92.184 111.38,92.192C111.274,92.2 111.176,92.204 111.086,92.204C110.91,92.204 110.691,92.186 110.429,92.151L110.429,87.976Z" style="fill:rgb(56,60,63);fill-rule:nonzero;"/>
            <path d="M118.185,92.204C117.999,92.204 117.775,92.186 117.514,92.151L117.514,90.443L116.178,90.443L116.178,92.151C115.912,92.186 115.691,92.204 115.514,92.204C115.328,92.204 115.105,92.186 114.843,92.151L114.843,87.976C114.979,87.96 115.102,87.948 115.213,87.94C115.323,87.933 115.421,87.929 115.507,87.929C115.597,87.929 115.699,87.933 115.813,87.94C115.926,87.948 116.048,87.96 116.178,87.976L116.178,89.525L117.514,89.525L117.514,87.976C117.65,87.96 117.772,87.948 117.88,87.94C117.988,87.933 118.087,87.929 118.178,87.929C118.268,87.929 118.37,87.933 118.483,87.94C118.596,87.948 118.718,87.96 118.849,87.976L118.849,92.151C118.583,92.186 118.361,92.204 118.185,92.204Z" style="fill:rgb(56,60,63);fill-rule:nonzero;"/>
            <path d="M121.279,90.572C121.279,90.44 121.301,90.291 121.346,90.128L123.368,90.128C123.394,90.21 123.41,90.287 123.418,90.359C123.425,90.431 123.429,90.5 123.429,90.566C123.429,90.633 123.425,90.703 123.418,90.777C123.41,90.851 123.394,90.929 123.368,91.011L121.346,91.011C121.301,90.847 121.279,90.701 121.279,90.572Z" style="fill:rgb(56,60,63);fill-rule:nonzero;"/>
            <path d="M127.971,89.601C128.182,89.668 128.372,89.735 128.54,89.803C128.709,89.871 128.853,89.953 128.974,90.049C129.095,90.144 129.188,90.259 129.253,90.394C129.319,90.528 129.351,90.691 129.351,90.882C129.351,91.089 129.305,91.275 129.212,91.441C129.119,91.606 128.982,91.749 128.801,91.868C128.62,91.986 128.397,92.078 128.133,92.142C127.869,92.207 127.566,92.239 127.224,92.239C126.912,92.239 126.637,92.219 126.398,92.18C126.159,92.141 125.901,92.081 125.624,91.999C125.644,91.863 125.68,91.717 125.73,91.563C125.78,91.409 125.841,91.252 125.911,91.093C126.374,91.249 126.776,91.327 127.118,91.327C127.375,91.327 127.575,91.296 127.718,91.236C127.861,91.175 127.933,91.071 127.933,90.923C127.933,90.861 127.918,90.807 127.888,90.762C127.858,90.717 127.817,90.679 127.767,90.648C127.717,90.617 127.66,90.591 127.597,90.569C127.534,90.548 127.47,90.527 127.405,90.508L126.982,90.385C126.801,90.334 126.637,90.274 126.488,90.204C126.34,90.134 126.213,90.051 126.107,89.955C126.002,89.86 125.92,89.749 125.862,89.625C125.804,89.5 125.775,89.354 125.775,89.186C125.775,88.979 125.82,88.796 125.911,88.636C126.002,88.477 126.129,88.341 126.292,88.23C126.455,88.119 126.653,88.035 126.884,87.978C127.116,87.922 127.375,87.894 127.661,87.894C127.918,87.894 128.166,87.913 128.405,87.952C128.643,87.991 128.899,88.048 129.17,88.122C129.15,88.247 129.114,88.384 129.061,88.534C129.008,88.684 128.941,88.825 128.861,88.958C128.73,88.915 128.577,88.87 128.401,88.824C128.225,88.777 128.006,88.753 127.744,88.753C127.664,88.753 127.587,88.759 127.514,88.771C127.441,88.783 127.376,88.801 127.318,88.826C127.26,88.852 127.214,88.887 127.179,88.932C127.143,88.977 127.126,89.032 127.126,89.098C127.126,89.211 127.173,89.295 127.269,89.35C127.365,89.404 127.478,89.451 127.609,89.49L127.971,89.601Z" style="fill:rgb(56,60,63);fill-rule:nonzero;"/>
            <path d="M129.882,90.081C129.882,89.769 129.929,89.48 130.022,89.212C130.115,88.945 130.258,88.714 130.452,88.519C130.646,88.324 130.892,88.171 131.191,88.06C131.491,87.949 131.846,87.894 132.259,87.894C132.671,87.894 133.026,87.949 133.323,88.06C133.619,88.171 133.865,88.324 134.058,88.519C134.252,88.714 134.395,88.945 134.488,89.212C134.581,89.48 134.628,89.769 134.628,90.081C134.628,90.393 134.581,90.68 134.488,90.944C134.395,91.207 134.252,91.435 134.058,91.628C133.865,91.821 133.619,91.971 133.323,92.078C133.026,92.185 132.671,92.239 132.259,92.239C131.846,92.239 131.491,92.185 131.191,92.078C130.892,91.971 130.646,91.821 130.452,91.628C130.258,91.435 130.115,91.207 130.022,90.944C129.929,90.68 129.882,90.393 129.882,90.081ZM133.225,90.081C133.225,89.231 132.905,88.806 132.266,88.806C131.613,88.806 131.286,89.231 131.286,90.081C131.286,90.506 131.365,90.823 131.523,91.031C131.682,91.24 131.927,91.344 132.259,91.344C132.903,91.344 133.225,90.923 133.225,90.081Z" style="fill:rgb(56,60,63);fill-rule:nonzero;"/>
            <path d="M136.657,90.075C136.657,90.902 137.105,91.315 138,91.315C138.161,91.315 138.313,91.303 138.457,91.28C138.6,91.256 138.775,91.217 138.981,91.163C139.147,91.444 139.258,91.732 139.313,92.028C139.167,92.071 139.031,92.106 138.906,92.134C138.78,92.161 138.659,92.181 138.544,92.195C138.428,92.209 138.313,92.218 138.2,92.224C138.087,92.23 137.97,92.233 137.849,92.233C137.422,92.233 137.046,92.179 136.721,92.072C136.397,91.965 136.125,91.816 135.907,91.625C135.688,91.434 135.523,91.206 135.412,90.941C135.302,90.675 135.247,90.387 135.247,90.075C135.247,89.763 135.304,89.474 135.42,89.207C135.536,88.94 135.703,88.709 135.922,88.514C136.141,88.319 136.411,88.167 136.733,88.057C137.055,87.948 137.419,87.894 137.827,87.894C138.068,87.894 138.297,87.907 138.513,87.935C138.73,87.962 138.971,88.016 139.238,88.098C139.228,88.258 139.19,88.413 139.124,88.563C139.059,88.713 138.991,88.845 138.921,88.958C138.82,88.931 138.728,88.907 138.645,88.888C138.562,88.868 138.483,88.853 138.408,88.841C138.332,88.829 138.257,88.821 138.181,88.815C138.106,88.809 138.025,88.806 137.94,88.806C137.533,88.806 137.217,88.912 136.993,89.125C136.769,89.337 136.657,89.654 136.657,90.075Z" style="fill:rgb(56,60,63);fill-rule:nonzero;"/>
            <path d="M140.656,92.204C140.47,92.204 140.246,92.186 139.985,92.151L139.985,87.976C140.12,87.96 140.244,87.948 140.354,87.94C140.465,87.933 140.563,87.929 140.648,87.929C140.739,87.929 140.841,87.933 140.954,87.94C141.067,87.948 141.189,87.96 141.32,87.976L141.32,92.151C141.053,92.186 140.832,92.204 140.656,92.204Z" style="fill:rgb(56,60,63);fill-rule:nonzero;"/>
            <path d="M143.116,92.157C143,92.173 142.894,92.184 142.799,92.192C142.703,92.2 142.61,92.204 142.52,92.204C142.429,92.204 142.325,92.199 142.206,92.189C142.088,92.179 141.956,92.165 141.81,92.145L143.5,87.97C143.631,87.958 143.753,87.948 143.866,87.94C143.979,87.933 144.094,87.929 144.21,87.929C144.305,87.929 144.409,87.933 144.523,87.94C144.636,87.948 144.765,87.958 144.911,87.97L146.579,92.151C146.292,92.186 146.04,92.204 145.824,92.204C145.723,92.204 145.623,92.2 145.522,92.192C145.422,92.184 145.314,92.173 145.198,92.157L144.911,91.344C144.77,91.375 144.636,91.399 144.508,91.414C144.379,91.43 144.252,91.438 144.127,91.438C144.011,91.438 143.893,91.431 143.772,91.417C143.651,91.404 143.525,91.383 143.395,91.356L143.116,92.157ZM144.172,89.069L143.666,90.572C143.752,90.592 143.832,90.607 143.908,90.619C143.983,90.631 144.061,90.636 144.142,90.636C144.227,90.636 144.311,90.632 144.394,90.622C144.477,90.612 144.564,90.597 144.655,90.578L144.172,89.069Z" style="fill:rgb(56,60,63);fill-rule:nonzero;"/>
            <path d="M147.069,87.976C147.205,87.96 147.328,87.948 147.439,87.94C147.549,87.933 147.647,87.929 147.733,87.929C147.823,87.929 147.925,87.933 148.038,87.94C148.152,87.948 148.274,87.96 148.404,87.976L148.404,91.251L150.147,91.251C150.172,91.348 150.189,91.433 150.196,91.505C150.204,91.577 150.208,91.642 150.208,91.701C150.208,91.767 150.204,91.836 150.196,91.908C150.189,91.981 150.172,92.067 150.147,92.169L147.069,92.169L147.069,87.976Z" style="fill:rgb(56,60,63);fill-rule:nonzero;"/>
            <g transform="matrix(0.294769,0,0,0.294769,-101.175,-268.569)">
                <path d="M478.515,1168.67C479.215,1168.57 479.973,1168.48 480.79,1168.4C481.606,1168.32 482.365,1168.27 483.065,1168.27C483.731,1168.27 484.456,1168.32 485.24,1168.4C486.023,1168.48 486.748,1168.57 487.415,1168.67L494.515,1187.27L501.865,1168.67C502.531,1168.57 503.206,1168.48 503.89,1168.4C504.573,1168.32 505.248,1168.27 505.915,1168.27C506.615,1168.27 507.331,1168.32 508.065,1168.4C508.798,1168.48 509.515,1168.57 510.215,1168.67L511.915,1204.37C511.381,1204.47 510.79,1204.57 510.14,1204.67C509.49,1204.77 508.631,1204.82 507.565,1204.82C506.398,1204.82 505.015,1204.67 503.415,1204.37L502.715,1183.67L497.215,1197.32C496.615,1197.42 496.015,1197.51 495.415,1197.57C494.815,1197.64 494.265,1197.67 493.765,1197.67C493.265,1197.67 492.748,1197.65 492.215,1197.6C491.681,1197.55 491.131,1197.46 490.565,1197.32L485.665,1183.87L485.115,1204.37C483.715,1204.67 482.381,1204.82 481.115,1204.82C479.948,1204.82 478.598,1204.67 477.065,1204.37L478.515,1168.67Z" style="fill:rgb(56,60,63);fill-rule:nonzero;"/>
                <path d="M523.415,1204.42C522.648,1204.56 521.948,1204.66 521.315,1204.72C520.681,1204.79 520.065,1204.82 519.465,1204.82C518.865,1204.82 518.173,1204.78 517.39,1204.7C516.606,1204.62 515.731,1204.49 514.765,1204.32L525.965,1168.62C526.831,1168.52 527.64,1168.44 528.39,1168.37C529.14,1168.31 529.898,1168.27 530.665,1168.27C531.298,1168.27 531.99,1168.31 532.74,1168.37C533.49,1168.44 534.348,1168.52 535.315,1168.62L546.365,1204.37C544.465,1204.67 542.798,1204.82 541.365,1204.82C540.698,1204.82 540.031,1204.79 539.365,1204.72C538.698,1204.66 537.981,1204.56 537.215,1204.42L535.315,1197.47C534.381,1197.74 533.49,1197.94 532.64,1198.07C531.79,1198.21 530.948,1198.27 530.115,1198.27C529.348,1198.27 528.565,1198.21 527.765,1198.1C526.965,1197.98 526.131,1197.81 525.265,1197.57L523.415,1204.42ZM530.415,1178.02L527.065,1190.87C527.631,1191.04 528.165,1191.17 528.665,1191.27C529.165,1191.37 529.681,1191.42 530.215,1191.42C530.781,1191.42 531.34,1191.38 531.89,1191.3C532.44,1191.21 533.015,1191.09 533.615,1190.92L530.415,1178.02Z" style="fill:rgb(56,60,63);fill-rule:nonzero;"/>
                <path d="M567.065,1185.07C567.965,1184.94 568.765,1184.84 569.465,1184.77C570.165,1184.71 570.815,1184.67 571.415,1184.67C571.981,1184.67 572.665,1184.71 573.465,1184.77C574.265,1184.84 575.048,1184.94 575.815,1185.07L575.815,1203.27C573.848,1204.01 571.906,1204.49 569.99,1204.72C568.073,1204.96 566.431,1205.07 565.065,1205.07C562.131,1205.07 559.565,1204.62 557.365,1203.7C555.165,1202.78 553.323,1201.51 551.84,1199.87C550.356,1198.24 549.248,1196.29 548.515,1194.02C547.781,1191.76 547.415,1189.29 547.415,1186.62C547.415,1183.96 547.798,1181.48 548.565,1179.2C549.331,1176.91 550.44,1174.94 551.89,1173.27C553.34,1171.61 555.131,1170.31 557.265,1169.37C559.398,1168.44 561.815,1167.97 564.515,1167.97C566.115,1167.97 567.64,1168.09 569.09,1168.32C570.54,1168.56 572.131,1169.04 573.865,1169.77C573.798,1171.14 573.548,1172.47 573.115,1173.77C572.681,1175.07 572.231,1176.17 571.765,1177.07C571.098,1176.84 570.49,1176.64 569.94,1176.47C569.39,1176.31 568.865,1176.17 568.365,1176.07C567.865,1175.97 567.365,1175.9 566.865,1175.85C566.365,1175.8 565.831,1175.77 565.265,1175.77C562.565,1175.77 560.481,1176.68 559.015,1178.5C557.548,1180.32 556.815,1183.02 556.815,1186.62C556.815,1190.19 557.531,1192.85 558.965,1194.6C560.398,1196.35 562.531,1197.22 565.365,1197.22C565.998,1197.22 566.565,1197.17 567.065,1197.07L567.065,1185.07Z" style="fill:rgb(56,60,63);fill-rule:nonzero;"/>
                <path d="M585.765,1204.82C584.531,1204.82 583.048,1204.67 581.315,1204.37L581.315,1168.67C582.215,1168.54 583.031,1168.44 583.765,1168.37C584.498,1168.31 585.148,1168.27 585.715,1168.27C586.315,1168.27 586.99,1168.31 587.74,1168.37C588.49,1168.44 589.298,1168.54 590.165,1168.67L590.165,1204.37C588.398,1204.67 586.931,1204.82 585.765,1204.82Z" style="fill:rgb(56,60,63);fill-rule:nonzero;"/>
                <path d="M602.065,1204.42C601.298,1204.56 600.598,1204.66 599.965,1204.72C599.331,1204.79 598.715,1204.82 598.115,1204.82C597.515,1204.82 596.823,1204.78 596.04,1204.7C595.256,1204.62 594.381,1204.49 593.415,1204.32L604.615,1168.62C605.481,1168.52 606.29,1168.44 607.04,1168.37C607.79,1168.31 608.548,1168.27 609.315,1168.27C609.948,1168.27 610.64,1168.31 611.39,1168.37C612.14,1168.44 612.998,1168.52 613.965,1168.62L625.015,1204.37C623.115,1204.67 621.448,1204.82 620.015,1204.82C619.348,1204.82 618.681,1204.79 618.015,1204.72C617.348,1204.66 616.631,1204.56 615.865,1204.42L613.965,1197.47C613.031,1197.74 612.14,1197.94 611.29,1198.07C610.44,1198.21 609.598,1198.27 608.765,1198.27C607.998,1198.27 607.215,1198.21 606.415,1198.1C605.615,1197.98 604.781,1197.81 603.915,1197.57L602.065,1204.42ZM609.065,1178.02L605.715,1190.87C606.281,1191.04 606.815,1191.17 607.315,1191.27C607.815,1191.37 608.331,1191.42 608.865,1191.42C609.431,1191.42 609.99,1191.38 610.54,1191.3C611.09,1191.21 611.665,1191.09 612.265,1190.92L609.065,1178.02Z" style="fill:rgb(56,60,63);fill-rule:nonzero;"/>
                <path d="M642.265,1182.57C643.665,1183.14 644.923,1183.71 646.04,1184.3C647.156,1184.88 648.115,1185.58 648.915,1186.4C649.715,1187.21 650.331,1188.2 650.765,1189.35C651.198,1190.5 651.415,1191.89 651.415,1193.52C651.415,1195.29 651.106,1196.88 650.49,1198.3C649.873,1199.71 648.965,1200.93 647.765,1201.95C646.565,1202.96 645.09,1203.75 643.34,1204.3C641.59,1204.85 639.581,1205.12 637.315,1205.12C635.248,1205.12 633.423,1204.96 631.84,1204.62C630.256,1204.29 628.548,1203.77 626.715,1203.07C626.848,1201.91 627.081,1200.66 627.415,1199.35C627.748,1198.03 628.148,1196.69 628.615,1195.32C631.681,1196.66 634.348,1197.32 636.615,1197.32C638.315,1197.32 639.64,1197.07 640.59,1196.55C641.54,1196.03 642.015,1195.14 642.015,1193.87C642.015,1193.34 641.915,1192.88 641.715,1192.5C641.515,1192.12 641.248,1191.79 640.915,1191.52C640.581,1191.26 640.206,1191.03 639.79,1190.85C639.373,1190.66 638.948,1190.49 638.515,1190.32L635.715,1189.27C634.515,1188.84 633.423,1188.32 632.44,1187.72C631.456,1187.12 630.615,1186.41 629.915,1185.6C629.215,1184.78 628.673,1183.84 628.29,1182.77C627.906,1181.71 627.715,1180.46 627.715,1179.02C627.715,1177.26 628.015,1175.69 628.615,1174.32C629.215,1172.96 630.056,1171.8 631.14,1170.85C632.223,1169.9 633.531,1169.18 635.065,1168.7C636.598,1168.21 638.315,1167.97 640.215,1167.97C641.915,1167.97 643.556,1168.14 645.14,1168.47C646.723,1168.81 648.415,1169.29 650.215,1169.92C650.081,1170.99 649.84,1172.16 649.49,1173.45C649.14,1174.73 648.698,1175.94 648.165,1177.07C647.298,1176.71 646.281,1176.32 645.115,1175.92C643.948,1175.52 642.498,1175.32 640.765,1175.32C640.231,1175.32 639.723,1175.37 639.24,1175.47C638.756,1175.57 638.323,1175.73 637.94,1175.95C637.556,1176.16 637.248,1176.46 637.015,1176.85C636.781,1177.23 636.665,1177.71 636.665,1178.27C636.665,1179.24 636.981,1179.96 637.615,1180.42C638.248,1180.89 638.998,1181.29 639.865,1181.62L642.265,1182.57Z" style="fill:rgb(56,60,63);fill-rule:nonzero;"/>
                <path d="M656.465,1168.67C657.365,1168.54 658.181,1168.44 658.915,1168.37C659.648,1168.31 660.298,1168.27 660.865,1168.27C661.465,1168.27 662.14,1168.31 662.89,1168.37C663.64,1168.44 664.448,1168.54 665.315,1168.67L665.315,1196.67L676.865,1196.67C677.031,1197.51 677.14,1198.23 677.19,1198.85C677.24,1199.46 677.265,1200.02 677.265,1200.52C677.265,1201.09 677.24,1201.68 677.19,1202.3C677.14,1202.91 677.031,1203.66 676.865,1204.52L656.465,1204.52L656.465,1168.67Z" style="fill:rgb(56,60,63);fill-rule:nonzero;"/>
                <path d="M686.915,1204.42C686.148,1204.56 685.448,1204.66 684.815,1204.72C684.181,1204.79 683.565,1204.82 682.965,1204.82C682.365,1204.82 681.673,1204.78 680.89,1204.7C680.106,1204.62 679.231,1204.49 678.265,1204.32L689.465,1168.62C690.331,1168.52 691.14,1168.44 691.89,1168.37C692.64,1168.31 693.398,1168.27 694.165,1168.27C694.798,1168.27 695.49,1168.31 696.24,1168.37C696.99,1168.44 697.848,1168.52 698.815,1168.62L709.865,1204.37C707.965,1204.67 706.298,1204.82 704.865,1204.82C704.198,1204.82 703.531,1204.79 702.865,1204.72C702.198,1204.66 701.481,1204.56 700.715,1204.42L698.815,1197.47C697.881,1197.74 696.99,1197.94 696.14,1198.07C695.29,1198.21 694.448,1198.27 693.615,1198.27C692.848,1198.27 692.065,1198.21 691.265,1198.1C690.465,1197.98 689.631,1197.81 688.765,1197.57L686.915,1204.42ZM693.915,1178.02L690.565,1190.87C691.131,1191.04 691.665,1191.17 692.165,1191.27C692.665,1191.37 693.181,1191.42 693.715,1191.42C694.281,1191.42 694.84,1191.38 695.39,1191.3C695.94,1191.21 696.515,1191.09 697.115,1190.92L693.915,1178.02Z" style="fill:rgb(56,60,63);fill-rule:nonzero;"/>
                <path d="M738.415,1194.02C738.415,1196.22 738.015,1198.04 737.215,1199.47C736.415,1200.91 735.315,1202.04 733.915,1202.87C732.515,1203.71 730.848,1204.29 728.915,1204.62C726.981,1204.96 724.881,1205.12 722.615,1205.12C720.815,1205.12 719.198,1205.06 717.765,1204.92C716.331,1204.79 714.781,1204.62 713.115,1204.42L713.115,1168.67C714.381,1168.47 715.765,1168.31 717.265,1168.17C718.765,1168.04 720.515,1167.97 722.515,1167.97C724.415,1167.97 726.19,1168.13 727.84,1168.45C729.49,1168.77 730.931,1169.3 732.165,1170.05C733.398,1170.8 734.373,1171.8 735.09,1173.05C735.806,1174.3 736.165,1175.87 736.165,1177.77C736.165,1179.34 735.815,1180.77 735.115,1182.05C734.415,1183.33 733.531,1184.32 732.465,1185.02C733.231,1185.32 733.973,1185.71 734.69,1186.2C735.406,1186.68 736.04,1187.28 736.59,1188C737.14,1188.71 737.581,1189.57 737.915,1190.57C738.248,1191.57 738.415,1192.72 738.415,1194.02ZM721.765,1189.42L721.765,1197.82C721.998,1197.86 722.29,1197.88 722.64,1197.9C722.99,1197.91 723.448,1197.92 724.015,1197.92C724.648,1197.92 725.29,1197.86 725.94,1197.72C726.59,1197.59 727.181,1197.37 727.715,1197.05C728.248,1196.73 728.673,1196.3 728.99,1195.75C729.306,1195.2 729.465,1194.51 729.465,1193.67C729.465,1192.07 728.94,1190.96 727.89,1190.35C726.84,1189.73 725.481,1189.42 723.815,1189.42L721.765,1189.42ZM721.765,1182.32L723.165,1182.32C724.598,1182.32 725.715,1182.03 726.515,1181.45C727.315,1180.87 727.715,1179.86 727.715,1178.42C727.715,1177.72 727.573,1177.14 727.29,1176.67C727.006,1176.21 726.648,1175.84 726.215,1175.57C725.781,1175.31 725.298,1175.12 724.765,1175.02C724.231,1174.92 723.715,1174.87 723.215,1174.87L722.49,1174.87C722.206,1174.87 721.965,1174.89 721.765,1174.92L721.765,1182.32Z" style="fill:rgb(56,60,63);fill-rule:nonzero;"/>
                <path d="M747.365,1195.57C748.031,1195.57 748.715,1195.61 749.415,1195.67C750.115,1195.74 750.848,1195.82 751.615,1195.92C751.748,1196.69 751.848,1197.42 751.915,1198.12C751.981,1198.82 752.015,1199.51 752.015,1200.17C752.015,1200.84 751.981,1201.52 751.915,1202.22C751.848,1202.92 751.748,1203.66 751.615,1204.42C750.848,1204.56 750.115,1204.66 749.415,1204.72C748.715,1204.79 748.031,1204.82 747.365,1204.82C746.698,1204.82 746.015,1204.79 745.315,1204.72C744.615,1204.66 743.881,1204.56 743.115,1204.42C742.981,1203.66 742.881,1202.92 742.815,1202.22C742.748,1201.52 742.715,1200.84 742.715,1200.17C742.715,1199.51 742.748,1198.82 742.815,1198.12C742.881,1197.42 742.981,1196.69 743.115,1195.92C743.881,1195.82 744.615,1195.74 745.315,1195.67C746.015,1195.61 746.698,1195.57 747.365,1195.57Z" style="fill:rgb(56,60,63);fill-rule:nonzero;"/>
                <path d="M766.165,1186.62C766.165,1193.69 769.131,1197.22 775.065,1197.22C776.131,1197.22 777.14,1197.12 778.09,1196.92C779.04,1196.72 780.198,1196.39 781.565,1195.92C782.665,1198.32 783.398,1200.79 783.765,1203.32C782.798,1203.69 781.898,1203.99 781.065,1204.22C780.231,1204.46 779.431,1204.63 778.665,1204.75C777.898,1204.87 777.14,1204.95 776.39,1205C775.64,1205.05 774.865,1205.07 774.065,1205.07C771.231,1205.07 768.74,1204.62 766.59,1203.7C764.44,1202.78 762.64,1201.51 761.19,1199.87C759.74,1198.24 758.648,1196.29 757.915,1194.02C757.181,1191.76 756.815,1189.29 756.815,1186.62C756.815,1183.96 757.198,1181.48 757.965,1179.2C758.731,1176.91 759.84,1174.94 761.29,1173.27C762.74,1171.61 764.531,1170.31 766.665,1169.37C768.798,1168.44 771.215,1167.97 773.915,1167.97C775.515,1167.97 777.031,1168.09 778.465,1168.32C779.898,1168.56 781.498,1169.02 783.265,1169.72C783.198,1171.09 782.948,1172.41 782.515,1173.7C782.081,1174.98 781.631,1176.11 781.165,1177.07C780.498,1176.84 779.89,1176.64 779.34,1176.47C778.79,1176.31 778.265,1176.17 777.765,1176.07C777.265,1175.97 776.765,1175.9 776.265,1175.85C775.765,1175.8 775.231,1175.77 774.665,1175.77C771.965,1175.77 769.873,1176.68 768.39,1178.5C766.906,1180.32 766.165,1183.02 766.165,1186.62Z" style="fill:rgb(56,60,63);fill-rule:nonzero;"/>
                <path d="M784.765,1186.67C784.765,1184.01 785.073,1181.53 785.69,1179.25C786.306,1176.96 787.256,1174.99 788.54,1173.32C789.823,1171.66 791.456,1170.35 793.44,1169.4C795.423,1168.45 797.781,1167.97 800.515,1167.97C803.248,1167.97 805.598,1168.45 807.565,1169.4C809.531,1170.35 811.156,1171.66 812.44,1173.32C813.723,1174.99 814.673,1176.96 815.29,1179.25C815.906,1181.53 816.215,1184.01 816.215,1186.67C816.215,1189.34 815.906,1191.8 815.29,1194.05C814.673,1196.3 813.723,1198.25 812.44,1199.9C811.156,1201.55 809.531,1202.83 807.565,1203.75C805.598,1204.66 803.248,1205.12 800.515,1205.12C797.781,1205.12 795.423,1204.66 793.44,1203.75C791.456,1202.83 789.823,1201.55 788.54,1199.9C787.256,1198.25 786.306,1196.3 785.69,1194.05C785.073,1191.8 784.765,1189.34 784.765,1186.67ZM806.915,1186.67C806.915,1179.41 804.798,1175.77 800.565,1175.77C796.231,1175.77 794.065,1179.41 794.065,1186.67C794.065,1190.31 794.59,1193.02 795.64,1194.8C796.69,1196.58 798.315,1197.47 800.515,1197.47C804.781,1197.47 806.915,1193.87 806.915,1186.67Z" style="fill:rgb(56,60,63);fill-rule:nonzero;"/>
                <path d="M822.315,1168.67C823.015,1168.57 823.773,1168.48 824.59,1168.4C825.406,1168.32 826.165,1168.27 826.865,1168.27C827.531,1168.27 828.256,1168.32 829.04,1168.4C829.823,1168.48 830.548,1168.57 831.215,1168.67L838.315,1187.27L845.665,1168.67C846.331,1168.57 847.006,1168.48 847.69,1168.4C848.373,1168.32 849.048,1168.27 849.715,1168.27C850.415,1168.27 851.131,1168.32 851.865,1168.4C852.598,1168.48 853.315,1168.57 854.015,1168.67L855.715,1204.37C855.181,1204.47 854.59,1204.57 853.94,1204.67C853.29,1204.77 852.431,1204.82 851.365,1204.82C850.198,1204.82 848.815,1204.67 847.215,1204.37L846.515,1183.67L841.015,1197.32C840.415,1197.42 839.815,1197.51 839.215,1197.57C838.615,1197.64 838.065,1197.67 837.565,1197.67C837.065,1197.67 836.548,1197.65 836.015,1197.6C835.481,1197.55 834.931,1197.46 834.365,1197.32L829.465,1183.87L828.915,1204.37C827.515,1204.67 826.181,1204.82 824.915,1204.82C823.748,1204.82 822.398,1204.67 820.865,1204.37L822.315,1168.67Z" style="fill:rgb(56,60,63);fill-rule:nonzero;"/>
            </g>
        </g>
    </g>
</svg>
