<?xml version="1.0" encoding="UTF-8" standalone="no"?>
<!DOCTYPE svg PUBLIC "-//W3C//DTD SVG 1.1//EN" "http://www.w3.org/Graphics/SVG/1.1/DTD/svg11.dtd">
<svg width="100%" height="100%" viewBox="0 0 2536 887" version="1.1" xmlns="http://www.w3.org/2000/svg" xmlns:xlink="http://www.w3.org/1999/xlink" xml:space="preserve" xmlns:serif="http://www.serif.com/" style="fill-rule:evenodd;clip-rule:evenodd;stroke-linejoin:round;stroke-miterlimit:2;">
    <g transform="matrix(1.33333,0,0,1.33333,-396,-788)">
        <g transform="matrix(0.996857,0,0,0.939233,6.50534,-516.356)">
            <path d="M2199.41,1179L479,1179L291.41,1753.94L1423.97,1753.94L1390.87,1887.02L1975.7,1885.26L2199.41,1179Z" style="fill:white;"/>
        </g>
        <g transform="matrix(9.84353,0,0,9.01077,-5268.1,-20012.2)">
            <path d="M595.97,2303.47L602.562,2303.47L601.903,2306.62C604.474,2304.11 607.176,2302.86 610.008,2302.86C611.961,2302.86 613.467,2303.26 614.525,2304.08C615.583,2304.89 616.258,2306.01 616.551,2307.45C617.446,2306.14 618.732,2305.05 620.409,2304.18C622.085,2303.3 623.827,2302.86 625.633,2302.86C627.7,2302.86 629.312,2303.41 630.467,2304.52C631.623,2305.62 632.201,2307.09 632.201,2308.91C632.201,2309.81 631.973,2311.35 631.517,2313.55L628.197,2329.4L621.19,2329.4L624.51,2313.55C624.917,2311.57 625.121,2310.44 625.121,2310.18C625.121,2309.47 624.905,2308.9 624.474,2308.49C624.042,2308.07 623.395,2307.86 622.533,2307.86C620.791,2307.86 619.237,2308.78 617.87,2310.62C616.877,2311.94 616.03,2314.28 615.331,2317.63L612.865,2329.4L605.858,2329.4L609.129,2313.72C609.504,2311.91 609.691,2310.74 609.691,2310.21C609.691,2309.52 609.459,2308.96 608.995,2308.52C608.531,2308.08 607.892,2307.86 607.079,2307.86C606.314,2307.86 605.524,2308.09 604.71,2308.55C603.897,2309 603.185,2309.63 602.574,2310.43C601.964,2311.22 601.439,2312.25 600.999,2313.5C600.804,2314.09 600.487,2315.41 600.047,2317.48L597.557,2329.4L590.55,2329.4L595.97,2303.47Z" style="fill:rgb(254,0,0);fill-rule:nonzero;stroke:rgb(254,0,0);stroke-width:1.55px;"/>
            <path d="M645.116,2310.82L638.28,2310.23C639.061,2307.92 640.424,2306.11 642.369,2304.81C644.314,2303.51 646.89,2302.86 650.096,2302.86C653.433,2302.86 655.899,2303.53 657.494,2304.87C659.089,2306.22 659.886,2307.85 659.886,2309.79C659.886,2310.57 659.817,2311.4 659.679,2312.28C659.54,2313.16 659.056,2315.47 658.226,2319.22C657.542,2322.31 657.201,2324.47 657.201,2325.71C657.201,2326.82 657.396,2328.05 657.787,2329.4L650.975,2329.4C650.698,2328.45 650.527,2327.47 650.462,2326.47C649.437,2327.61 648.257,2328.48 646.922,2329.09C645.588,2329.7 644.245,2330.01 642.894,2330.01C640.746,2330.01 638.971,2329.3 637.572,2327.89C636.172,2326.49 635.472,2324.68 635.472,2322.46C635.472,2319.99 636.241,2318.01 637.779,2316.53C639.317,2315.05 642.064,2314.15 646.019,2313.84C649.356,2313.57 651.585,2313.23 652.708,2312.84C653.001,2311.87 653.148,2311.09 653.148,2310.5C653.148,2309.75 652.847,2309.12 652.245,2308.62C651.642,2308.12 650.747,2307.86 649.559,2307.86C648.306,2307.86 647.317,2308.12 646.593,2308.63C645.868,2309.14 645.376,2309.87 645.116,2310.82ZM651.781,2317.31C651.358,2317.43 650.796,2317.53 650.096,2317.63C646.581,2318.05 644.286,2318.67 643.211,2319.48C642.446,2320.07 642.064,2320.86 642.064,2321.85C642.064,2322.67 642.357,2323.35 642.943,2323.91C643.529,2324.48 644.302,2324.76 645.262,2324.76C646.32,2324.76 647.317,2324.5 648.253,2323.99C649.189,2323.47 649.889,2322.82 650.352,2322.01C650.816,2321.2 651.227,2319.95 651.585,2318.24L651.781,2317.31Z" style="fill:rgb(254,0,0);fill-rule:nonzero;stroke:rgb(254,0,0);stroke-width:1.55px;"/>
            <path d="M662.669,2330.76L670.067,2331.84C670.067,2332.59 670.189,2333.15 670.433,2333.53C670.677,2333.92 671.072,2334.24 671.617,2334.51C672.162,2334.78 672.907,2334.91 673.851,2334.91C675.332,2334.91 676.52,2334.62 677.415,2334.03C678.083,2333.58 678.628,2332.85 679.051,2331.84C679.312,2331.2 679.645,2329.82 680.052,2327.69L680.296,2326.47C677.871,2328.48 675.365,2329.49 672.777,2329.49C670.238,2329.49 668.154,2328.6 666.527,2326.81C664.899,2325.02 664.085,2322.4 664.085,2318.95C664.085,2315.9 664.639,2313.11 665.746,2310.57C666.852,2308.03 668.407,2306.11 670.409,2304.81C672.411,2303.51 674.453,2302.86 676.537,2302.86C678.262,2302.86 679.841,2303.31 681.273,2304.22C682.705,2305.14 683.82,2306.41 684.618,2308.06L685.594,2303.47L692.162,2303.47L687.669,2325.07C686.937,2328.54 686.318,2331.01 685.814,2332.5C685.309,2333.98 684.732,2335.16 684.081,2336.04C683.429,2336.91 682.608,2337.65 681.615,2338.25C680.622,2338.84 679.45,2339.27 678.099,2339.53C676.748,2339.79 675.283,2339.92 673.705,2339.92C670.042,2339.92 667.275,2339.29 665.404,2338.04C663.532,2336.78 662.596,2334.7 662.596,2331.79C662.596,2331.48 662.621,2331.14 662.669,2330.76ZM670.921,2318.24C670.921,2320.21 671.365,2321.71 672.252,2322.74C673.139,2323.78 674.25,2324.29 675.584,2324.29C676.805,2324.29 677.989,2323.83 679.137,2322.9C680.284,2321.97 681.163,2320.66 681.773,2318.95C682.384,2317.24 682.689,2315.59 682.689,2313.99C682.689,2312.15 682.192,2310.67 681.2,2309.55C680.207,2308.42 679.059,2307.86 677.757,2307.86C676.504,2307.86 675.352,2308.36 674.303,2309.35C673.253,2310.35 672.386,2311.88 671.703,2313.94C671.182,2315.54 670.921,2316.97 670.921,2318.24Z" style="fill:rgb(254,0,0);fill-rule:nonzero;stroke:rgb(254,0,0);stroke-width:1.55px;"/>
            <path d="M701.048,2293.61L708.055,2293.61L706.737,2299.95L699.73,2299.95L701.048,2293.61ZM698.997,2303.47L706.004,2303.47L700.584,2329.4L693.578,2329.4L698.997,2303.47Z" style="fill:rgb(254,0,0);fill-rule:nonzero;stroke:rgb(254,0,0);stroke-width:1.55px;"/>
            <path d="M725.047,2319.63L731.859,2320.73C730.736,2323.76 729.076,2326.06 726.878,2327.64C724.681,2329.22 722.134,2330.01 719.237,2330.01C715.933,2330.01 713.312,2329.02 711.375,2327.05C709.439,2325.08 708.47,2322.37 708.47,2318.92C708.47,2316.11 709.056,2313.45 710.228,2310.94C711.4,2308.43 713.166,2306.46 715.526,2305.02C717.886,2303.58 720.474,2302.86 723.289,2302.86C726.349,2302.86 728.791,2303.66 730.614,2305.25C732.437,2306.85 733.462,2308.95 733.69,2311.55L727.025,2312.26C726.862,2310.81 726.419,2309.74 725.694,2309.06C724.97,2308.38 724.022,2308.03 722.85,2308.03C721.499,2308.03 720.238,2308.54 719.066,2309.55C717.894,2310.56 716.995,2312.07 716.368,2314.08C715.741,2316.09 715.428,2317.97 715.428,2319.73C715.428,2321.26 715.803,2322.44 716.551,2323.27C717.3,2324.1 718.236,2324.51 719.359,2324.51C720.482,2324.51 721.564,2324.11 722.606,2323.29C723.648,2322.48 724.461,2321.26 725.047,2319.63Z" style="fill:rgb(254,0,0);fill-rule:nonzero;stroke:rgb(254,0,0);stroke-width:1.55px;"/>
        </g>
        <g transform="matrix(2.40882,0,0,2.20503,109.473,-4085.89)">
            <path d="M595.97,2303.47L602.562,2303.47L601.903,2306.62C604.474,2304.11 607.176,2302.86 610.008,2302.86C611.961,2302.86 613.467,2303.26 614.525,2304.08C615.583,2304.89 616.258,2306.01 616.551,2307.45C617.446,2306.14 618.732,2305.05 620.409,2304.18C622.085,2303.3 623.827,2302.86 625.633,2302.86C627.7,2302.86 629.312,2303.41 630.467,2304.52C631.623,2305.62 632.201,2307.09 632.201,2308.91C632.201,2309.81 631.973,2311.35 631.517,2313.55L628.197,2329.4L621.19,2329.4L624.51,2313.55C624.917,2311.57 625.121,2310.44 625.121,2310.18C625.121,2309.47 624.905,2308.9 624.474,2308.49C624.042,2308.07 623.395,2307.86 622.533,2307.86C620.791,2307.86 619.237,2308.78 617.87,2310.62C616.877,2311.94 616.03,2314.28 615.331,2317.63L612.865,2329.4L605.858,2329.4L609.129,2313.72C609.504,2311.91 609.691,2310.74 609.691,2310.21C609.691,2309.52 609.459,2308.96 608.995,2308.52C608.531,2308.08 607.892,2307.86 607.079,2307.86C606.314,2307.86 605.524,2308.09 604.71,2308.55C603.897,2309 603.185,2309.63 602.574,2310.43C601.964,2311.22 601.439,2312.25 600.999,2313.5C600.804,2314.09 600.487,2315.41 600.047,2317.48L597.557,2329.4L590.55,2329.4L595.97,2303.47Z" style="fill:rgb(254,0,0);fill-rule:nonzero;"/>
            <path d="M640.428,2303.47L647.069,2303.47L646.507,2306.13C647.923,2304.96 649.25,2304.12 650.487,2303.61C651.724,2303.11 653.05,2302.86 654.466,2302.86C657.184,2302.86 659.369,2303.79 661.021,2305.66C662.673,2307.54 663.499,2310.33 663.499,2314.04C663.499,2318.71 662.075,2322.66 659.227,2325.88C656.786,2328.63 653.897,2330.01 650.56,2330.01C647.126,2330.01 644.53,2328.61 642.772,2325.83L639.964,2339.28L632.957,2339.28L640.428,2303.47ZM644.652,2318.34C644.652,2320.35 645.144,2321.92 646.129,2323.04C647.114,2324.15 648.273,2324.71 649.608,2324.71C650.763,2324.71 651.878,2324.29 652.953,2323.45C654.027,2322.61 654.918,2321.22 655.626,2319.28C656.334,2317.33 656.688,2315.53 656.688,2313.87C656.688,2311.93 656.224,2310.45 655.296,2309.41C654.369,2308.38 653.189,2307.86 651.756,2307.86C650.422,2307.86 649.205,2308.34 648.106,2309.29C647.008,2310.24 646.157,2311.64 645.555,2313.49C644.953,2315.34 644.652,2316.95 644.652,2318.34Z" style="fill:rgb(254,0,0);fill-rule:nonzero;"/>
        </g>
    </g>
</svg>
