<?xml version="1.0" encoding="UTF-8" standalone="no"?>
<!DOCTYPE svg PUBLIC "-//W3C//DTD SVG 1.1//EN" "http://www.w3.org/Graphics/SVG/1.1/DTD/svg11.dtd">
<svg width="100%" height="100%" viewBox="0 0 2430 816" version="1.1" xmlns="http://www.w3.org/2000/svg" xmlns:xlink="http://www.w3.org/1999/xlink" xml:space="preserve" xmlns:serif="http://www.serif.com/" style="fill-rule:evenodd;clip-rule:evenodd;stroke-linejoin:round;stroke-miterlimit:2;">
    <g transform="matrix(1.33333,0,0,1.33333,-438.877,-680)">
        <g transform="matrix(11.5597,0,0,11.1231,-5633.4,-23461.7)">
            <path d="M535.436,2189L522.643,2161.14L522.643,2183.26C522.643,2185.3 522.863,2186.57 523.303,2187.07C523.905,2187.76 524.857,2188.1 526.159,2188.1L527.331,2188.1L527.331,2189L515.807,2189L515.807,2188.1L516.979,2188.1C518.379,2188.1 519.372,2187.67 519.958,2186.83C520.316,2186.31 520.495,2185.12 520.495,2183.26L520.495,2161.63C520.495,2160.17 520.332,2159.11 520.007,2158.46C519.779,2157.99 519.36,2157.59 518.749,2157.27C518.139,2156.96 517.158,2156.8 515.807,2156.8L515.807,2155.89L525.182,2155.89L537.194,2181.8L549.011,2155.89L558.386,2155.89L558.386,2156.8L557.238,2156.8C555.822,2156.8 554.821,2157.22 554.235,2158.07C553.877,2158.59 553.698,2159.78 553.698,2161.63L553.698,2183.26C553.698,2185.3 553.926,2186.57 554.382,2187.07C554.984,2187.76 555.936,2188.1 557.238,2188.1L558.386,2188.1L558.386,2189L544.323,2189L544.323,2188.1L545.495,2188.1C546.911,2188.1 547.904,2187.67 548.473,2186.83C548.831,2186.31 549.011,2185.12 549.011,2183.26L549.011,2161.14L536.242,2189L535.436,2189Z" style="fill:rgb(2,60,167);fill-rule:nonzero;"/>
            <path d="M574.865,2188.1L574.865,2189L560.68,2189L560.68,2188.1L561.852,2188.1C563.22,2188.1 564.212,2187.7 564.831,2186.9C565.221,2186.38 565.417,2185.13 565.417,2183.14L565.417,2161.75C565.417,2160.08 565.311,2158.97 565.099,2158.43C564.937,2158.03 564.603,2157.68 564.098,2157.38C563.382,2156.99 562.634,2156.8 561.852,2156.8L560.68,2156.8L560.68,2155.89L574.865,2155.89L574.865,2156.8L573.669,2156.8C572.318,2156.8 571.333,2157.2 570.715,2157.99C570.308,2158.51 570.104,2159.77 570.104,2161.75L570.104,2183.14C570.104,2184.82 570.21,2185.92 570.422,2186.46C570.584,2186.87 570.926,2187.22 571.447,2187.51C572.147,2187.9 572.887,2188.1 573.669,2188.1L574.865,2188.1Z" style="fill:rgb(2,60,167);fill-rule:nonzero;"/>
            <path d="M596.496,2170.66L603.6,2181.26C605.57,2184.19 607.031,2186.04 607.983,2186.82C608.935,2187.59 610.143,2188.01 611.608,2188.1L611.608,2189L597.399,2189L597.399,2188.1C598.343,2188.08 599.043,2187.98 599.499,2187.8C599.841,2187.66 600.121,2187.43 600.341,2187.13C600.561,2186.83 600.671,2186.53 600.671,2186.22C600.671,2185.84 600.597,2185.47 600.451,2185.09C600.337,2184.82 599.889,2184.1 599.108,2182.95L593.493,2174.45L586.559,2183.34C585.827,2184.28 585.387,2184.91 585.241,2185.23C585.095,2185.55 585.021,2185.88 585.021,2186.22C585.021,2186.74 585.241,2187.17 585.68,2187.51C586.12,2187.85 586.958,2188.05 588.195,2188.1L588.195,2189L576.452,2189L576.452,2188.1C577.282,2188.01 577.998,2187.84 578.6,2187.58C579.609,2187.16 580.57,2186.59 581.481,2185.88C582.393,2185.16 583.434,2184.06 584.606,2182.58L592.419,2172.72L585.9,2163.17C584.126,2160.58 582.621,2158.89 581.384,2158.08C580.147,2157.27 578.722,2156.85 577.111,2156.8L577.111,2155.89L592.419,2155.89L592.419,2156.8C591.117,2156.85 590.226,2157.06 589.745,2157.43C589.265,2157.81 589.025,2158.22 589.025,2158.68C589.025,2159.28 589.416,2160.16 590.197,2161.31L595.275,2168.91L601.159,2161.46C601.843,2160.58 602.262,2159.98 602.416,2159.65C602.571,2159.33 602.648,2158.99 602.648,2158.65C602.648,2158.31 602.551,2158.01 602.355,2157.75C602.111,2157.41 601.802,2157.17 601.428,2157.03C601.053,2156.89 600.28,2156.81 599.108,2156.8L599.108,2155.89L610.851,2155.89L610.851,2156.8C609.924,2156.85 609.167,2156.99 608.581,2157.24C607.702,2157.61 606.896,2158.12 606.164,2158.75C605.431,2159.39 604.398,2160.56 603.063,2162.27L596.496,2170.66Z" style="fill:rgb(2,60,167);fill-rule:nonzero;"/>
            <path d="M630.48,2155.14C634.777,2155.14 638.5,2156.77 641.65,2160.03C644.799,2163.3 646.374,2167.37 646.374,2172.25C646.374,2177.28 644.787,2181.46 641.613,2184.78C638.439,2188.1 634.598,2189.76 630.09,2189.76C625.532,2189.76 621.703,2188.14 618.603,2184.9C615.502,2181.66 613.952,2177.47 613.952,2172.32C613.952,2167.07 615.742,2162.78 619.323,2159.46C622.432,2156.58 626.151,2155.14 630.48,2155.14ZM630.016,2156.92C627.054,2156.92 624.678,2158.02 622.887,2160.22C620.658,2162.95 619.543,2166.95 619.543,2172.23C619.543,2177.63 620.698,2181.79 623.01,2184.7C624.784,2186.92 627.127,2188.02 630.041,2188.02C633.15,2188.02 635.717,2186.81 637.743,2184.39C639.77,2181.96 640.783,2178.14 640.783,2172.91C640.783,2167.25 639.668,2163.02 637.438,2160.24C635.648,2158.03 633.174,2156.92 630.016,2156.92Z" style="fill:rgb(2,60,167);fill-rule:nonzero;"/>
            <path d="M671.227,2155.14L671.227,2166.59L670.324,2166.59C670.031,2164.39 669.506,2162.64 668.749,2161.34C667.992,2160.04 666.914,2159 665.514,2158.24C664.115,2157.47 662.666,2157.09 661.169,2157.09C659.476,2157.09 658.076,2157.61 656.97,2158.64C655.863,2159.68 655.309,2160.85 655.309,2162.17C655.309,2163.18 655.659,2164.1 656.359,2164.93C657.368,2166.15 659.769,2167.78 663.561,2169.81C666.654,2171.47 668.766,2172.74 669.897,2173.63C671.028,2174.52 671.899,2175.56 672.509,2176.77C673.119,2177.97 673.425,2179.23 673.425,2180.55C673.425,2183.06 672.452,2185.22 670.507,2187.03C668.562,2188.85 666.06,2189.76 663,2189.76C662.04,2189.76 661.136,2189.68 660.29,2189.54C659.785,2189.46 658.74,2189.16 657.153,2188.65C655.566,2188.13 654.561,2187.88 654.137,2187.88C653.731,2187.88 653.409,2188 653.173,2188.24C652.937,2188.49 652.762,2188.99 652.648,2189.76L651.745,2189.76L651.745,2178.4L652.648,2178.4C653.071,2180.78 653.641,2182.56 654.357,2183.74C655.073,2184.92 656.168,2185.9 657.641,2186.68C659.114,2187.46 660.729,2187.85 662.487,2187.85C664.522,2187.85 666.129,2187.32 667.309,2186.24C668.489,2185.17 669.079,2183.9 669.079,2182.43C669.079,2181.62 668.855,2180.8 668.408,2179.97C667.96,2179.14 667.264,2178.36 666.32,2177.65C665.685,2177.16 663.952,2176.12 661.12,2174.53C658.288,2172.95 656.274,2171.68 655.077,2170.74C653.881,2169.79 652.974,2168.75 652.355,2167.61C651.737,2166.47 651.428,2165.22 651.428,2163.85C651.428,2161.48 652.339,2159.43 654.162,2157.71C655.985,2156 658.304,2155.14 661.12,2155.14C662.878,2155.14 664.741,2155.57 666.711,2156.43C667.622,2156.84 668.265,2157.04 668.639,2157.04C669.063,2157.04 669.408,2156.92 669.677,2156.66C669.946,2156.41 670.161,2155.9 670.324,2155.14L671.227,2155.14Z" style="fill:rgb(2,60,167);fill-rule:nonzero;"/>
        </g>
        <g transform="matrix(4.07142,0,0,4.07289,-1761.17,-7796.64)">
            <path d="M527.306,2188.1L527.038,2189L513.415,2189L513.757,2188.1C515.124,2188.06 516.027,2187.95 516.467,2187.76C517.183,2187.48 517.712,2187.1 518.054,2186.61C518.591,2185.84 519.144,2184.47 519.714,2182.51L525.475,2162.53C525.964,2160.88 526.208,2159.62 526.208,2158.78C526.208,2158.35 526.102,2157.99 525.89,2157.7C525.679,2157.41 525.357,2157.18 524.926,2157.03C524.495,2156.88 523.652,2156.8 522.399,2156.8L522.692,2155.89L535.485,2155.89L535.217,2156.8C534.175,2156.78 533.402,2156.89 532.897,2157.14C532.165,2157.47 531.607,2157.93 531.225,2158.53C530.842,2159.13 530.35,2160.47 529.748,2162.53L524.011,2182.51C523.49,2184.35 523.229,2185.52 523.229,2186.02C523.229,2186.43 523.331,2186.77 523.534,2187.06C523.738,2187.34 524.063,2187.56 524.511,2187.72C524.959,2187.87 525.89,2188 527.306,2188.1Z" style="fill:rgb(2,60,167);fill-rule:nonzero;"/>
            <path d="M539.22,2189.76L541.955,2162.19C542.085,2160.79 542.15,2159.85 542.15,2159.36C542.15,2158.63 541.878,2158.02 541.332,2157.53C540.787,2157.04 539.929,2156.8 538.757,2156.8L537.878,2156.8L538.122,2155.89L551.183,2155.89L550.915,2156.8C549.499,2156.81 548.526,2156.96 547.997,2157.24C547.468,2157.51 547.049,2157.99 546.74,2158.65C546.577,2159.01 546.406,2160.03 546.227,2161.7L544.274,2181.46L557.189,2163.83C558.589,2161.93 559.468,2160.6 559.826,2159.85C560.07,2159.35 560.192,2158.91 560.192,2158.53C560.192,2158.09 560.005,2157.71 559.631,2157.38C559.256,2157.06 558.556,2156.86 557.531,2156.8L557.824,2155.89L567.785,2155.89L567.541,2156.8C566.743,2156.86 566.109,2157.02 565.637,2157.26C564.741,2157.68 563.85,2158.33 562.963,2159.19C562.076,2160.05 560.672,2161.8 558.752,2164.41L540.099,2189.76L539.22,2189.76Z" style="fill:rgb(2,60,167);fill-rule:nonzero;"/>
            <path d="M585.314,2155.14C587.512,2155.14 589.456,2155.61 591.149,2156.57C592.842,2157.52 594.168,2158.93 595.129,2160.79C596.089,2162.65 596.569,2164.59 596.569,2166.59C596.569,2170.14 595.54,2173.86 593.481,2177.76C591.422,2181.66 588.732,2184.63 585.412,2186.68C582.092,2188.73 578.657,2189.76 575.109,2189.76C572.554,2189.76 570.418,2189.19 568.7,2188.06C566.983,2186.93 565.714,2185.43 564.892,2183.58C564.07,2181.72 563.659,2179.93 563.659,2178.18C563.659,2175.09 564.404,2172.04 565.893,2169.02C567.382,2166 569.16,2163.47 571.227,2161.45C573.294,2159.42 575.5,2157.86 577.844,2156.77C580.187,2155.68 582.678,2155.14 585.314,2155.14ZM584.484,2156.7C582.857,2156.7 581.266,2157.1 579.711,2157.91C578.157,2158.71 576.615,2160.03 575.085,2161.86C573.555,2163.7 572.179,2166.09 570.959,2169.05C569.461,2172.7 568.713,2176.14 568.713,2179.38C568.713,2181.69 569.307,2183.74 570.495,2185.52C571.683,2187.3 573.506,2188.19 575.964,2188.19C577.445,2188.19 578.897,2187.83 580.322,2187.1C581.746,2186.36 583.231,2185.11 584.777,2183.34C586.714,2181.11 588.342,2178.26 589.66,2174.8C590.978,2171.35 591.637,2168.12 591.637,2165.12C591.637,2162.91 591.043,2160.95 589.855,2159.25C588.667,2157.55 586.877,2156.7 584.484,2156.7Z" style="fill:rgb(2,60,167);fill-rule:nonzero;"/>
            <path d="M625.134,2155.89L628.185,2182.55L647.399,2155.89L655.48,2155.89L655.48,2156.8C653.722,2156.91 652.689,2157.03 652.38,2157.14C651.843,2157.35 651.35,2157.77 650.903,2158.41C650.455,2159.04 649.971,2160.26 649.45,2162.07L643.322,2183.07C642.964,2184.29 642.785,2185.25 642.785,2185.95C642.785,2186.58 643.005,2187.06 643.444,2187.39C644.063,2187.86 645.039,2188.1 646.374,2188.1L646.96,2188.1L646.74,2189L632.8,2189L633.044,2188.1L633.703,2188.1C634.94,2188.1 635.884,2187.92 636.535,2187.56C637.04,2187.3 637.491,2186.81 637.89,2186.08C638.289,2185.36 638.846,2183.75 639.562,2181.26L645.031,2162.07L625.72,2189L624.743,2189L621.642,2162.07L615.734,2182.55C615.23,2184.3 614.977,2185.47 614.977,2186.07C614.977,2186.67 615.197,2187.13 615.637,2187.45C616.076,2187.77 617.142,2187.98 618.835,2188.1L618.566,2189L607.653,2189L607.922,2188.1L608.581,2188.1C610.192,2188.1 611.356,2187.69 612.072,2186.88C612.593,2186.29 613.138,2185.02 613.708,2183.07L620.91,2158.39C620.373,2157.83 619.86,2157.46 619.372,2157.26C618.884,2157.07 617.98,2156.91 616.662,2156.8L616.906,2155.89L625.134,2155.89Z" style="fill:rgb(2,60,167);fill-rule:nonzero;"/>
            <path d="M663.268,2188.1L663,2189L649.377,2189L649.719,2188.1C651.086,2188.06 651.989,2187.95 652.429,2187.76C653.145,2187.48 653.674,2187.1 654.015,2186.61C654.553,2185.84 655.106,2184.47 655.676,2182.51L661.437,2162.53C661.926,2160.88 662.17,2159.62 662.17,2158.78C662.17,2158.35 662.064,2157.99 661.852,2157.7C661.641,2157.41 661.319,2157.18 660.888,2157.03C660.457,2156.88 659.614,2156.8 658.361,2156.8L658.654,2155.89L671.447,2155.89L671.179,2156.8C670.137,2156.78 669.364,2156.89 668.859,2157.14C668.127,2157.47 667.569,2157.93 667.187,2158.53C666.804,2159.13 666.312,2160.47 665.71,2162.53L659.972,2182.51C659.452,2184.35 659.191,2185.52 659.191,2186.02C659.191,2186.43 659.293,2186.77 659.496,2187.06C659.7,2187.34 660.025,2187.56 660.473,2187.72C660.921,2187.87 661.852,2188 663.268,2188.1Z" style="fill:rgb(2,60,167);fill-rule:nonzero;"/>
            <path d="M683.776,2157.68L679.992,2170.76L683.093,2170.76C685.306,2170.76 686.909,2170.43 687.902,2169.75C688.895,2169.07 689.749,2167.82 690.466,2166L691.369,2166L687.975,2178.01L686.999,2178.01C687.292,2177.01 687.438,2176.14 687.438,2175.43C687.438,2174.73 687.296,2174.16 687.011,2173.74C686.726,2173.32 686.336,2173.01 685.839,2172.8C685.343,2172.6 684.297,2172.5 682.702,2172.5L679.553,2172.5L676.354,2183.46C676.045,2184.52 675.89,2185.32 675.89,2185.88C675.89,2186.3 676.094,2186.67 676.501,2187C676.777,2187.23 677.469,2187.34 678.576,2187.34L681.506,2187.34C684.679,2187.34 687.223,2186.78 689.135,2185.66C691.047,2184.53 692.761,2182.58 694.274,2179.8L695.178,2179.8L692.053,2189L666.467,2189L666.784,2188.1C668.054,2188.06 668.908,2187.95 669.347,2187.76C669.998,2187.46 670.47,2187.09 670.763,2186.63C671.203,2185.96 671.724,2184.57 672.326,2182.43L678.137,2162.46C678.592,2160.85 678.82,2159.62 678.82,2158.78C678.82,2158.16 678.604,2157.67 678.173,2157.32C677.742,2156.97 676.9,2156.8 675.646,2156.8L675.134,2156.8L675.427,2155.89L699.206,2155.89L697.155,2163.88L696.252,2163.88C696.366,2163.13 696.423,2162.5 696.423,2162C696.423,2161.14 696.211,2160.41 695.788,2159.82C695.234,2159.08 694.429,2158.51 693.371,2158.12C692.59,2157.82 690.791,2157.68 687.975,2157.68L683.776,2157.68Z" style="fill:rgb(2,60,167);fill-rule:nonzero;"/>
            <path d="M721.056,2189L696.52,2189L696.862,2188.1C698.164,2188.06 699.035,2187.96 699.474,2187.78C700.158,2187.49 700.663,2187.1 700.988,2186.63C701.493,2185.88 702.03,2184.53 702.599,2182.58L708.434,2162.44C708.923,2160.78 709.167,2159.56 709.167,2158.78C709.167,2158.16 708.943,2157.68 708.495,2157.34C708.048,2156.99 707.206,2156.82 705.969,2156.82C705.692,2156.82 705.472,2156.81 705.309,2156.8L705.602,2155.89L719.103,2155.89L718.908,2156.8C717.394,2156.8 716.32,2156.94 715.685,2157.24C715.051,2157.53 714.522,2158.01 714.098,2158.68C713.805,2159.12 713.325,2160.48 712.658,2162.78L706.921,2182.58C706.481,2184.08 706.262,2185.12 706.262,2185.7C706.262,2186.1 706.481,2186.47 706.921,2186.83C707.197,2187.07 707.824,2187.19 708.801,2187.19L711.999,2187.19C714.326,2187.19 716.174,2186.9 717.541,2186.31C718.55,2185.88 719.478,2185.22 720.324,2184.34C720.78,2183.85 721.585,2182.64 722.741,2180.7L723.376,2179.6L724.279,2179.6L721.056,2189Z" style="fill:rgb(2,60,167);fill-rule:nonzero;"/>
            <path d="M742.126,2157.68L738.342,2170.76L741.442,2170.76C743.656,2170.76 745.259,2170.43 746.252,2169.75C747.245,2169.07 748.099,2167.82 748.815,2166L749.719,2166L746.325,2178.01L745.348,2178.01C745.641,2177.01 745.788,2176.14 745.788,2175.43C745.788,2174.73 745.645,2174.16 745.361,2173.74C745.076,2173.32 744.685,2173.01 744.189,2172.8C743.692,2172.6 742.647,2172.5 741.052,2172.5L737.902,2172.5L734.704,2183.46C734.395,2184.52 734.24,2185.32 734.24,2185.88C734.24,2186.3 734.443,2186.67 734.85,2187C735.127,2187.23 735.819,2187.34 736.926,2187.34L739.855,2187.34C743.029,2187.34 745.572,2186.78 747.485,2185.66C749.397,2184.53 751.11,2182.58 752.624,2179.8L753.527,2179.8L750.402,2189L724.816,2189L725.134,2188.1C726.403,2188.06 727.258,2187.95 727.697,2187.76C728.348,2187.46 728.82,2187.09 729.113,2186.63C729.553,2185.96 730.073,2184.57 730.676,2182.43L736.486,2162.46C736.942,2160.85 737.17,2159.62 737.17,2158.78C737.17,2158.16 736.954,2157.67 736.523,2157.32C736.091,2156.97 735.249,2156.8 733.996,2156.8L733.483,2156.8L733.776,2155.89L757.555,2155.89L755.505,2163.88L754.601,2163.88C754.715,2163.13 754.772,2162.5 754.772,2162C754.772,2161.14 754.561,2160.41 754.137,2159.82C753.584,2159.08 752.778,2158.51 751.72,2158.12C750.939,2157.82 749.141,2157.68 746.325,2157.68L742.126,2157.68Z" style="fill:rgb(2,60,167);fill-rule:nonzero;"/>
        </g>
        <g transform="matrix(1.7954,0,0,1.79605,430.953,-2810.91)">
            <path d="M515.319,2189.76L518.054,2177.48L518.884,2177.48C518.77,2178.66 518.713,2179.65 518.713,2180.43C518.713,2182.66 519.425,2184.47 520.849,2185.88C522.273,2187.28 524.133,2187.97 526.428,2187.97C528.56,2187.97 530.179,2187.32 531.286,2186.01C532.393,2184.7 532.946,2183.19 532.946,2181.48C532.946,2180.37 532.694,2179.37 532.189,2178.45C531.424,2177.1 529.382,2174.73 526.061,2171.32C524.45,2169.7 523.416,2168.48 522.961,2167.69C522.212,2166.37 521.838,2164.99 521.838,2163.54C521.838,2161.22 522.7,2159.25 524.426,2157.6C526.151,2155.96 528.364,2155.14 531.066,2155.14C531.978,2155.14 532.84,2155.23 533.654,2155.41C534.159,2155.5 535.078,2155.83 536.413,2156.38C537.357,2156.76 537.878,2156.96 537.975,2156.99C538.203,2157.04 538.456,2157.07 538.732,2157.07C539.204,2157.07 539.611,2156.94 539.953,2156.7C540.295,2156.46 540.693,2155.93 541.149,2155.14L542.077,2155.14L539.538,2166.12L538.708,2166.12C538.773,2165.15 538.805,2164.36 538.805,2163.76C538.805,2161.79 538.154,2160.18 536.852,2158.92C535.55,2157.67 533.833,2157.04 531.701,2157.04C530.008,2157.04 528.633,2157.54 527.575,2158.53C526.517,2159.52 525.988,2160.67 525.988,2161.97C525.988,2163.11 526.326,2164.2 527.001,2165.23C527.677,2166.27 529.231,2167.95 531.664,2170.29C534.098,2172.62 535.672,2174.45 536.388,2175.76C537.105,2177.07 537.463,2178.46 537.463,2179.94C537.463,2181.62 537.019,2183.24 536.132,2184.81C535.245,2186.38 533.971,2187.6 532.311,2188.46C530.651,2189.33 528.836,2189.76 526.867,2189.76C525.89,2189.76 524.979,2189.67 524.133,2189.49C523.286,2189.31 521.935,2188.87 520.08,2188.17C519.445,2187.93 518.916,2187.8 518.493,2187.8C517.533,2187.8 516.784,2188.45 516.247,2189.76L515.319,2189.76Z" style="fill:rgb(2,60,167);fill-rule:nonzero;"/>
            <path d="M556.164,2157.68L552.38,2170.76L555.48,2170.76C557.694,2170.76 559.297,2170.43 560.29,2169.75C561.283,2169.07 562.137,2167.82 562.853,2166L563.757,2166L560.363,2178.01L559.387,2178.01C559.679,2177.01 559.826,2176.14 559.826,2175.43C559.826,2174.73 559.684,2174.16 559.399,2173.74C559.114,2173.32 558.723,2173.01 558.227,2172.8C557.73,2172.6 556.685,2172.5 555.09,2172.5L551.94,2172.5L548.742,2183.46C548.433,2184.52 548.278,2185.32 548.278,2185.88C548.278,2186.3 548.482,2186.67 548.888,2187C549.165,2187.23 549.857,2187.34 550.964,2187.34L553.893,2187.34C557.067,2187.34 559.61,2186.78 561.523,2185.66C563.435,2184.53 565.148,2182.58 566.662,2179.8L567.565,2179.8L564.44,2189L538.854,2189L539.172,2188.1C540.441,2188.06 541.296,2187.95 541.735,2187.76C542.386,2187.46 542.858,2187.09 543.151,2186.63C543.591,2185.96 544.111,2184.57 544.714,2182.43L550.524,2162.46C550.98,2160.85 551.208,2159.62 551.208,2158.78C551.208,2158.16 550.992,2157.67 550.561,2157.32C550.13,2156.97 549.287,2156.8 548.034,2156.8L547.521,2156.8L547.814,2155.89L571.594,2155.89L569.543,2163.88L568.639,2163.88C568.753,2163.13 568.81,2162.5 568.81,2162C568.81,2161.14 568.599,2160.41 568.176,2159.82C567.622,2159.08 566.817,2158.51 565.759,2158.12C564.977,2157.82 563.179,2157.68 560.363,2157.68L556.164,2157.68Z" style="fill:rgb(2,60,167);fill-rule:nonzero;"/>
            <path d="M591.296,2189L585.998,2172.91C584.761,2172.93 583.491,2172.8 582.189,2172.55L579.333,2182.55C578.958,2183.86 578.771,2184.95 578.771,2185.85C578.771,2186.53 579.007,2187.07 579.479,2187.46C579.837,2187.76 580.814,2187.97 582.409,2188.1L582.189,2189L569.372,2189L569.64,2188.1C570.845,2188.05 571.659,2187.93 572.082,2187.73C572.749,2187.45 573.237,2187.08 573.547,2186.61C574.067,2185.84 574.613,2184.49 575.182,2182.55L580.969,2162.56C581.359,2161.22 581.554,2160.19 581.554,2159.46C581.554,2158.71 581.249,2158.07 580.639,2157.55C580.029,2157.03 579.154,2156.78 578.014,2156.8L578.307,2155.89L589.098,2155.89C592.712,2155.89 595.316,2156.58 596.911,2157.95C598.506,2159.31 599.304,2161.11 599.304,2163.34C599.304,2165.47 598.486,2167.42 596.85,2169.19C595.214,2170.95 592.972,2172.07 590.124,2172.55L593.346,2182.24C594.128,2184.61 594.909,2186.16 595.69,2186.88C596.471,2187.59 597.733,2188 599.474,2188.1L599.206,2189L591.296,2189ZM582.604,2171.15C583.646,2171.3 584.574,2171.37 585.387,2171.37C588.187,2171.37 590.401,2170.6 592.028,2169.04C593.656,2167.49 594.47,2165.55 594.47,2163.24C594.47,2161.44 593.961,2160.05 592.944,2159.09C591.926,2158.13 590.401,2157.65 588.366,2157.65C587.845,2157.65 587.227,2157.72 586.511,2157.85L582.604,2171.15Z" style="fill:rgb(2,60,167);fill-rule:nonzero;"/>
            <path d="M607.751,2189.76L610.485,2162.19C610.615,2160.79 610.68,2159.85 610.68,2159.36C610.68,2158.63 610.408,2158.02 609.863,2157.53C609.317,2157.04 608.459,2156.8 607.287,2156.8L606.408,2156.8L606.652,2155.89L619.714,2155.89L619.445,2156.8C618.029,2156.81 617.057,2156.96 616.528,2157.24C615.999,2157.51 615.58,2157.99 615.27,2158.65C615.108,2159.01 614.937,2160.03 614.758,2161.7L612.804,2181.46L625.72,2163.83C627.119,2161.93 627.998,2160.6 628.356,2159.85C628.6,2159.35 628.722,2158.91 628.722,2158.53C628.722,2158.09 628.535,2157.71 628.161,2157.38C627.787,2157.06 627.087,2156.86 626.061,2156.8L626.354,2155.89L636.315,2155.89L636.071,2156.8C635.274,2156.86 634.639,2157.02 634.167,2157.26C633.272,2157.68 632.38,2158.33 631.493,2159.19C630.606,2160.05 629.203,2161.8 627.282,2164.41L608.63,2189.76L607.751,2189.76Z" style="fill:rgb(2,60,167);fill-rule:nonzero;"/>
            <path d="M643.029,2188.1L642.761,2189L629.137,2189L629.479,2188.1C630.846,2188.06 631.75,2187.95 632.189,2187.76C632.905,2187.48 633.434,2187.1 633.776,2186.61C634.313,2185.84 634.867,2184.47 635.436,2182.51L641.198,2162.53C641.686,2160.88 641.93,2159.62 641.93,2158.78C641.93,2158.35 641.825,2157.99 641.613,2157.7C641.401,2157.41 641.08,2157.18 640.649,2157.03C640.217,2156.88 639.375,2156.8 638.122,2156.8L638.415,2155.89L651.208,2155.89L650.939,2156.8C649.898,2156.78 649.124,2156.89 648.62,2157.14C647.887,2157.47 647.33,2157.93 646.948,2158.53C646.565,2159.13 646.073,2160.47 645.47,2162.53L639.733,2182.51C639.212,2184.35 638.952,2185.52 638.952,2186.02C638.952,2186.43 639.054,2186.77 639.257,2187.06C639.461,2187.34 639.786,2187.56 640.234,2187.72C640.681,2187.87 641.613,2188 643.029,2188.1Z" style="fill:rgb(2,60,167);fill-rule:nonzero;"/>
            <path d="M654.919,2155.89L677.892,2155.89L677.892,2156.8L653.307,2187.41L657.14,2187.41C661.275,2187.41 664.192,2187.21 665.893,2186.8C667.594,2186.4 669.01,2185.69 670.141,2184.68C671.272,2183.67 672.22,2182.24 672.985,2180.38L673.913,2180.38L671.056,2189L647.253,2189L647.253,2188.29L671.838,2157.68L664.977,2157.68C661.983,2157.68 659.875,2157.81 658.654,2158.08C657.433,2158.35 656.388,2158.89 655.517,2159.72C654.646,2160.54 653.91,2161.78 653.307,2163.44L652.453,2163.44L654.919,2155.89Z" style="fill:rgb(2,60,167);fill-rule:nonzero;"/>
            <path d="M687.487,2188.1L687.219,2189L673.595,2189L673.937,2188.1C675.304,2188.06 676.208,2187.95 676.647,2187.76C677.363,2187.48 677.892,2187.1 678.234,2186.61C678.771,2185.84 679.325,2184.47 679.894,2182.51L685.656,2162.53C686.144,2160.88 686.388,2159.62 686.388,2158.78C686.388,2158.35 686.283,2157.99 686.071,2157.7C685.859,2157.41 685.538,2157.18 685.107,2157.03C684.675,2156.88 683.833,2156.8 682.58,2156.8L682.873,2155.89L695.666,2155.89L695.397,2156.8C694.356,2156.78 693.582,2156.89 693.078,2157.14C692.345,2157.47 691.788,2157.93 691.406,2158.53C691.023,2159.13 690.531,2160.47 689.929,2162.53L684.191,2182.51C683.67,2184.35 683.41,2185.52 683.41,2186.02C683.41,2186.43 683.512,2186.77 683.715,2187.06C683.919,2187.34 684.244,2187.56 684.692,2187.72C685.139,2187.87 686.071,2188 687.487,2188.1Z" style="fill:rgb(2,60,167);fill-rule:nonzero;"/>
            <path d="M720.153,2155.89L723.205,2182.55L742.419,2155.89L750.5,2155.89L750.5,2156.8C748.742,2156.91 747.708,2157.03 747.399,2157.14C746.862,2157.35 746.37,2157.77 745.922,2158.41C745.475,2159.04 744.99,2160.26 744.47,2162.07L738.342,2183.07C737.984,2184.29 737.804,2185.25 737.804,2185.95C737.804,2186.58 738.024,2187.06 738.464,2187.39C739.082,2187.86 740.059,2188.1 741.393,2188.1L741.979,2188.1L741.76,2189L727.819,2189L728.063,2188.1L728.722,2188.1C729.959,2188.1 730.903,2187.92 731.554,2187.56C732.059,2187.3 732.511,2186.81 732.909,2186.08C733.308,2185.36 733.866,2183.75 734.582,2181.26L740.051,2162.07L720.739,2189L719.762,2189L716.662,2162.07L710.754,2182.55C710.249,2184.3 709.997,2185.47 709.997,2186.07C709.997,2186.67 710.217,2187.13 710.656,2187.45C711.095,2187.77 712.162,2187.98 713.854,2188.1L713.586,2189L702.673,2189L702.941,2188.1L703.6,2188.1C705.212,2188.1 706.375,2187.69 707.092,2186.88C707.612,2186.29 708.158,2185.02 708.727,2183.07L715.929,2158.39C715.392,2157.83 714.88,2157.46 714.391,2157.26C713.903,2157.07 713,2156.91 711.681,2156.8L711.926,2155.89L720.153,2155.89Z" style="fill:rgb(2,60,167);fill-rule:nonzero;"/>
            <path d="M771.716,2155.14L769.201,2182.68C769.071,2183.96 769.006,2184.81 769.006,2185.22C769.006,2185.87 769.128,2186.36 769.372,2186.7C769.681,2187.18 770.1,2187.53 770.629,2187.76C771.158,2187.98 772.049,2188.1 773.303,2188.1L773.034,2189L759.997,2189L760.265,2188.1L760.827,2188.1C761.885,2188.1 762.748,2187.87 763.415,2187.41C763.887,2187.1 764.253,2186.59 764.513,2185.88C764.692,2185.37 764.863,2184.18 765.026,2182.31L765.417,2178.11L755.944,2178.11L752.575,2182.68C751.81,2183.7 751.33,2184.44 751.135,2184.89C750.939,2185.33 750.842,2185.75 750.842,2186.14C750.842,2186.66 751.053,2187.11 751.476,2187.49C751.9,2187.86 752.599,2188.06 753.576,2188.1L753.307,2189L743.517,2189L743.786,2188.1C744.99,2188.05 746.052,2187.64 746.972,2186.89C747.892,2186.13 749.263,2184.52 751.086,2182.04L770.861,2155.14L771.716,2155.14ZM766.882,2163.27L757.287,2176.33L765.612,2176.33L766.882,2163.27Z" style="fill:rgb(2,60,167);fill-rule:nonzero;"/>
            <path d="M797.277,2189L791.979,2172.91C790.742,2172.93 789.473,2172.8 788.171,2172.55L785.314,2182.55C784.94,2183.86 784.753,2184.95 784.753,2185.85C784.753,2186.53 784.989,2187.07 785.461,2187.46C785.819,2187.76 786.795,2187.97 788.39,2188.1L788.171,2189L775.353,2189L775.622,2188.1C776.826,2188.05 777.64,2187.93 778.063,2187.73C778.731,2187.45 779.219,2187.08 779.528,2186.61C780.049,2185.84 780.594,2184.49 781.164,2182.55L786.95,2162.56C787.341,2161.22 787.536,2160.19 787.536,2159.46C787.536,2158.71 787.231,2158.07 786.62,2157.55C786.01,2157.03 785.135,2156.78 783.996,2156.8L784.289,2155.89L795.08,2155.89C798.693,2155.89 801.297,2156.58 802.892,2157.95C804.487,2159.31 805.285,2161.11 805.285,2163.34C805.285,2165.47 804.467,2167.42 802.831,2169.19C801.196,2170.95 798.954,2172.07 796.105,2172.55L799.328,2182.24C800.109,2184.61 800.89,2186.16 801.672,2186.88C802.453,2187.59 803.714,2188 805.456,2188.1L805.187,2189L797.277,2189ZM788.586,2171.15C789.627,2171.3 790.555,2171.37 791.369,2171.37C794.168,2171.37 796.382,2170.6 798.01,2169.04C799.637,2167.49 800.451,2165.55 800.451,2163.24C800.451,2161.44 799.942,2160.05 798.925,2159.09C797.908,2158.13 796.382,2157.65 794.347,2157.65C793.827,2157.65 793.208,2157.72 792.492,2157.85L788.586,2171.15Z" style="fill:rgb(2,60,167);fill-rule:nonzero;"/>
            <path d="M819.372,2188.1L819.103,2189L805.48,2189L805.822,2188.1C807.189,2188.06 808.093,2187.95 808.532,2187.76C809.248,2187.48 809.777,2187.1 810.119,2186.61C810.656,2185.84 811.209,2184.47 811.779,2182.51L817.541,2162.53C818.029,2160.88 818.273,2159.62 818.273,2158.78C818.273,2158.35 818.167,2157.99 817.956,2157.7C817.744,2157.41 817.423,2157.18 816.991,2157.03C816.56,2156.88 815.718,2156.8 814.465,2156.8L814.758,2155.89L827.551,2155.89L827.282,2156.8C826.24,2156.78 825.467,2156.89 824.963,2157.14C824.23,2157.47 823.673,2157.93 823.29,2158.53C822.908,2159.13 822.415,2160.47 821.813,2162.53L816.076,2182.51C815.555,2184.35 815.295,2185.52 815.295,2186.02C815.295,2186.43 815.396,2186.77 815.6,2187.06C815.803,2187.34 816.129,2187.56 816.576,2187.72C817.024,2187.87 817.956,2188 819.372,2188.1Z" style="fill:rgb(2,60,167);fill-rule:nonzero;"/>
            <path d="M831.017,2155.89L856.164,2155.89L853.454,2164.68L852.526,2164.68C852.835,2163.4 852.99,2162.25 852.99,2161.24C852.99,2160.05 852.624,2159.16 851.891,2158.56C851.338,2158.1 849.914,2157.87 847.619,2157.87L845.007,2157.87L838.464,2180.68C837.634,2183.54 837.219,2185.3 837.219,2185.97C837.219,2186.59 837.479,2187.1 838,2187.5C838.521,2187.9 839.44,2188.1 840.759,2188.1L841.882,2188.1L841.589,2189L827.184,2189L827.453,2188.1L828.088,2188.1C829.357,2188.1 830.334,2187.89 831.017,2187.49C831.489,2187.21 831.917,2186.71 832.299,2185.99C832.682,2185.26 833.215,2183.73 833.898,2181.38L840.759,2157.87L838.781,2157.87C836.877,2157.87 835.343,2158.12 834.179,2158.6C833.015,2159.09 832.075,2159.8 831.359,2160.73C830.643,2161.66 830.057,2162.97 829.601,2164.68L828.698,2164.68L831.017,2155.89Z" style="fill:rgb(2,60,167);fill-rule:nonzero;"/>
            <path d="M858.825,2155.89L883.971,2155.89L881.262,2164.68L880.334,2164.68C880.643,2163.4 880.798,2162.25 880.798,2161.24C880.798,2160.05 880.431,2159.16 879.699,2158.56C879.146,2158.1 877.721,2157.87 875.427,2157.87L872.814,2157.87L866.271,2180.68C865.441,2183.54 865.026,2185.3 865.026,2185.97C865.026,2186.59 865.287,2187.1 865.807,2187.5C866.328,2187.9 867.248,2188.1 868.566,2188.1L869.689,2188.1L869.396,2189L854.992,2189L855.261,2188.1L855.895,2188.1C857.165,2188.1 858.141,2187.89 858.825,2187.49C859.297,2187.21 859.724,2186.71 860.107,2185.99C860.489,2185.26 861.022,2183.73 861.706,2181.38L868.566,2157.87L866.589,2157.87C864.684,2157.87 863.15,2158.12 861.987,2158.6C860.823,2159.09 859.883,2159.8 859.167,2160.73C858.451,2161.66 857.865,2162.97 857.409,2164.68L856.506,2164.68L858.825,2155.89Z" style="fill:rgb(2,60,167);fill-rule:nonzero;"/>
            <path d="M891.637,2188.1L891.369,2189L877.746,2189L878.088,2188.1C879.455,2188.06 880.358,2187.95 880.798,2187.76C881.514,2187.48 882.043,2187.1 882.385,2186.61C882.922,2185.84 883.475,2184.47 884.045,2182.51L889.806,2162.53C890.295,2160.88 890.539,2159.62 890.539,2158.78C890.539,2158.35 890.433,2157.99 890.221,2157.7C890.01,2157.41 889.688,2157.18 889.257,2157.03C888.826,2156.88 887.984,2156.8 886.73,2156.8L887.023,2155.89L899.816,2155.89L899.548,2156.8C898.506,2156.78 897.733,2156.89 897.228,2157.14C896.496,2157.47 895.938,2157.93 895.556,2158.53C895.173,2159.13 894.681,2160.47 894.079,2162.53L888.342,2182.51C887.821,2184.35 887.56,2185.52 887.56,2186.02C887.56,2186.43 887.662,2186.77 887.866,2187.06C888.069,2187.34 888.394,2187.56 888.842,2187.72C889.29,2187.87 890.221,2188 891.637,2188.1Z" style="fill:rgb(2,60,167);fill-rule:nonzero;"/>
            <path d="M911.804,2155.89L914.855,2182.55L934.069,2155.89L942.15,2155.89L942.15,2156.8C940.392,2156.91 939.359,2157.03 939.05,2157.14C938.512,2157.35 938.02,2157.77 937.573,2158.41C937.125,2159.04 936.641,2160.26 936.12,2162.07L929.992,2183.07C929.634,2184.29 929.455,2185.25 929.455,2185.95C929.455,2186.58 929.675,2187.06 930.114,2187.39C930.733,2187.86 931.709,2188.1 933.044,2188.1L933.63,2188.1L933.41,2189L919.47,2189L919.714,2188.1L920.373,2188.1C921.61,2188.1 922.554,2187.92 923.205,2187.56C923.709,2187.3 924.161,2186.81 924.56,2186.08C924.959,2185.36 925.516,2183.75 926.232,2181.26L931.701,2162.07L912.389,2189L911.413,2189L908.312,2162.07L902.404,2182.55C901.9,2184.3 901.647,2185.47 901.647,2186.07C901.647,2186.67 901.867,2187.13 902.306,2187.45C902.746,2187.77 903.812,2187.98 905.505,2188.1L905.236,2189L894.323,2189L894.592,2188.1L895.251,2188.1C896.862,2188.1 898.026,2187.69 898.742,2186.88C899.263,2186.29 899.808,2185.02 900.378,2183.07L907.58,2158.39C907.043,2157.83 906.53,2157.46 906.042,2157.26C905.554,2157.07 904.65,2156.91 903.332,2156.8L903.576,2155.89L911.804,2155.89Z" style="fill:rgb(2,60,167);fill-rule:nonzero;"/>
            <path d="M949.938,2188.1L949.67,2189L936.047,2189L936.388,2188.1C937.756,2188.06 938.659,2187.95 939.098,2187.76C939.815,2187.48 940.344,2187.1 940.685,2186.61C941.222,2185.84 941.776,2184.47 942.345,2182.51L948.107,2162.53C948.595,2160.88 948.84,2159.62 948.84,2158.78C948.84,2158.35 948.734,2157.99 948.522,2157.7C948.311,2157.41 947.989,2157.18 947.558,2157.03C947.127,2156.88 946.284,2156.8 945.031,2156.8L945.324,2155.89L958.117,2155.89L957.848,2156.8C956.807,2156.78 956.034,2156.89 955.529,2157.14C954.797,2157.47 954.239,2157.93 953.857,2158.53C953.474,2159.13 952.982,2160.47 952.38,2162.53L946.642,2182.51C946.122,2184.35 945.861,2185.52 945.861,2186.02C945.861,2186.43 945.963,2186.77 946.166,2187.06C946.37,2187.34 946.695,2187.56 947.143,2187.72C947.59,2187.87 948.522,2188 949.938,2188.1Z" style="fill:rgb(2,60,167);fill-rule:nonzero;"/>
        </g>
        <g transform="matrix(1,0,0,1,-8.84252,-832)">
            <rect x="338" y="1753.94" width="1822" height="38.063" style="fill:rgb(206,11,45);"/>
        </g>
    </g>
</svg>
