<?xml version="1.0" encoding="UTF-8" standalone="no"?>
<!DOCTYPE svg PUBLIC "-//W3C//DTD SVG 1.1//EN" "http://www.w3.org/Graphics/SVG/1.1/DTD/svg11.dtd">
<svg width="100%" height="100%" viewBox="0 0 797 380" version="1.1" xmlns="http://www.w3.org/2000/svg" xmlns:xlink="http://www.w3.org/1999/xlink" xml:space="preserve" xmlns:serif="http://www.serif.com/" style="fill-rule:evenodd;clip-rule:evenodd;stroke-linecap:round;stroke-linejoin:round;stroke-miterlimit:1.5;">
    <g transform="matrix(1,0,0,1,-246.885,-269)">
        <g>
            <g transform="matrix(1.09646,0,0,1.61123,-73.2281,-386.597)">
                <ellipse cx="776.183" cy="524.735" rx="242.092" ry="117.843"/>
            </g>
            <g transform="matrix(1.07764,0,0,1.55017,-65.3828,-319.374)">
                <ellipse cx="773.426" cy="515.953" rx="218.701" ry="103.639" style="fill:rgb(255,253,253);"/>
            </g>
            <path d="M575.61,403.258L672.548,402.491L672.408,343.926C634.266,356.487 600.562,374.498 575.61,403.258Z" style="fill:rgb(137,25,18);"/>
            <path d="M798.024,549.838L797.387,615.51C852.216,610.144 900.869,586.809 940.599,551.128L798.024,549.838Z" style="fill:rgb(137,25,18);"/>
            <g transform="matrix(1.65893,0,0,2.19921,-42.0256,-222.045)">
                <g transform="matrix(50,0,0,50,603.479,320.615)">
                </g>
                <text x="495.129px" y="320.615px" style="font-family:'Arial-BoldMT', 'Arial', sans-serif;font-weight:700;font-size:50px;">ERO</text>
            </g>
            <g transform="matrix(2.62196,0,0,3.10889,-1145.71,-698.131)">
                <g transform="matrix(50,0,0,50,733.04,380.37)">
                </g>
                <text x="702.498px" y="380.37px" style="font-family:'Arial-BoldMT', 'Arial', sans-serif;font-weight:700;font-size:50px;">Z</text>
            </g>
            <g transform="matrix(1.01553,0,0,1.08299,74.045,-71.1657)">
                <path d="M601.397,499.346L601.397,581.961C601.397,604.759 581.659,623.268 557.346,623.268L214.247,623.268C189.935,623.268 170.196,604.759 170.196,581.961L170.196,499.346C170.196,476.548 189.935,458.039 214.247,458.039L557.346,458.039C581.659,458.039 601.397,476.548 601.397,499.346Z" style="fill:rgb(217,39,28);"/>
            </g>
            <g transform="matrix(0.857854,0,0,0.893117,93.1164,69.6117)">
                <g transform="matrix(50,0,0,50,999.687,526.792)">
                </g>
                <text x="710.722px" y="526.792px" style="font-family:'ArialMT', 'Arial', sans-serif;font-size:50px;">PESCHERIE</text>
            </g>
            <g transform="matrix(1.5707,0,0,2.06245,-170.824,-176.013)">
                <g transform="matrix(50,0,0,50,504.209,357.786)">
                </g>
                <text x="351.694px" y="357.786px" style="font-family:'Arial-Black', 'Arial Black', sans-serif;font-weight:900;font-size:50px;fill:white;">O<tspan x="392.05px 428.159px 462.558px " y="357.786px 357.786px 357.786px ">TTO</tspan></text>
            </g>
            <g transform="matrix(2.14848,0,0,2.84425,-427.063,-926.869)">
                <g transform="matrix(50,0,0,50,373.524,523.482)">
                </g>
                <text x="337.416px" y="523.482px" style="font-family:'Arial-Black', 'Arial Black', sans-serif;font-weight:900;font-size:50px;fill:white;">S</text>
            </g>
            <g transform="matrix(1,0,0,1,380.494,-191.766)">
                <path d="M320.461,687.654L570.929,688.767" style="fill:none;stroke:black;stroke-width:4.17px;"/>
            </g>
            <g transform="matrix(0.507779,0,0,0.507779,878.04,137.147)">
                <circle cx="254.912" cy="343.146" r="33.529" style="fill:white;stroke:black;stroke-width:2.46px;"/>
                <g transform="matrix(0.406531,0,0,0.406531,200.421,216.787)">
                    <g transform="matrix(0.755375,0,0,1,22.4343,0)">
                        <g transform="matrix(142.213,0,0,142.213,194.41,361.722)">
                        </g>
                        <text x="91.709px" y="361.722px" style="font-family:'ArialMT', 'Arial', sans-serif;font-size:142.213px;stroke:black;stroke-width:8.02px;stroke-linecap:butt;stroke-miterlimit:2;">R</text>
                    </g>
                </g>
            </g>
        </g>
    </g>
</svg>
