<?xml version="1.0" encoding="UTF-8" standalone="no"?>
<!DOCTYPE svg PUBLIC "-//W3C//DTD SVG 1.1//EN" "http://www.w3.org/Graphics/SVG/1.1/DTD/svg11.dtd">
<svg width="100%" height="100%" viewBox="0 0 1959 363" version="1.1" xmlns="http://www.w3.org/2000/svg" xmlns:xlink="http://www.w3.org/1999/xlink" xml:space="preserve" xmlns:serif="http://www.serif.com/" style="fill-rule:evenodd;clip-rule:evenodd;stroke-linecap:round;stroke-linejoin:round;stroke-miterlimit:1.5;">
    <g transform="matrix(1,0,0,1,-266.689,-1305.92)">
        <g transform="matrix(0.89167,0,0,1,130.022,417.488)">
            <rect x="153.831" y="888.931" width="2194.89" height="361.118" style="stroke:rgb(235,235,235);stroke-width:1.06px;"/>
        </g>
        <g transform="matrix(0.779462,0,0,0.779462,26.638,150.075)">
            <rect x="377.551" y="1528.61" width="379.222" height="379.222" style="fill:none;stroke:white;stroke-width:5.08px;stroke-linecap:square;"/>
        </g>
        <g transform="matrix(0.96851,0,0,1,508.098,209.019)">
            <path d="M112.325,1427.95L1741.85,1428.14" style="fill:none;stroke:white;stroke-width:4.23px;stroke-linecap:square;"/>
        </g>
        <g transform="matrix(3.81583,0,0,4.95887,-889.16,-5760.52)">
            <g transform="matrix(50,0,0,50,783.14,1478.51)">
            </g>
            <text x="406.09px" y="1478.51px" style="font-family:'ArialMT', 'Arial', sans-serif;font-size:50px;fill:white;stroke:white;stroke-width:0.23px;stroke-linecap:butt;stroke-miterlimit:2;">V<tspan x="435.728px 463.536px " y="1478.51px 1478.51px ">al</tspan>lini Casalinghi</text>
        </g>
        <g transform="matrix(1.68093,0,0,1.68093,-1013.31,-867.825)">
            <g transform="matrix(50,0,0,50,888.903,1463.04)">
            </g>
            <text x="833.778px" y="1463.04px" style="font-family:'Zapfino', cursive;font-style:italic;font-size:50px;fill:white;stroke:white;stroke-width:0.59px;stroke-linecap:butt;stroke-miterlimit:2;">V</text>
        </g>
        <g transform="matrix(0.377623,0,0,0.377623,318.509,1338.13)">
            <path d="M731.969,348.266C730.619,335.45 724.083,323.729 713.891,315.844L648.875,265.203L648.875,118.328C648.875,118.323 648.875,118.318 648.875,118.312C648.875,114.438 645.687,111.25 641.813,111.25C641.807,111.25 641.802,111.25 641.797,111.25L540.625,111.25C536.742,111.25 533.547,114.445 533.547,118.328L533.547,175.312L415.625,83.484C406.501,76.373 393.609,76.373 384.484,83.484L86.125,315.75C74.541,324.764 67.754,338.646 67.754,353.324C67.754,364.421 71.634,375.177 78.719,383.719L89.563,396.875C105.672,416.084 134.294,419.528 154.5,404.688L154.5,714.703C154.5,718.595 157.702,721.797 161.594,721.797L638.406,721.797C638.411,721.797 638.417,721.797 638.422,721.797C642.305,721.797 645.5,718.602 645.5,714.719C645.5,714.719 645.5,404.703 645.5,404.703C665.709,419.522 694.314,416.073 710.422,396.875L721.281,383.797C729.542,373.914 733.407,361.066 731.969,348.266ZM168.625,707.641L168.625,393.406L393.156,213.469C397.149,210.248 402.898,210.248 406.891,213.469L631.328,393.484L631.328,707.703L168.625,707.641ZM710.375,374.828L699.531,387.906C687.884,401.776 667.016,403.871 652.844,392.594L642.953,384.656C642.917,384.649 642.88,384.649 642.844,384.656L415.75,202.422C406.61,195.019 393.421,195.019 384.281,202.422L147.141,392.516C132.974,403.792 112.11,401.696 100.469,387.828L89.609,374.734C84.634,368.736 81.91,361.182 81.91,353.389C81.91,343.081 86.677,333.331 94.812,327L393.156,94.656C397.186,91.518 402.877,91.518 406.906,94.656L536.203,195.313C537.448,196.285 538.983,196.814 540.563,196.814C544.445,196.814 547.641,193.619 547.641,189.736C547.641,189.73 547.641,189.725 547.641,189.719L547.641,125.406L634.734,125.406L634.734,268.641C634.731,270.823 635.735,272.889 637.453,274.234L705.203,327C713.338,333.331 718.104,343.08 718.104,353.388C718.104,361.189 715.374,368.749 710.391,374.75L710.375,374.828Z" style="fill:white;fill-rule:nonzero;stroke:white;stroke-width:16.55px;stroke-linecap:butt;stroke-miterlimit:2;"/>
        </g>
        <g transform="matrix(4.33681e-17,-0.666748,0.666748,4.33681e-17,1238.17,2042.86)">
            <g transform="matrix(84.0467,0,0,84.0467,952.943,1418.04)">
            </g>
            <text x="630.463px" y="1418.04px" style="font-family:'Arial-ItalicMT', 'Arial', sans-serif;font-style:italic;font-size:84.047px;fill:white;stroke:white;stroke-width:1.5px;stroke-linecap:butt;stroke-miterlimit:2;">dal 1932</text>
        </g>
    </g>
</svg>
