<?xml version="1.0" encoding="UTF-8" standalone="no"?>
<!DOCTYPE svg PUBLIC "-//W3C//DTD SVG 1.1//EN" "http://www.w3.org/Graphics/SVG/1.1/DTD/svg11.dtd">
<svg width="100%" height="100%" viewBox="0 0 383 93" version="1.1" xmlns="http://www.w3.org/2000/svg" xmlns:xlink="http://www.w3.org/1999/xlink" xml:space="preserve" xmlns:serif="http://www.serif.com/" style="fill-rule:evenodd;clip-rule:evenodd;stroke-linejoin:round;stroke-miterlimit:2;">
    <g transform="matrix(1,0,0,1,-106.511,-421.244)">
        <g transform="matrix(1,0,0,1,0,63.469)">
            <path d="M488.765,361.67L488.765,359.001C485.985,359.114 482.891,359.17 479.482,359.17C475.863,359.17 472.29,359.114 468.763,359.001L468.763,361.67C471.872,361.7 473.923,361.909 474.909,362.306C475.326,362.476 475.64,362.744 475.849,363.109C476.119,363.675 476.312,365.131 476.432,367.474C476.643,371.201 476.744,374.449 476.744,377.215L476.744,408.179C475.61,407.108 474.205,405.639 472.532,403.773C469.899,400.951 466.415,397.083 462.083,392.169L448.538,376.751L439.255,365.947C438.058,364.451 436.191,362.134 433.65,359.001C431.499,359.114 429.329,359.17 427.147,359.17C425.859,359.17 422.721,359.114 417.729,359.001L417.729,361.67C420.152,361.7 421.713,361.776 422.416,361.903C423.118,362.031 423.739,362.319 424.277,362.771C425.115,363.477 425.652,364.083 425.89,364.594C426.009,364.875 426.071,365.483 426.071,366.414L426.071,400.938C426.071,403.647 425.981,406.867 425.804,410.595C425.68,412.996 425.472,414.478 425.174,415.044C424.995,415.409 424.696,415.678 424.277,415.846C423.291,416.271 421.226,416.496 418.088,416.526L418.088,419.194C422.153,418.995 425.921,418.896 429.39,418.896C432.558,418.896 435.457,418.995 438.089,419.194L438.089,416.526C434.98,416.496 432.931,416.287 431.945,415.89C431.527,415.72 431.214,415.439 431.004,415.044C430.733,414.507 430.54,413.065 430.421,410.721C430.211,406.965 430.106,403.705 430.106,400.938L430.106,368.447L461.902,404.326L467.687,411.229C468.853,412.585 470.676,414.59 473.159,417.245C474.086,418.234 474.654,418.799 474.864,418.94C475.013,419.053 475.177,419.138 475.357,419.194L476.432,419.404L481.05,420.676C480.902,409.409 480.826,401.714 480.826,397.59L480.826,377.215C480.826,374.534 480.918,371.327 481.096,367.601C481.216,365.171 481.425,363.689 481.725,363.152C481.903,362.757 482.2,362.476 482.621,362.306C483.608,361.909 485.655,361.7 488.765,361.67M381.088,414.703C380.938,411.991 380.863,408.026 380.863,402.801C380.863,397.238 380.938,393.044 381.088,390.221C384.767,390.078 387.605,390.008 389.61,390.008C394.513,390.008 397.816,390.177 399.519,390.516C400.475,390.715 401.126,391.067 401.47,391.576C401.814,392.083 402.015,393.382 402.076,395.472L402.211,398.352L405.348,398.352L405.126,388.483L405.348,379.672L405.348,378.868L402.659,378.868L402.389,381.833C402.183,383.809 401.942,384.969 401.673,385.307C401.403,385.646 400.79,385.87 399.834,385.984C397.324,386.295 394.289,386.451 390.73,386.451C387.799,386.451 384.587,386.365 381.088,386.195L381.267,371.881C381.327,369.139 381.416,366.202 381.537,363.069C382.613,362.983 384.392,362.883 386.874,362.771C389.353,362.658 390.953,362.602 391.671,362.602C395.019,362.602 398.367,362.8 401.716,363.195C403.69,363.421 405.499,363.859 407.144,364.508C407.562,366.881 407.756,369.507 407.727,372.388L410.553,372.388C411.031,366.768 411.298,363.829 411.36,363.576C411.54,362.389 411.866,360.991 412.347,359.383C409.713,359.072 406.92,358.918 403.959,358.918C401.031,358.918 396.321,358.959 389.834,359.044L376.29,359.256L363.507,359.001L363.507,361.713C367.066,361.769 369.226,361.918 369.99,362.157C370.751,362.397 371.303,362.764 371.649,363.259C371.991,363.752 372.208,365.343 372.299,368.025C372.388,371.694 372.434,375.451 372.434,379.291L372.434,400.938C372.434,403.647 372.344,406.867 372.163,410.595C372.043,412.996 371.832,414.478 371.534,415.044C371.355,415.409 371.057,415.678 370.64,415.846C369.654,416.271 367.589,416.496 364.448,416.526L364.448,419.194C371.893,418.966 375.812,418.854 376.2,418.854L402.971,419.194C406.652,419.194 409.775,419.01 412.347,418.642C412.347,414.888 412.734,410.157 413.512,404.452L410.553,404.452C410.342,405.722 409.907,407.615 409.251,410.128C408.893,411.626 408.535,412.813 408.176,413.685C406.798,414.224 405.306,414.603 403.69,414.829C402.076,415.058 399.37,415.17 395.574,415.17C390.221,415.17 385.391,415.014 381.088,414.703M367.606,385.646C367.606,379.659 366.051,374.59 362.942,370.438C359.832,366.288 356.048,363.33 351.597,361.564C347.14,359.799 341.251,358.916 333.926,358.916C331.476,358.916 328.029,358.974 323.589,359.085C319.15,359.2 315.642,359.254 313.075,359.254C309.723,359.254 305.867,359.17 301.502,359.001L301.502,361.67C304.612,361.697 306.659,361.909 307.646,362.304C308.065,362.476 308.378,362.744 308.587,363.109C308.887,363.675 309.098,365.128 309.217,367.472C309.396,371.201 309.487,374.447 309.487,377.215L309.487,394.498C309.487,396.757 309.38,400.795 309.171,406.613C309.053,410.029 308.901,412.698 308.722,414.618C307.556,415.379 306.106,416.228 304.372,417.16L304.372,419.193C308.947,418.966 312.146,418.854 313.969,418.854C315.226,418.854 317.887,418.913 321.954,419.023C325.06,419.138 327.527,419.193 329.352,419.193C334.852,419.193 339.181,418.778 342.335,417.942C345.489,417.11 348.502,415.876 351.371,414.236C354.242,412.6 356.932,410.376 359.444,407.565C361.954,404.757 363.943,401.472 365.408,397.716C366.872,393.96 367.606,389.938 367.606,385.646M357.965,387.721C357.965,391.391 357.449,394.944 356.416,398.372C355.386,401.806 353.913,404.622 351.998,406.823C350.084,409.028 348.105,410.695 346.058,411.823C344.009,412.953 341.542,413.828 338.661,414.449C335.772,415.071 332.448,415.379 328.677,415.379C325.032,415.379 321.563,415.114 318.276,414.577C318.126,411.441 318.035,408.871 318.005,406.867L317.873,393.735L317.873,376.833L318.05,370.691C318.111,367.163 318.186,364.707 318.276,363.321C322.069,362.786 325.807,362.516 329.486,362.516C336.482,362.516 341.984,363.52 345.989,365.525C349.997,367.53 352.992,370.416 354.982,374.186C356.972,377.957 357.965,382.469 357.965,387.721M301.726,416.481C300.201,416.481 299.216,416.411 298.766,416.271C298.497,416.185 298.227,416.045 297.96,415.846C297.421,415.396 295.537,413.206 292.307,409.283L281.006,395.219C278.225,391.802 276.461,389.6 275.715,388.61C279.812,387.761 283.138,386.564 285.694,385.009C288.249,383.457 290.201,381.508 291.546,379.165C292.89,376.82 293.564,374.461 293.564,372.089C293.564,369.547 292.845,367.196 291.412,365.038C289.976,362.877 287.948,361.319 285.334,360.357C282.719,359.396 278.556,358.916 272.845,358.916C272.097,358.916 269.391,359.001 264.728,359.17C261.14,359.283 258.494,359.34 256.789,359.34L248.18,359.128C245.788,359.072 244.008,359.028 242.843,359.001L242.843,361.711C246.399,361.769 248.561,361.916 249.323,362.157C250.083,362.397 250.638,362.764 250.983,363.259C251.326,363.752 251.544,365.34 251.633,368.023C251.723,371.694 251.768,375.451 251.768,379.291L251.768,398.903C251.679,406.331 251.617,410.34 251.586,410.934C251.498,413.108 251.274,414.478 250.915,415.041C250.614,415.465 250.077,415.797 249.3,416.036C248.523,416.278 246.37,416.427 242.843,416.481L242.843,419.193C249.629,418.966 254.458,418.854 257.327,418.854C260.886,418.854 264.787,418.966 269.033,419.193L269.033,416.481C265.507,416.427 263.351,416.278 262.575,416.036C261.796,415.797 261.237,415.423 260.894,414.915C260.55,414.408 260.347,412.81 260.287,410.128C260.167,406.485 260.107,402.745 260.107,398.903L260.107,380.096C260.287,372.275 260.392,368.164 260.425,367.77C260.482,366.443 260.571,365.015 260.692,363.491C263.652,362.615 266.671,362.178 269.75,362.178C274.653,362.178 278.315,363.201 280.738,365.25C283.16,367.296 284.369,370.057 284.369,373.529C284.369,377.513 282.965,380.716 280.156,383.147C277.345,385.573 273.218,386.789 267.778,386.789C266.97,386.789 265.788,386.746 264.236,386.661L263.786,387.933C266.626,391.012 269.616,394.441 272.755,398.226C274.698,400.514 276.941,403.365 279.481,406.781C284.056,412.939 287.316,417.074 289.261,419.193C291.83,419.023 293.997,418.94 295.76,418.94C297.463,418.94 299.453,419.023 301.726,419.193L301.726,416.481ZM231.41,418.77C233.263,418.77 236.521,418.913 241.185,419.194L241.185,416.314C238.823,416.287 237.307,416.114 236.633,415.804C235.962,415.494 235.341,414.845 234.773,413.857C233.756,412.107 231.696,407.786 228.585,400.895L209.436,358.408L206.52,358.408C202.513,367.474 199.896,373.319 198.671,375.945L187.46,399.837C184.112,406.726 182.168,410.695 181.631,411.739C180.704,413.575 179.995,414.71 179.501,415.148C179.006,415.587 178.468,415.883 177.886,416.038C177.304,416.194 175.829,416.287 173.467,416.314L173.467,419.194C176.907,418.94 180.075,418.814 182.975,418.814C185.487,418.814 189.268,418.94 194.323,419.194L194.323,416.314C191.541,416.287 189.598,416.158 188.492,415.933C187.804,415.793 187.296,415.537 186.967,415.17C186.727,414.915 186.608,414.59 186.608,414.195C186.608,413.291 187.041,411.865 187.909,409.916L192.799,399.031L218.764,399.031L224.278,411.993C224.697,412.982 224.906,413.787 224.906,414.408C224.906,414.803 224.78,415.134 224.526,415.402C224.272,415.671 223.786,415.876 223.068,416.016C222.351,416.158 220.317,416.257 216.971,416.314L216.971,419.194L231.41,418.77ZM216.971,395.431L194.323,395.431L205.757,369.888L216.971,395.431ZM167.504,399.284L170.866,397.421L170.597,395.388C167.755,395.587 164.976,395.683 162.256,395.683L148.263,395.388L148.263,397.971C152.511,398.083 155.22,398.246 156.403,398.459C157.583,398.671 158.308,398.989 158.579,399.412C158.845,399.837 158.983,401.29 158.983,403.776L158.983,408.476C158.983,410.963 158.845,412.77 158.579,413.9C156.872,414.746 154.783,415.409 152.314,415.89C149.845,416.37 147.294,416.61 144.662,416.61C139.063,416.61 134.162,415.431 129.958,413.071C125.754,410.714 122.4,407.313 119.902,402.864C117.404,398.416 116.153,393.412 116.153,387.849C116.153,382.794 117.224,378.133 119.361,373.87C121.497,369.606 124.643,366.331 128.801,364.042C132.957,361.756 137.875,360.611 143.553,360.611C146.304,360.611 148.674,360.795 150.664,361.162C152.65,361.531 155.171,362.263 158.218,363.364C159.983,364.185 161.268,365.101 162.075,366.119C162.435,366.825 162.629,367.402 162.66,367.856C162.689,368.306 162.717,368.9 162.749,369.633L162.973,374.463L165.707,374.463C166.097,370.17 166.41,367.332 166.651,365.949C166.89,364.564 167.234,363.155 167.682,361.713C163.078,360.499 158.944,359.547 155.282,358.853C151.619,358.162 148.13,357.801 144.81,357.775C137.726,357.775 131.776,358.679 126.963,360.484C123.822,361.67 120.678,363.506 117.528,365.992C114.38,368.476 111.755,371.645 109.659,375.501C107.562,379.356 106.511,384.037 106.511,389.544C106.511,395.812 107.978,401.25 110.91,405.851C113.836,410.453 117.992,414.033 123.376,416.589C128.755,419.145 134.899,420.422 141.805,420.422C146.379,420.422 151.224,419.957 156.337,419.023C159.235,418.488 162.957,417.444 167.504,415.89C167.144,412.926 166.964,410.171 166.964,407.631C166.964,405.088 167.144,402.307 167.504,399.284" style="fill:white;fill-rule:nonzero;"/>
        </g>
        <g transform="matrix(1,0,0,1,0,170.142)">
            <path d="M415.295,328.888C414.725,328.915 413.822,328.94 412.583,328.967C410.875,329.005 409.782,329.026 409.312,329.026C408.875,329.026 408,329.013 406.694,328.988C405.079,328.947 403.894,328.915 403.142,328.888C403.203,329.491 403.239,330.573 403.246,332.136L403.888,332.136L404.002,331.144C404.066,330.544 404.134,330.188 404.21,330.075C404.258,330.01 404.366,329.966 404.532,329.948C405.058,329.883 405.77,329.849 406.663,329.849L408.211,329.849L408.273,331.507C408.287,331.837 408.291,332.136 408.291,332.41L408.291,338.13C408.266,339.852 408.251,340.781 408.251,340.919C408.232,341.422 408.175,341.738 408.086,341.871C408.023,341.968 407.903,342.045 407.723,342.101C407.542,342.157 407.041,342.191 406.214,342.202L406.214,342.831C408.106,342.78 409.187,342.753 409.457,342.753C410.08,342.753 411.013,342.78 412.253,342.831L412.253,342.202C411.427,342.191 410.927,342.157 410.75,342.101C410.572,342.045 410.443,341.958 410.366,341.839C410.287,341.722 410.235,341.354 410.215,340.731C410.194,339.887 410.184,339.021 410.184,338.13L410.184,332.392C410.184,331.325 410.219,330.479 410.288,329.849L411.554,329.849C411.901,329.849 412.374,329.865 412.969,329.899C413.562,329.931 413.908,329.957 414.007,329.978C414.081,329.996 414.142,330.023 414.18,330.054C414.215,330.088 414.246,330.144 414.265,330.221C414.286,330.301 414.324,330.625 414.382,331.193L414.464,332.136L415.126,332.136C415.155,330.704 415.213,329.622 415.295,328.888M398.159,342.772C398.553,342.772 399.014,342.792 399.54,342.831L399.54,342.202C399.187,342.202 398.959,342.186 398.857,342.154C398.791,342.134 398.729,342.101 398.668,342.056C398.543,341.952 398.107,341.444 397.359,340.535L394.742,337.277C394.096,336.485 393.687,335.976 393.516,335.746C394.465,335.55 395.235,335.272 395.825,334.914C396.418,334.553 396.871,334.102 397.182,333.558C397.494,333.017 397.65,332.468 397.65,331.92C397.65,331.332 397.483,330.787 397.151,330.287C396.819,329.786 396.348,329.425 395.745,329.201C395.137,328.981 394.174,328.868 392.852,328.868C392.677,328.868 392.052,328.888 390.969,328.926C390.139,328.954 389.527,328.967 389.131,328.967L387.137,328.918C386.583,328.904 386.172,328.895 385.902,328.888L385.902,329.515C386.723,329.529 387.225,329.563 387.401,329.619C387.578,329.675 387.708,329.759 387.786,329.873C387.864,329.989 387.914,330.356 387.937,330.977C387.958,331.827 387.968,332.699 387.968,333.589L387.968,338.13C387.945,339.852 387.931,340.779 387.927,340.916C387.906,341.422 387.852,341.739 387.769,341.868C387.701,341.968 387.575,342.045 387.397,342.101C387.215,342.154 386.719,342.191 385.902,342.202L385.902,342.831C387.473,342.777 388.591,342.753 389.255,342.753C390.081,342.753 390.984,342.777 391.969,342.831L391.969,342.202C391.152,342.191 390.651,342.154 390.471,342.101C390.291,342.045 390.16,341.956 390.081,341.839C390.001,341.722 389.955,341.351 389.942,340.731C389.914,339.887 389.9,339.019 389.9,338.13L389.9,333.774C389.942,331.963 389.966,331.011 389.975,330.919C389.986,330.612 390.007,330.282 390.036,329.928C390.723,329.725 391.42,329.624 392.133,329.624C393.269,329.624 394.119,329.861 394.679,330.336C395.24,330.81 395.521,331.449 395.521,332.254C395.521,333.176 395.195,333.919 394.545,334.48C393.892,335.044 392.938,335.324 391.676,335.324C391.491,335.324 391.216,335.315 390.855,335.294L390.752,335.591C391.409,336.303 392.101,337.097 392.831,337.975C393.279,338.502 393.798,339.166 394.389,339.955C395.448,341.383 396.203,342.34 396.652,342.831C397.249,342.792 397.75,342.772 398.159,342.772M378.751,340.919C380.32,339.452 381.104,337.618 381.104,335.415C381.104,334.726 381.028,334.081 380.872,333.482C380.717,332.88 380.506,332.355 380.243,331.911C379.897,331.315 379.425,330.767 378.824,330.267C378.225,329.766 377.46,329.365 376.522,329.06C375.588,328.755 374.55,328.604 373.406,328.604C372.167,328.604 371.067,328.782 370.102,329.138C369.14,329.494 368.278,330.023 367.516,330.722C366.754,331.423 366.211,332.21 365.881,333.088C365.553,333.964 365.388,334.92 365.388,335.954C365.388,336.869 365.556,337.796 365.898,338.734C366.236,339.674 366.73,340.471 367.383,341.129C368.032,341.788 368.83,342.282 369.772,342.615C370.715,342.949 371.728,343.116 372.814,343.116C375.206,343.116 377.186,342.383 378.751,340.919M378.903,336.062C378.903,337.277 378.7,338.351 378.295,339.283C377.889,340.217 377.274,340.94 376.452,341.453C375.628,341.965 374.657,342.222 373.542,342.222C372.738,342.222 372.005,342.096 371.345,341.843C370.685,341.593 370.084,341.201 369.55,340.668C369.011,340.133 368.576,339.475 368.245,338.69C368.044,338.225 367.879,337.673 367.745,337.032C367.615,336.392 367.547,335.76 367.547,335.14C367.547,334.027 367.758,333.03 368.177,332.15C368.596,331.27 369.222,330.598 370.05,330.133C370.88,329.67 371.848,329.436 372.95,329.436C373.712,329.436 374.421,329.549 375.081,329.772C375.737,329.994 376.272,330.267 376.684,330.589C377.096,330.914 377.453,331.293 377.75,331.728C378.046,332.164 378.287,332.649 378.467,333.185C378.759,334.062 378.903,335.021 378.903,336.062M358.723,341.665C359.863,340.698 360.434,339.563 360.434,338.263C360.434,337.714 360.334,337.235 360.135,336.824C359.933,336.418 359.678,336.087 359.364,335.834C359.053,335.583 358.572,335.367 357.924,335.181C357.231,335.058 356.449,334.943 355.585,334.835C354.72,334.729 354.096,334.612 353.715,334.487C353.159,334.304 352.775,334.061 352.56,333.756C352.345,333.452 352.241,333.022 352.241,332.466C352.241,331.546 352.539,330.794 353.138,330.216C353.736,329.639 354.538,329.348 355.544,329.348C356.319,329.348 357.063,329.537 357.776,329.919C358.073,330.108 358.309,330.32 358.485,330.555C358.524,330.647 358.555,331.198 358.576,332.204L359.284,332.204C359.302,331.511 359.334,330.986 359.377,330.63C359.417,330.273 359.488,329.887 359.585,329.477C358.981,329.193 358.333,328.976 357.636,328.827C356.941,328.679 356.298,328.604 355.709,328.604C354.732,328.604 353.826,328.794 352.993,329.172C352.157,329.552 351.531,330.084 351.103,330.767C350.677,331.451 350.464,332.177 350.464,332.951C350.464,333.482 350.569,333.974 350.783,334.431C350.991,334.888 351.267,335.258 351.605,335.541C351.944,335.823 352.475,336.066 353.195,336.276C353.736,336.389 354.39,336.491 355.159,336.58C355.926,336.673 356.439,336.739 356.698,336.776C357.103,336.856 357.447,336.991 357.724,337.183C358.001,337.377 358.207,337.632 358.343,337.946C358.477,338.26 358.545,338.631 358.545,339.062C358.545,339.626 358.409,340.154 358.14,340.648C357.87,341.143 357.44,341.541 356.854,341.843C356.263,342.149 355.619,342.301 354.921,342.301C354.443,342.301 353.945,342.224 353.435,342.072C352.923,341.916 352.512,341.742 352.207,341.547C351.905,341.349 351.711,341.165 351.631,340.99C351.551,340.817 351.496,340.254 351.459,339.299L350.753,339.299C350.734,340.704 350.667,341.722 350.558,342.351C351.673,342.861 352.915,343.116 354.287,343.116C356.1,343.116 357.578,342.631 358.723,341.665M337.648,341.791C337.613,341.163 337.595,340.244 337.595,339.033C337.595,337.745 337.613,336.775 337.648,336.118C338.499,336.087 339.154,336.07 339.62,336.07C340.757,336.07 341.521,336.109 341.918,336.188C342.138,336.233 342.289,336.317 342.369,336.434C342.449,336.551 342.494,336.851 342.508,337.336L342.541,338.004L343.268,338.004L343.214,335.717L343.268,333.675L343.268,333.489L342.645,333.489L342.581,334.178C342.532,334.634 342.477,334.902 342.415,334.981C342.355,335.061 342.21,335.112 341.989,335.14C341.407,335.212 340.704,335.245 339.881,335.245C339.203,335.245 338.457,335.227 337.648,335.187L337.687,331.87C337.703,331.237 337.725,330.557 337.751,329.829C337.998,329.81 338.412,329.788 338.988,329.761C339.563,329.736 339.93,329.723 340.099,329.723C340.874,329.723 341.652,329.769 342.425,329.861C342.884,329.912 343.301,330.013 343.682,330.165C343.778,330.713 343.824,331.322 343.817,331.99L344.471,331.99C344.582,330.686 344.646,330.007 344.658,329.948C344.701,329.672 344.778,329.348 344.888,328.976C344.279,328.904 343.632,328.868 342.946,328.868C342.268,328.868 341.175,328.88 339.674,328.897L336.536,328.947L333.575,328.888L333.575,329.515C334.401,329.529 334.899,329.563 335.076,329.619C335.253,329.675 335.381,329.759 335.46,329.873C335.539,329.989 335.589,330.356 335.612,330.977C335.633,331.827 335.643,332.699 335.643,333.588L335.643,338.602C335.643,339.229 335.62,339.976 335.579,340.839C335.551,341.395 335.503,341.738 335.435,341.868C335.394,341.954 335.323,342.018 335.226,342.056C334.999,342.154 334.519,342.207 333.795,342.213L333.795,342.831C335.518,342.78 336.425,342.753 336.516,342.753L342.716,342.831C343.569,342.831 344.293,342.789 344.888,342.704C344.888,341.835 344.979,340.738 345.158,339.417L344.471,339.417C344.424,339.712 344.324,340.15 344.17,340.731C344.086,341.079 344.006,341.354 343.923,341.554C343.602,341.681 343.256,341.767 342.884,341.821C342.508,341.873 341.882,341.9 341.002,341.9C339.765,341.9 338.644,341.864 337.648,341.791M327.742,342.772C328.136,342.772 328.597,342.792 329.122,342.831L329.122,342.202C328.77,342.202 328.541,342.186 328.437,342.154C328.375,342.134 328.312,342.101 328.251,342.056C328.126,341.952 327.689,341.444 326.942,340.535L324.325,337.277C323.679,336.485 323.27,335.976 323.099,335.746C324.046,335.55 324.816,335.272 325.408,334.914C326,334.553 326.454,334.102 326.765,333.558C327.077,333.017 327.232,332.468 327.232,331.92C327.232,331.332 327.066,330.787 326.734,330.287C326.401,329.786 325.931,329.425 325.325,329.201C324.72,328.981 323.755,328.868 322.435,328.868C322.26,328.868 321.632,328.888 320.553,328.926C319.722,328.954 319.11,328.967 318.712,328.967L316.72,328.918C316.166,328.904 315.752,328.895 315.482,328.888L315.482,329.515C316.306,329.529 316.808,329.563 316.984,329.619C317.161,329.675 317.288,329.759 317.369,329.873C317.45,329.989 317.499,330.356 317.52,330.977C317.541,331.827 317.551,332.699 317.551,333.589L317.551,338.13C317.53,339.852 317.514,340.779 317.51,340.916C317.489,341.422 317.435,341.739 317.353,341.868C317.284,341.968 317.158,342.045 316.98,342.101C316.798,342.154 316.301,342.191 315.482,342.202L315.482,342.831C317.056,342.777 318.175,342.753 318.838,342.753C319.662,342.753 320.566,342.777 321.55,342.831L321.55,342.202C320.733,342.191 320.234,342.154 320.053,342.101C319.874,342.045 319.743,341.956 319.664,341.839C319.586,341.722 319.538,341.351 319.525,340.731C319.497,339.887 319.483,339.019 319.483,338.13L319.483,333.774C319.525,331.963 319.549,331.011 319.558,330.919C319.569,330.612 319.591,330.282 319.618,329.928C320.304,329.725 321.005,329.624 321.716,329.624C322.854,329.624 323.7,329.861 324.26,330.336C324.823,330.81 325.101,331.449 325.101,332.254C325.101,333.176 324.778,333.919 324.127,334.48C323.475,335.044 322.518,335.324 321.261,335.324C321.071,335.324 320.798,335.315 320.438,335.294L320.335,335.591C320.992,336.303 321.684,337.097 322.411,337.975C322.862,338.502 323.381,339.166 323.971,339.955C325.031,341.383 325.786,342.34 326.235,342.831C326.832,342.792 327.333,342.772 327.742,342.772M300.438,342.732C300.867,342.732 301.62,342.767 302.702,342.831L302.702,342.164C302.156,342.157 301.805,342.119 301.649,342.047C301.491,341.974 301.348,341.823 301.217,341.595C300.981,341.189 300.505,340.188 299.784,338.593L295.347,328.751L294.675,328.751C293.744,330.85 293.136,332.204 292.856,332.814L290.256,338.347C289.48,339.944 289.031,340.863 288.908,341.104C288.692,341.53 288.529,341.791 288.413,341.893C288.299,341.994 288.175,342.064 288.038,342.101C287.905,342.134 287.565,342.157 287.015,342.164L287.015,342.831C287.812,342.772 288.546,342.743 289.218,342.743C289.801,342.743 290.677,342.772 291.848,342.831L291.848,342.164C291.203,342.157 290.751,342.128 290.495,342.076C290.336,342.043 290.217,341.983 290.142,341.9C290.087,341.839 290.059,341.765 290.059,341.673C290.059,341.464 290.162,341.133 290.362,340.682L291.495,338.16L297.508,338.16L298.787,341.163C298.884,341.393 298.932,341.579 298.932,341.722C298.932,341.815 298.903,341.891 298.843,341.952C298.783,342.015 298.671,342.062 298.505,342.094C298.34,342.128 297.868,342.15 297.094,342.164L297.094,342.831L300.438,342.732ZM297.094,337.327L291.848,337.327L294.498,331.41L297.094,337.327ZM280.682,329.653C280.911,329.563 281.387,329.513 282.105,329.506L282.105,328.888C281.464,328.915 280.747,328.926 279.955,328.926C279.117,328.926 278.292,328.915 277.473,328.888L277.473,329.506C278.193,329.513 278.668,329.563 278.896,329.653C278.993,329.692 279.065,329.754 279.116,329.84C279.177,329.972 279.224,330.307 279.249,330.85C279.3,331.712 279.324,332.466 279.324,333.107L279.324,340.28C279.058,340.03 278.733,339.691 278.345,339.258C277.735,338.606 276.929,337.709 275.926,336.572L272.789,332.998L270.637,330.496C270.36,330.152 269.928,329.614 269.341,328.888C268.843,328.915 268.339,328.926 267.833,328.926C267.533,328.926 266.809,328.915 265.65,328.888L265.65,329.506C266.213,329.513 266.574,329.531 266.737,329.56C266.899,329.59 267.043,329.658 267.169,329.761C267.363,329.926 267.487,330.066 267.542,330.183C267.57,330.248 267.585,330.389 267.585,330.605L267.585,338.602C267.585,339.229 267.563,339.976 267.522,340.839C267.494,341.395 267.446,341.738 267.376,341.868C267.334,341.954 267.265,342.018 267.169,342.056C266.94,342.154 266.463,342.207 265.733,342.213L265.733,342.831C266.677,342.786 267.549,342.761 268.353,342.761C269.087,342.761 269.757,342.786 270.369,342.831L270.369,342.213C269.648,342.207 269.173,342.157 268.944,342.064C268.847,342.026 268.774,341.961 268.726,341.868C268.664,341.746 268.619,341.41 268.592,340.868C268.542,339.998 268.519,339.242 268.519,338.602L268.519,331.077L275.884,339.386L277.224,340.986C277.493,341.3 277.916,341.765 278.491,342.381C278.708,342.608 278.839,342.739 278.886,342.772C278.92,342.798 278.958,342.818 279.002,342.831L279.249,342.879L280.321,343.174C280.286,340.564 280.266,338.782 280.266,337.826L280.266,333.107C280.266,332.486 280.288,331.744 280.331,330.88C280.357,330.318 280.405,329.973 280.478,329.849C280.518,329.759 280.588,329.692 280.682,329.653M258.55,342.732C258.979,342.732 259.734,342.767 260.814,342.831L260.814,342.164C260.267,342.157 259.916,342.119 259.761,342.047C259.605,341.974 259.459,341.823 259.328,341.595C259.094,341.189 258.616,340.188 257.895,338.593L253.461,328.751L252.784,328.751C251.856,330.85 251.25,332.204 250.966,332.814L248.369,338.347C247.594,339.944 247.144,340.863 247.019,341.104C246.804,341.53 246.64,341.791 246.525,341.893C246.412,341.994 246.285,342.064 246.151,342.101C246.015,342.134 245.676,342.157 245.128,342.164L245.128,342.831C245.925,342.772 246.658,342.743 247.329,342.743C247.912,342.743 248.788,342.772 249.959,342.831L249.959,342.164C249.314,342.157 248.865,342.128 248.608,342.076C248.45,342.043 248.329,341.983 248.253,341.9C248.198,341.839 248.173,341.765 248.173,341.673C248.173,341.464 248.273,341.133 248.474,340.682L249.606,338.16L255.622,338.16L256.898,341.163C256.995,341.393 257.044,341.579 257.044,341.722C257.044,341.815 257.014,341.891 256.954,341.952C256.898,342.015 256.785,342.062 256.618,342.094C256.45,342.128 255.979,342.15 255.206,342.164L255.206,342.831L258.55,342.732ZM255.206,337.327L249.959,337.327L252.607,331.41L255.206,337.327ZM230.795,340.256C229.516,339.048 228.875,337.454 228.875,335.473C228.882,334.341 229.052,333.4 229.384,332.651C229.716,331.903 230.143,331.284 230.668,330.797C231.189,330.309 231.793,329.953 232.479,329.728C233.164,329.502 233.998,329.382 234.982,329.368C236.298,329.368 237.298,329.527 237.979,329.84C238.663,330.154 239.038,330.632 239.106,331.272L239.116,332.43L239.772,332.43C239.814,331.699 239.889,331.054 240,330.496C240.077,330.152 240.192,329.797 240.344,329.436C240.169,329.404 239.697,329.292 238.925,329.097C238.154,328.906 237.499,328.776 236.961,328.708C236.423,328.638 235.842,328.604 235.212,328.604C232.546,328.604 230.441,329.289 228.902,330.659C227.358,332.03 226.589,333.758 226.589,335.845C226.589,336.669 226.704,337.426 226.934,338.117C227.161,338.807 227.492,339.445 227.929,340.034C228.368,340.624 228.929,341.156 229.618,341.629C230.306,342.103 231.112,342.468 232.034,342.724C232.955,342.978 233.95,343.105 235.025,343.105C235.939,343.105 236.783,343.019 237.559,342.845C238.335,342.671 239.128,342.394 239.938,342.006L240.344,341.094L240.167,340.887C239.619,341.255 239.069,341.523 238.514,341.692C237.704,341.941 236.823,342.064 235.875,342.064C233.772,342.064 232.078,341.462 230.795,340.256M219.694,341.665C220.838,340.698 221.41,339.563 221.41,338.263C221.41,337.714 221.308,337.235 221.108,336.824C220.907,336.418 220.652,336.087 220.34,335.834C220.026,335.583 219.545,335.367 218.894,335.181C218.203,335.058 217.423,334.943 216.559,334.835C215.691,334.729 215.069,334.612 214.688,334.487C214.135,334.304 213.75,334.061 213.536,333.756C213.32,333.452 213.212,333.022 213.212,332.466C213.212,331.546 213.511,330.794 214.111,330.216C214.71,329.639 215.513,329.348 216.516,329.348C217.293,329.348 218.037,329.537 218.749,329.919C219.047,330.108 219.283,330.32 219.455,330.555C219.498,330.647 219.53,331.198 219.548,332.204L220.257,332.204C220.277,331.511 220.308,330.986 220.349,330.63C220.391,330.273 220.46,329.887 220.557,329.477C219.955,329.193 219.305,328.976 218.609,328.827C217.916,328.679 217.269,328.604 216.682,328.604C215.705,328.604 214.8,328.794 213.965,329.172C213.131,329.552 212.501,330.084 212.076,330.767C211.648,331.451 211.437,332.177 211.437,332.951C211.437,333.482 211.541,333.974 211.754,334.431C211.963,334.888 212.24,335.258 212.58,335.541C212.918,335.823 213.449,336.066 214.168,336.276C214.707,336.389 215.364,336.491 216.13,336.58C216.9,336.673 217.414,336.739 217.669,336.776C218.077,336.856 218.42,336.991 218.698,337.183C218.977,337.377 219.181,337.632 219.317,337.946C219.45,338.26 219.517,338.631 219.517,339.062C219.517,339.626 219.383,340.154 219.113,340.648C218.845,341.143 218.415,341.541 217.827,341.843C217.237,342.149 216.592,342.301 215.892,342.301C215.418,342.301 214.92,342.224 214.406,342.072C213.896,341.916 213.487,341.742 213.181,341.547C212.877,341.349 212.685,341.165 212.606,340.99C212.524,340.817 212.467,340.254 212.434,339.299L211.728,339.299C211.708,340.704 211.642,341.722 211.531,342.351C212.644,342.861 213.888,343.116 215.26,343.116C217.075,343.116 218.552,342.631 219.694,341.665M204.172,340.919C205.742,339.452 206.528,337.618 206.528,335.415C206.528,334.726 206.449,334.081 206.294,333.482C206.138,332.88 205.928,332.355 205.664,331.911C205.318,331.315 204.846,330.767 204.247,330.267C203.648,329.766 202.881,329.365 201.944,329.06C201.01,328.755 199.971,328.604 198.83,328.604C197.587,328.604 196.489,328.782 195.524,329.138C194.562,329.494 193.699,330.023 192.937,330.722C192.176,331.423 191.632,332.21 191.302,333.088C190.975,333.964 190.809,334.92 190.809,335.954C190.809,336.869 190.979,337.796 191.319,338.734C191.659,339.674 192.151,340.471 192.804,341.129C193.455,341.788 194.251,342.282 195.193,342.615C196.134,342.949 197.149,343.116 198.237,343.116C200.627,343.116 202.606,342.383 204.172,340.919M204.325,336.062C204.325,337.277 204.123,338.351 203.716,339.283C203.311,340.217 202.696,340.94 201.873,341.453C201.049,341.965 200.079,342.222 198.964,342.222C198.162,342.222 197.428,342.096 196.766,341.843C196.106,341.593 195.505,341.201 194.97,340.668C194.432,340.133 193.999,339.475 193.666,338.69C193.463,338.225 193.299,337.673 193.167,337.032C193.036,336.392 192.969,335.76 192.969,335.14C192.969,334.027 193.179,333.03 193.597,332.15C194.018,331.27 194.643,330.598 195.475,330.133C196.302,329.67 197.27,329.436 198.372,329.436C199.133,329.436 199.843,329.549 200.502,329.772C201.16,329.994 201.694,330.267 202.106,330.589C202.518,330.914 202.874,331.293 203.172,331.728C203.468,332.164 203.71,332.649 203.888,333.185C204.18,334.062 204.325,335.021 204.325,336.062M186.243,332.136C186.27,330.704 186.325,329.622 186.407,328.888C185.841,328.915 184.937,328.94 183.697,328.967C181.985,329.005 180.897,329.026 180.427,329.026C179.988,329.026 179.118,329.013 177.807,328.988C176.194,328.947 175.01,328.915 174.254,328.888C174.316,329.491 174.351,330.573 174.36,332.136L175.001,332.136L175.116,331.144C175.178,330.544 175.248,330.188 175.324,330.075C175.373,330.01 175.481,329.966 175.646,329.948C176.173,329.883 176.881,329.849 177.774,329.849L179.322,329.849L179.384,331.507C179.398,331.837 179.407,332.136 179.407,332.41L179.407,338.13C179.38,339.852 179.365,340.781 179.365,340.919C179.344,341.422 179.289,341.738 179.199,341.871C179.136,341.968 179.014,342.045 178.835,342.101C178.656,342.157 178.153,342.191 177.327,342.202L177.327,342.831C179.22,342.78 180.298,342.753 180.572,342.753C181.193,342.753 182.123,342.78 183.363,342.831L183.363,342.202C182.539,342.191 182.039,342.157 181.863,342.101C181.687,342.045 181.56,341.958 181.478,341.839C181.4,341.722 181.35,341.354 181.329,340.731C181.308,339.887 181.297,339.021 181.297,338.13L181.297,332.392C181.297,331.325 181.331,330.479 181.403,329.849L182.668,329.849C183.014,329.849 183.485,329.865 184.081,329.899C184.677,329.931 185.024,329.957 185.119,329.978C185.197,329.996 185.251,330.023 185.29,330.054C185.328,330.088 185.36,330.144 185.378,330.221C185.401,330.301 185.438,330.625 185.494,331.193L185.576,332.136L186.243,332.136Z" style="fill:white;fill-rule:nonzero;"/>
        </g>
    </g>
</svg>
